<mxfile host="app.diagrams.net" agent="Mozilla/5.0 (Windows NT 10.0; Win64; x64; rv:142.0) Gecko/20100101 Firefox/142.0" version="28.1.1" pages="7">
  <diagram name="Custom_CNN_arc" id="D-VBxteyFYxq9ZwdqaTK">
    <mxGraphModel grid="0" page="0" gridSize="10" guides="1" tooltips="1" connect="1" arrows="1" fold="1" pageScale="1" pageWidth="850" pageHeight="1100" math="0" shadow="0">
      <root>
        <mxCell id="0" />
        <mxCell id="1" parent="0" />
        <mxCell id="UgetWQdBQ61tTUJuFl-F-1" value="Dataset Preparation" style="swimlane;whiteSpace=wrap;html=1;fontSize=13;fontFamily=Times New Roman;" vertex="1" parent="1">
          <mxGeometry x="11" y="-99" width="397" height="366" as="geometry">
            <mxRectangle x="-47" y="-61" width="142" height="26" as="alternateBounds" />
          </mxGeometry>
        </mxCell>
        <mxCell id="UgetWQdBQ61tTUJuFl-F-9" value="" style="edgeStyle=none;curved=1;rounded=0;orthogonalLoop=1;jettySize=auto;html=1;fontSize=13;startSize=8;endSize=8;fontFamily=Times New Roman;" edge="1" parent="UgetWQdBQ61tTUJuFl-F-1" source="UgetWQdBQ61tTUJuFl-F-2" target="UgetWQdBQ61tTUJuFl-F-4">
          <mxGeometry relative="1" as="geometry" />
        </mxCell>
        <mxCell id="UgetWQdBQ61tTUJuFl-F-2" value="&lt;p&gt;&lt;b&gt;&lt;font&gt;&lt;font&gt;Original Dataset&amp;nbsp;&lt;/font&gt;&lt;br&gt;&lt;/font&gt;&lt;/b&gt;&lt;/p&gt;" style="rounded=0;whiteSpace=wrap;html=1;fontSize=13;fontFamily=Times New Roman;" vertex="1" parent="UgetWQdBQ61tTUJuFl-F-1">
          <mxGeometry x="120.5" y="38.5" width="160" height="37" as="geometry" />
        </mxCell>
        <mxCell id="UgetWQdBQ61tTUJuFl-F-11" value="" style="edgeStyle=none;curved=1;rounded=0;orthogonalLoop=1;jettySize=auto;html=1;fontSize=13;startSize=8;endSize=8;fontFamily=Times New Roman;" edge="1" parent="UgetWQdBQ61tTUJuFl-F-1" source="UgetWQdBQ61tTUJuFl-F-4" target="UgetWQdBQ61tTUJuFl-F-10">
          <mxGeometry relative="1" as="geometry" />
        </mxCell>
        <mxCell id="UgetWQdBQ61tTUJuFl-F-4" value="&lt;b&gt;&lt;font&gt;Copy to Writable Dir&lt;/font&gt;&lt;/b&gt;" style="whiteSpace=wrap;html=1;rounded=0;fontSize=13;fontFamily=Times New Roman;" vertex="1" parent="UgetWQdBQ61tTUJuFl-F-1">
          <mxGeometry x="121" y="109.5" width="157" height="38" as="geometry" />
        </mxCell>
        <mxCell id="UgetWQdBQ61tTUJuFl-F-6" value="&lt;font&gt;&lt;b&gt;shutil.copytree()&lt;/b&gt;&lt;/font&gt;" style="text;html=1;align=center;verticalAlign=middle;whiteSpace=wrap;rounded=0;fontSize=13;fontFamily=Times New Roman;" vertex="1" parent="UgetWQdBQ61tTUJuFl-F-1">
          <mxGeometry x="259" y="79.5" width="60" height="30" as="geometry" />
        </mxCell>
        <mxCell id="UgetWQdBQ61tTUJuFl-F-14" value="" style="edgeStyle=none;curved=1;rounded=0;orthogonalLoop=1;jettySize=auto;html=1;fontSize=13;startSize=8;endSize=8;fontFamily=Times New Roman;" edge="1" parent="UgetWQdBQ61tTUJuFl-F-1" source="UgetWQdBQ61tTUJuFl-F-10" target="UgetWQdBQ61tTUJuFl-F-13">
          <mxGeometry relative="1" as="geometry">
            <mxPoint x="157.5" y="274.0000000000002" as="targetPoint" />
          </mxGeometry>
        </mxCell>
        <mxCell id="UgetWQdBQ61tTUJuFl-F-10" value="&lt;font&gt;&lt;b&gt;Remove Corrupted Images&amp;nbsp;&lt;/b&gt;&lt;/font&gt;&lt;div&gt;&lt;font&gt;&lt;b&gt;(Pillow Image.verify)&lt;/b&gt;&lt;/font&gt;&lt;/div&gt;" style="rounded=0;whiteSpace=wrap;html=1;fontSize=13;fontFamily=Times New Roman;" vertex="1" parent="UgetWQdBQ61tTUJuFl-F-1">
          <mxGeometry x="116" y="194" width="169" height="61" as="geometry" />
        </mxCell>
        <mxCell id="UgetWQdBQ61tTUJuFl-F-12" value="&lt;font&gt;&lt;b&gt;os.walk() + Image.verify()&lt;/b&gt;&lt;/font&gt;" style="text;html=1;align=center;verticalAlign=middle;whiteSpace=wrap;rounded=0;fontSize=13;fontFamily=Times New Roman;" vertex="1" parent="UgetWQdBQ61tTUJuFl-F-1">
          <mxGeometry x="217" y="153" width="151" height="30" as="geometry" />
        </mxCell>
        <mxCell id="UgetWQdBQ61tTUJuFl-F-13" value="&lt;font&gt;&lt;b&gt;Cleaned Dataset (Ready for training)&lt;/b&gt;&lt;/font&gt;" style="rounded=0;whiteSpace=wrap;html=1;fontSize=13;fontFamily=Times New Roman;" vertex="1" parent="UgetWQdBQ61tTUJuFl-F-1">
          <mxGeometry x="124.75" y="295" width="147.5" height="58" as="geometry" />
        </mxCell>
        <mxCell id="UgetWQdBQ61tTUJuFl-F-15" value="&lt;font&gt;&lt;br&gt;&lt;font&gt;&lt;b&gt;output&lt;/b&gt;&lt;/font&gt;&lt;/font&gt;&lt;div&gt;&lt;br&gt;&lt;/div&gt;" style="text;html=1;align=center;verticalAlign=middle;whiteSpace=wrap;rounded=0;fontSize=13;fontFamily=Times New Roman;" vertex="1" parent="UgetWQdBQ61tTUJuFl-F-1">
          <mxGeometry x="120" y="253" width="251" height="39" as="geometry" />
        </mxCell>
        <mxCell id="UgetWQdBQ61tTUJuFl-F-16" value="&lt;font&gt;Image Preprocessing &amp;amp; Augmentation&lt;/font&gt;" style="swimlane;whiteSpace=wrap;html=1;fontSize=13;fontFamily=Times New Roman;" vertex="1" parent="1">
          <mxGeometry x="476" y="-41" width="450" height="319" as="geometry" />
        </mxCell>
        <mxCell id="UgetWQdBQ61tTUJuFl-F-24" value="" style="edgeStyle=none;curved=1;rounded=0;orthogonalLoop=1;jettySize=auto;html=1;fontSize=13;startSize=8;endSize=8;fontFamily=Times New Roman;" edge="1" parent="UgetWQdBQ61tTUJuFl-F-16" source="UgetWQdBQ61tTUJuFl-F-17" target="UgetWQdBQ61tTUJuFl-F-23">
          <mxGeometry relative="1" as="geometry" />
        </mxCell>
        <mxCell id="UgetWQdBQ61tTUJuFl-F-17" value="&lt;b&gt;&lt;font&gt;Train datagenerator&lt;/font&gt;&lt;/b&gt;&lt;div&gt;&lt;b&gt;&lt;font&gt;(rescale, rotation, zoom, shift, shear, brightness, flip, split=0.2)&lt;/font&gt;&lt;/b&gt;&lt;/div&gt;" style="rounded=0;whiteSpace=wrap;html=1;fontSize=13;fontFamily=Times New Roman;" vertex="1" parent="UgetWQdBQ61tTUJuFl-F-16">
          <mxGeometry x="19" y="74" width="208" height="91" as="geometry" />
        </mxCell>
        <mxCell id="UgetWQdBQ61tTUJuFl-F-26" value="" style="edgeStyle=none;curved=1;rounded=0;orthogonalLoop=1;jettySize=auto;html=1;fontSize=13;startSize=8;endSize=8;fontFamily=Times New Roman;" edge="1" parent="UgetWQdBQ61tTUJuFl-F-16" source="UgetWQdBQ61tTUJuFl-F-18" target="UgetWQdBQ61tTUJuFl-F-25">
          <mxGeometry relative="1" as="geometry" />
        </mxCell>
        <mxCell id="UgetWQdBQ61tTUJuFl-F-18" value="&lt;b&gt;&lt;font&gt;ImageDataGenerator (val) rescale=1/255&amp;nbsp;&lt;/font&gt;&lt;/b&gt;&lt;div&gt;&lt;b&gt;&lt;font&gt;validation_split=0.2&lt;/font&gt;&lt;/b&gt;&lt;/div&gt;" style="rounded=0;whiteSpace=wrap;html=1;fontSize=13;fontFamily=Times New Roman;" vertex="1" parent="UgetWQdBQ61tTUJuFl-F-16">
          <mxGeometry x="252" y="74" width="173" height="89" as="geometry" />
        </mxCell>
        <mxCell id="UgetWQdBQ61tTUJuFl-F-23" value="&lt;b&gt;&lt;font&gt;Train generator&amp;nbsp;&lt;/font&gt;&lt;/b&gt;&lt;div&gt;&lt;b&gt;&lt;font&gt;(training subset, IMG_SIZE=512×512, batch=16)&lt;/font&gt;&lt;/b&gt;&lt;/div&gt;" style="rounded=0;whiteSpace=wrap;html=1;fontSize=13;fontFamily=Times New Roman;" vertex="1" parent="UgetWQdBQ61tTUJuFl-F-16">
          <mxGeometry x="21" y="207" width="207" height="81" as="geometry" />
        </mxCell>
        <mxCell id="UgetWQdBQ61tTUJuFl-F-25" value="&lt;b&gt;&lt;font&gt;Val generator&amp;nbsp;&lt;/font&gt;&lt;/b&gt;&lt;div&gt;&lt;b&gt;&lt;font&gt;(validation subset, IMG_SIZE=512×512, batch=16)&lt;/font&gt;&lt;/b&gt;&lt;/div&gt;" style="rounded=0;whiteSpace=wrap;html=1;fontSize=13;fontFamily=Times New Roman;" vertex="1" parent="UgetWQdBQ61tTUJuFl-F-16">
          <mxGeometry x="254" y="206" width="170" height="84" as="geometry" />
        </mxCell>
        <mxCell id="UgetWQdBQ61tTUJuFl-F-31" value="&lt;font&gt;Custom CNN Model&lt;/font&gt;" style="swimlane;whiteSpace=wrap;html=1;fontSize=13;fontFamily=Times New Roman;" vertex="1" parent="1">
          <mxGeometry x="441" y="322" width="531" height="596" as="geometry" />
        </mxCell>
        <mxCell id="UgetWQdBQ61tTUJuFl-F-32" value="&lt;font&gt;Base CNN&lt;/font&gt;" style="swimlane;whiteSpace=wrap;html=1;fontSize=13;fontFamily=Times New Roman;" vertex="1" parent="UgetWQdBQ61tTUJuFl-F-31">
          <mxGeometry x="17" y="45" width="503" height="250" as="geometry" />
        </mxCell>
        <mxCell id="UgetWQdBQ61tTUJuFl-F-35" value="" style="edgeStyle=none;curved=1;rounded=0;orthogonalLoop=1;jettySize=auto;html=1;fontSize=13;startSize=8;endSize=8;fontFamily=Times New Roman;" edge="1" parent="UgetWQdBQ61tTUJuFl-F-32" source="UgetWQdBQ61tTUJuFl-F-33" target="UgetWQdBQ61tTUJuFl-F-34">
          <mxGeometry relative="1" as="geometry" />
        </mxCell>
        <mxCell id="UgetWQdBQ61tTUJuFl-F-33" value="&lt;b&gt;&lt;font&gt;Conv2D(32, (3,3)+ReLU)&lt;br&gt;&lt;/font&gt;&lt;/b&gt;&lt;div&gt;&lt;b&gt;&lt;font&gt;&lt;span style=&quot;background-color: transparent; color: light-dark(rgb(0, 0, 0), rgb(255, 255, 255));&quot;&gt;MaxPooling2D(2,2)&lt;/span&gt;&lt;/font&gt;&lt;/b&gt;&lt;/div&gt;" style="rounded=0;whiteSpace=wrap;html=1;fontSize=13;fontFamily=Times New Roman;" vertex="1" parent="UgetWQdBQ61tTUJuFl-F-32">
          <mxGeometry x="16" y="35" width="144" height="79" as="geometry" />
        </mxCell>
        <mxCell id="UgetWQdBQ61tTUJuFl-F-37" value="" style="edgeStyle=none;curved=1;rounded=0;orthogonalLoop=1;jettySize=auto;html=1;fontSize=13;startSize=8;endSize=8;fontFamily=Times New Roman;" edge="1" parent="UgetWQdBQ61tTUJuFl-F-32" source="UgetWQdBQ61tTUJuFl-F-34" target="UgetWQdBQ61tTUJuFl-F-36">
          <mxGeometry relative="1" as="geometry" />
        </mxCell>
        <mxCell id="UgetWQdBQ61tTUJuFl-F-34" value="&lt;font&gt;&lt;b&gt;Conv2D(64, (3,3)+ReLU)&lt;br&gt;&lt;/b&gt;&lt;/font&gt;&lt;div&gt;&lt;font&gt;&lt;b&gt;&lt;span style=&quot;background-color: transparent; color: light-dark(rgb(0, 0, 0), rgb(255, 255, 255));&quot;&gt;MaxPooling2D(2,2)&lt;/span&gt;&lt;/b&gt;&lt;/font&gt;&lt;/div&gt;" style="rounded=0;whiteSpace=wrap;html=1;fontSize=13;fontFamily=Times New Roman;" vertex="1" parent="UgetWQdBQ61tTUJuFl-F-32">
          <mxGeometry x="182" y="36" width="144" height="77" as="geometry" />
        </mxCell>
        <mxCell id="UgetWQdBQ61tTUJuFl-F-45" value="" style="edgeStyle=none;curved=1;rounded=0;orthogonalLoop=1;jettySize=auto;html=1;fontSize=13;startSize=8;endSize=8;fontFamily=Times New Roman;" edge="1" parent="UgetWQdBQ61tTUJuFl-F-32" source="UgetWQdBQ61tTUJuFl-F-36" target="UgetWQdBQ61tTUJuFl-F-41">
          <mxGeometry relative="1" as="geometry" />
        </mxCell>
        <mxCell id="UgetWQdBQ61tTUJuFl-F-36" value="&lt;b&gt;&lt;font&gt;Conv2D(128, (3,3)+ReLU)&lt;br&gt;&lt;/font&gt;&lt;/b&gt;&lt;div&gt;&lt;b&gt;&lt;font&gt;&lt;span style=&quot;background-color: transparent; color: light-dark(rgb(0, 0, 0), rgb(255, 255, 255));&quot;&gt;MaxPooling2D(2,2)&lt;/span&gt;&lt;/font&gt;&lt;/b&gt;&lt;/div&gt;" style="rounded=0;whiteSpace=wrap;html=1;fontSize=13;fontFamily=Times New Roman;" vertex="1" parent="UgetWQdBQ61tTUJuFl-F-32">
          <mxGeometry x="346" y="37" width="144" height="76" as="geometry" />
        </mxCell>
        <mxCell id="UgetWQdBQ61tTUJuFl-F-42" value="&lt;font&gt;&lt;b&gt;Conv2D(512, (3,3)+ReLU)&lt;br&gt;&lt;/b&gt;&lt;/font&gt;&lt;div&gt;&lt;font&gt;&lt;b&gt;&lt;span style=&quot;background-color: transparent; color: light-dark(rgb(0, 0, 0), rgb(255, 255, 255));&quot;&gt;MaxPooling2D(2,2)&lt;/span&gt;&lt;/b&gt;&lt;/font&gt;&lt;/div&gt;" style="rounded=0;whiteSpace=wrap;html=1;fontSize=13;fontFamily=Times New Roman;" vertex="1" parent="UgetWQdBQ61tTUJuFl-F-32">
          <mxGeometry x="183" y="154" width="144" height="73" as="geometry" />
        </mxCell>
        <mxCell id="UgetWQdBQ61tTUJuFl-F-44" value="" style="edgeStyle=none;curved=1;rounded=0;orthogonalLoop=1;jettySize=auto;html=1;fontSize=13;startSize=8;endSize=8;fontFamily=Times New Roman;" edge="1" parent="UgetWQdBQ61tTUJuFl-F-32" source="UgetWQdBQ61tTUJuFl-F-41" target="UgetWQdBQ61tTUJuFl-F-42">
          <mxGeometry relative="1" as="geometry" />
        </mxCell>
        <mxCell id="UgetWQdBQ61tTUJuFl-F-41" value="&lt;b&gt;&lt;font&gt;Conv2D(256, (3,3)+ReLU)&lt;br&gt;&lt;/font&gt;&lt;/b&gt;&lt;div&gt;&lt;b&gt;&lt;font&gt;&lt;span style=&quot;background-color: transparent; color: light-dark(rgb(0, 0, 0), rgb(255, 255, 255));&quot;&gt;MaxPooling2D(2,2)&lt;/span&gt;&lt;/font&gt;&lt;/b&gt;&lt;/div&gt;" style="rounded=0;whiteSpace=wrap;html=1;fontSize=13;fontFamily=Times New Roman;" vertex="1" parent="UgetWQdBQ61tTUJuFl-F-32">
          <mxGeometry x="351" y="154" width="144" height="85" as="geometry" />
        </mxCell>
        <mxCell id="UgetWQdBQ61tTUJuFl-F-46" value="&lt;font&gt;&lt;b&gt;Classification Head&lt;/b&gt;&lt;/font&gt;" style="swimlane;whiteSpace=wrap;html=1;fontSize=13;startSize=23;fontFamily=Times New Roman;" vertex="1" parent="UgetWQdBQ61tTUJuFl-F-31">
          <mxGeometry x="62" y="319" width="421" height="220" as="geometry" />
        </mxCell>
        <mxCell id="UgetWQdBQ61tTUJuFl-F-55" value="" style="edgeStyle=none;curved=1;rounded=0;orthogonalLoop=1;jettySize=auto;html=1;fontSize=13;startSize=8;endSize=8;fontFamily=Times New Roman;" edge="1" parent="UgetWQdBQ61tTUJuFl-F-46" source="UgetWQdBQ61tTUJuFl-F-50" target="UgetWQdBQ61tTUJuFl-F-52">
          <mxGeometry relative="1" as="geometry" />
        </mxCell>
        <mxCell id="UgetWQdBQ61tTUJuFl-F-50" value="&lt;div&gt;&lt;b&gt;&lt;font&gt;GlobalAverage&lt;/font&gt;&lt;/b&gt;&lt;/div&gt;&lt;div&gt;&lt;b&gt;&lt;font&gt;Pooling2D&lt;/font&gt;&lt;/b&gt;&lt;/div&gt;" style="rounded=0;whiteSpace=wrap;html=1;fontSize=13;fontFamily=Times New Roman;" vertex="1" parent="UgetWQdBQ61tTUJuFl-F-46">
          <mxGeometry x="34" y="50.29" width="138" height="53" as="geometry" />
        </mxCell>
        <mxCell id="UgetWQdBQ61tTUJuFl-F-57" value="" style="edgeStyle=none;curved=1;rounded=0;orthogonalLoop=1;jettySize=auto;html=1;fontSize=13;startSize=8;endSize=8;fontFamily=Times New Roman;" edge="1" parent="UgetWQdBQ61tTUJuFl-F-46" source="UgetWQdBQ61tTUJuFl-F-52" target="UgetWQdBQ61tTUJuFl-F-56">
          <mxGeometry relative="1" as="geometry" />
        </mxCell>
        <mxCell id="UgetWQdBQ61tTUJuFl-F-52" value="&lt;font&gt;&lt;b&gt;Dense(512, ReLU)&lt;/b&gt;&lt;/font&gt;" style="rounded=0;whiteSpace=wrap;html=1;fontSize=13;fontFamily=Times New Roman;" vertex="1" parent="UgetWQdBQ61tTUJuFl-F-46">
          <mxGeometry x="260" y="50.29" width="126" height="51.29" as="geometry" />
        </mxCell>
        <mxCell id="UgetWQdBQ61tTUJuFl-F-59" value="" style="edgeStyle=none;curved=1;rounded=0;orthogonalLoop=1;jettySize=auto;html=1;fontSize=13;startSize=8;endSize=8;fontFamily=Times New Roman;" edge="1" parent="UgetWQdBQ61tTUJuFl-F-46" source="UgetWQdBQ61tTUJuFl-F-56" target="UgetWQdBQ61tTUJuFl-F-58">
          <mxGeometry relative="1" as="geometry" />
        </mxCell>
        <mxCell id="UgetWQdBQ61tTUJuFl-F-56" value="&lt;b&gt;&lt;font&gt;Dropout(0.6)&lt;/font&gt;&lt;/b&gt;" style="rounded=0;whiteSpace=wrap;html=1;fontSize=13;fontFamily=Times New Roman;" vertex="1" parent="UgetWQdBQ61tTUJuFl-F-46">
          <mxGeometry x="262" y="137" width="124" height="53" as="geometry" />
        </mxCell>
        <mxCell id="UgetWQdBQ61tTUJuFl-F-58" value="&lt;font&gt;&lt;b&gt;Dense(Classes, Softmax)&lt;/b&gt;&lt;/font&gt;" style="rounded=0;whiteSpace=wrap;html=1;fontSize=13;fontFamily=Times New Roman;" vertex="1" parent="UgetWQdBQ61tTUJuFl-F-46">
          <mxGeometry x="28" y="137" width="148" height="56" as="geometry" />
        </mxCell>
        <mxCell id="SKN2a39AQVfb43uYnimI-6" value="" style="edgeStyle=segmentEdgeStyle;endArrow=classic;html=1;curved=0;rounded=0;endSize=8;startSize=8;fontSize=13;entryX=0.5;entryY=0;entryDx=0;entryDy=0;exitX=0;exitY=0.5;exitDx=0;exitDy=0;fontFamily=Times New Roman;" edge="1" parent="UgetWQdBQ61tTUJuFl-F-31" source="UgetWQdBQ61tTUJuFl-F-42" target="UgetWQdBQ61tTUJuFl-F-50">
          <mxGeometry width="50" height="50" relative="1" as="geometry">
            <mxPoint x="-96" y="268" as="sourcePoint" />
            <mxPoint x="11" y="132" as="targetPoint" />
          </mxGeometry>
        </mxCell>
        <mxCell id="Gp7EwBauJDhTumDtpzu_-6" style="edgeStyle=orthogonalEdgeStyle;rounded=0;orthogonalLoop=1;jettySize=auto;html=1;entryX=0.5;entryY=0;entryDx=0;entryDy=0;fontSize=13;fontFamily=Times New Roman;" edge="1" parent="1" target="UgetWQdBQ61tTUJuFl-F-68">
          <mxGeometry relative="1" as="geometry">
            <Array as="points">
              <mxPoint x="199" y="593" />
              <mxPoint x="119" y="593" />
            </Array>
            <mxPoint x="199" y="560" as="sourcePoint" />
          </mxGeometry>
        </mxCell>
        <mxCell id="UgetWQdBQ61tTUJuFl-F-60" value="&lt;font&gt;Training Setup&lt;/font&gt;" style="swimlane;whiteSpace=wrap;html=1;fontSize=13;startSize=23;fontFamily=Times New Roman;" vertex="1" parent="1">
          <mxGeometry x="16" y="332" width="365" height="243" as="geometry" />
        </mxCell>
        <mxCell id="UgetWQdBQ61tTUJuFl-F-64" value="" style="edgeStyle=none;curved=1;rounded=0;orthogonalLoop=1;jettySize=auto;html=1;fontSize=13;startSize=8;endSize=8;fontFamily=Times New Roman;" edge="1" parent="UgetWQdBQ61tTUJuFl-F-60" source="UgetWQdBQ61tTUJuFl-F-62" target="UgetWQdBQ61tTUJuFl-F-63">
          <mxGeometry relative="1" as="geometry" />
        </mxCell>
        <mxCell id="UgetWQdBQ61tTUJuFl-F-62" value="&lt;b&gt;&lt;font&gt;compile&lt;/font&gt;&lt;/b&gt;&lt;div&gt;&lt;b&gt;&lt;font&gt;&lt;font&gt;&amp;nbsp;&lt;/font&gt;&lt;font&gt;Optimizer: Adam lr=1e-4&lt;/font&gt;&lt;/font&gt;&lt;/b&gt;&lt;/div&gt;&lt;div&gt;&lt;b&gt;&lt;font&gt;&lt;font&gt;&amp;nbsp;&lt;/font&gt;&lt;font&gt;Loss: categorical_crossentropy&amp;nbsp;&lt;/font&gt;&lt;/font&gt;&lt;/b&gt;&lt;/div&gt;&lt;div&gt;&lt;b&gt;&lt;font&gt;Metrics: accuracy&lt;/font&gt;&lt;/b&gt;&lt;/div&gt;" style="rounded=0;whiteSpace=wrap;html=1;fontSize=13;fontFamily=Times New Roman;" vertex="1" parent="UgetWQdBQ61tTUJuFl-F-60">
          <mxGeometry x="63.5" y="39" width="261" height="73" as="geometry" />
        </mxCell>
        <mxCell id="UgetWQdBQ61tTUJuFl-F-63" value="&lt;b&gt;&lt;font&gt;Callbacks&amp;nbsp;&lt;/font&gt;&lt;/b&gt;&lt;div&gt;&lt;b&gt;&lt;font&gt;ModelCheckpoint (val_acc)&lt;/font&gt;&lt;/b&gt;&lt;/div&gt;&lt;div&gt;&lt;b&gt;&lt;font&gt;&amp;nbsp;EarlyStopping (patience=12)&amp;nbsp;&lt;/font&gt;&lt;/b&gt;&lt;/div&gt;&lt;div&gt;&lt;b&gt;&lt;font&gt;ReduceLROnPlateau (factor=0.3, patience=5)&lt;/font&gt;&lt;/b&gt;&lt;/div&gt;" style="whiteSpace=wrap;html=1;rounded=0;fontSize=13;fontFamily=Times New Roman;" vertex="1" parent="UgetWQdBQ61tTUJuFl-F-60">
          <mxGeometry x="59.25" y="137" width="267.5" height="99" as="geometry" />
        </mxCell>
        <mxCell id="UgetWQdBQ61tTUJuFl-F-67" value="&lt;font&gt;Training Pipeline&lt;/font&gt;" style="swimlane;whiteSpace=wrap;html=1;fontSize=13;startSize=23;fontFamily=Times New Roman;" vertex="1" parent="1">
          <mxGeometry x="14" y="605" width="377" height="309" as="geometry" />
        </mxCell>
        <mxCell id="UgetWQdBQ61tTUJuFl-F-72" value="" style="edgeStyle=none;curved=1;rounded=0;orthogonalLoop=1;jettySize=auto;html=1;fontSize=13;startSize=8;endSize=8;fontFamily=Times New Roman;" edge="1" parent="UgetWQdBQ61tTUJuFl-F-67" source="UgetWQdBQ61tTUJuFl-F-68" target="UgetWQdBQ61tTUJuFl-F-71">
          <mxGeometry relative="1" as="geometry" />
        </mxCell>
        <mxCell id="UgetWQdBQ61tTUJuFl-F-68" value="&lt;font&gt;&lt;b&gt;Initial Training&lt;/b&gt;&lt;/font&gt;&lt;div&gt;&lt;font&gt;&lt;b&gt;Epochs=100&lt;/b&gt;&lt;/font&gt;&lt;/div&gt;" style="rounded=0;whiteSpace=wrap;html=1;fontSize=13;fontFamily=Times New Roman;" vertex="1" parent="UgetWQdBQ61tTUJuFl-F-67">
          <mxGeometry x="46.5" y="47" width="117" height="51" as="geometry" />
        </mxCell>
        <mxCell id="UgetWQdBQ61tTUJuFl-F-74" value="" style="edgeStyle=none;curved=1;rounded=0;orthogonalLoop=1;jettySize=auto;html=1;fontSize=13;startSize=8;endSize=8;exitX=0.414;exitY=0.98;exitDx=0;exitDy=0;exitPerimeter=0;fontFamily=Times New Roman;" edge="1" parent="UgetWQdBQ61tTUJuFl-F-67" source="UgetWQdBQ61tTUJuFl-F-71">
          <mxGeometry relative="1" as="geometry">
            <mxPoint x="291.7955665024633" y="97" as="sourcePoint" />
            <mxPoint x="285.9704433497541" y="140" as="targetPoint" />
          </mxGeometry>
        </mxCell>
        <mxCell id="UgetWQdBQ61tTUJuFl-F-71" value="&lt;font&gt;&lt;b&gt;Evaluate&lt;/b&gt;&lt;/font&gt;&lt;div&gt;&lt;font&gt;&lt;b&gt;(val_generator)&lt;/b&gt;&lt;/font&gt;&lt;/div&gt;" style="rounded=0;whiteSpace=wrap;html=1;fontSize=13;fontFamily=Times New Roman;" vertex="1" parent="UgetWQdBQ61tTUJuFl-F-67">
          <mxGeometry x="231.5" y="47" width="131.5" height="51" as="geometry" />
        </mxCell>
        <mxCell id="UgetWQdBQ61tTUJuFl-F-76" value="" style="edgeStyle=none;curved=1;rounded=0;orthogonalLoop=1;jettySize=auto;html=1;fontSize=13;startSize=8;endSize=8;exitX=0.023;exitY=0.373;exitDx=0;exitDy=0;exitPerimeter=0;fontFamily=Times New Roman;" edge="1" parent="UgetWQdBQ61tTUJuFl-F-67" source="UgetWQdBQ61tTUJuFl-F-73" target="UgetWQdBQ61tTUJuFl-F-75">
          <mxGeometry relative="1" as="geometry">
            <mxPoint x="199" y="181" as="sourcePoint" />
          </mxGeometry>
        </mxCell>
        <mxCell id="UgetWQdBQ61tTUJuFl-F-73" value="&lt;b&gt;&lt;font&gt;Fine-tuning&amp;nbsp;&lt;/font&gt;&lt;/b&gt;&lt;div&gt;&lt;b&gt;&lt;font&gt;unfreeze the last 5 layers&amp;nbsp;&lt;/font&gt;&lt;/b&gt;&lt;/div&gt;&lt;div&gt;&lt;b&gt;&lt;font&gt;Adam lr=1e-5&amp;nbsp;&lt;/font&gt;&lt;/b&gt;&lt;/div&gt;&lt;div&gt;&lt;b&gt;&lt;font&gt;Epochs=30&lt;/font&gt;&lt;/b&gt;&lt;/div&gt;" style="rounded=0;whiteSpace=wrap;html=1;fontSize=13;fontFamily=Times New Roman;" vertex="1" parent="UgetWQdBQ61tTUJuFl-F-67">
          <mxGeometry x="206.5" y="141" width="154" height="106" as="geometry" />
        </mxCell>
        <mxCell id="UgetWQdBQ61tTUJuFl-F-78" value="" style="edgeStyle=none;curved=1;rounded=0;orthogonalLoop=1;jettySize=auto;html=1;fontSize=13;startSize=8;endSize=8;fontFamily=Times New Roman;" edge="1" parent="UgetWQdBQ61tTUJuFl-F-67" source="UgetWQdBQ61tTUJuFl-F-75" target="UgetWQdBQ61tTUJuFl-F-77">
          <mxGeometry relative="1" as="geometry" />
        </mxCell>
        <mxCell id="UgetWQdBQ61tTUJuFl-F-75" value="&lt;b&gt;&lt;font&gt;Final Evaluation (test_generator)&lt;/font&gt;&lt;/b&gt;" style="rounded=0;whiteSpace=wrap;html=1;fontSize=13;fontFamily=Times New Roman;" vertex="1" parent="UgetWQdBQ61tTUJuFl-F-67">
          <mxGeometry x="23" y="141" width="145" height="73" as="geometry" />
        </mxCell>
        <mxCell id="UgetWQdBQ61tTUJuFl-F-77" value="&lt;font&gt;&lt;b&gt;Plot History&amp;nbsp;&lt;/b&gt;&lt;/font&gt;&lt;div&gt;&lt;font&gt;&lt;b&gt;(accuracy &amp;amp; loss)&lt;/b&gt;&lt;/font&gt;&lt;/div&gt;" style="rounded=0;whiteSpace=wrap;html=1;fontSize=13;fontFamily=Times New Roman;" vertex="1" parent="UgetWQdBQ61tTUJuFl-F-67">
          <mxGeometry x="33" y="242" width="120" height="60" as="geometry" />
        </mxCell>
        <mxCell id="Gp7EwBauJDhTumDtpzu_-2" style="edgeStyle=orthogonalEdgeStyle;rounded=0;orthogonalLoop=1;jettySize=auto;html=1;fontSize=13;fontFamily=Times New Roman;" edge="1" parent="1" source="vSoDrz0I1BnKg42pzAeo-3">
          <mxGeometry relative="1" as="geometry">
            <mxPoint x="577" y="28.75" as="targetPoint" />
          </mxGeometry>
        </mxCell>
        <mxCell id="vSoDrz0I1BnKg42pzAeo-3" value="" style="shape=line;html=1;strokeWidth=6;strokeColor=#000000;fontSize=13;fontFamily=Times New Roman;" vertex="1" parent="1">
          <mxGeometry x="680.5" y="-78" width="39" height="10" as="geometry" />
        </mxCell>
        <mxCell id="SKN2a39AQVfb43uYnimI-3" value="" style="edgeStyle=elbowEdgeStyle;elbow=vertical;endArrow=classic;html=1;curved=0;rounded=0;endSize=8;startSize=8;fontSize=13;exitX=0.5;exitY=1;exitDx=0;exitDy=0;entryX=0.5;entryY=0;entryDx=0;entryDy=0;fontFamily=Times New Roman;" edge="1" parent="1" source="UgetWQdBQ61tTUJuFl-F-23" target="UgetWQdBQ61tTUJuFl-F-33">
          <mxGeometry width="50" height="50" relative="1" as="geometry">
            <mxPoint x="680.5" y="231" as="sourcePoint" />
            <mxPoint x="523" y="518" as="targetPoint" />
          </mxGeometry>
        </mxCell>
        <mxCell id="Gp7EwBauJDhTumDtpzu_-1" style="edgeStyle=orthogonalEdgeStyle;rounded=0;orthogonalLoop=1;jettySize=auto;html=1;exitX=0.5;exitY=1;exitDx=0;exitDy=0;entryX=0.487;entryY=0.05;entryDx=0;entryDy=0;entryPerimeter=0;fontSize=13;fontFamily=Times New Roman;" edge="1" parent="1" source="UgetWQdBQ61tTUJuFl-F-13" target="vSoDrz0I1BnKg42pzAeo-3">
          <mxGeometry relative="1" as="geometry">
            <Array as="points">
              <mxPoint x="215" y="254" />
              <mxPoint x="215" y="295" />
              <mxPoint x="438" y="295" />
              <mxPoint x="438" y="-98" />
              <mxPoint x="700" y="-98" />
            </Array>
          </mxGeometry>
        </mxCell>
        <mxCell id="Gp7EwBauJDhTumDtpzu_-3" style="edgeStyle=orthogonalEdgeStyle;rounded=0;orthogonalLoop=1;jettySize=auto;html=1;entryX=0.587;entryY=-0.006;entryDx=0;entryDy=0;entryPerimeter=0;fontSize=13;fontFamily=Times New Roman;" edge="1" parent="1" source="vSoDrz0I1BnKg42pzAeo-3" target="UgetWQdBQ61tTUJuFl-F-18">
          <mxGeometry relative="1" as="geometry" />
        </mxCell>
        <mxCell id="Gp7EwBauJDhTumDtpzu_-7" style="edgeStyle=orthogonalEdgeStyle;rounded=0;orthogonalLoop=1;jettySize=auto;html=1;entryX=1;entryY=0.5;entryDx=0;entryDy=0;fontSize=13;fontFamily=Times New Roman;" edge="1" parent="1" source="UgetWQdBQ61tTUJuFl-F-58" target="UgetWQdBQ61tTUJuFl-F-62">
          <mxGeometry relative="1" as="geometry">
            <Array as="points">
              <mxPoint x="417" y="788" />
              <mxPoint x="417" y="408" />
            </Array>
          </mxGeometry>
        </mxCell>
      </root>
    </mxGraphModel>
  </diagram>
  <diagram name="Densenet_arc" id="HhCDC49FUd9WJ0e7nB4G">
    <mxGraphModel grid="0" page="0" gridSize="10" guides="1" tooltips="1" connect="1" arrows="1" fold="1" pageScale="1" pageWidth="850" pageHeight="1100" math="0" shadow="0">
      <root>
        <mxCell id="HTGeW_lwYZZ56LnzZt12-0" />
        <mxCell id="HTGeW_lwYZZ56LnzZt12-1" parent="HTGeW_lwYZZ56LnzZt12-0" />
        <mxCell id="HTGeW_lwYZZ56LnzZt12-2" value="&lt;font style=&quot;color: rgb(0, 102, 51);&quot;&gt;Dataset Preparation&lt;/font&gt;" style="swimlane;whiteSpace=wrap;html=1;fontSize=13;fontFamily=Times New Roman;" vertex="1" parent="HTGeW_lwYZZ56LnzZt12-1">
          <mxGeometry x="-28" y="7" width="425" height="474" as="geometry">
            <mxRectangle x="-47" y="-61" width="142" height="26" as="alternateBounds" />
          </mxGeometry>
        </mxCell>
        <mxCell id="HTGeW_lwYZZ56LnzZt12-3" value="" style="edgeStyle=none;curved=1;rounded=0;orthogonalLoop=1;jettySize=auto;html=1;fontSize=13;startSize=8;endSize=8;fontFamily=Times New Roman;" edge="1" parent="HTGeW_lwYZZ56LnzZt12-2" source="HTGeW_lwYZZ56LnzZt12-4" target="HTGeW_lwYZZ56LnzZt12-6">
          <mxGeometry relative="1" as="geometry" />
        </mxCell>
        <mxCell id="HTGeW_lwYZZ56LnzZt12-4" value="&lt;div style=&quot;line-height: 100%;&quot;&gt;&lt;p&gt;&lt;font style=&quot;line-height: 100%;&quot;&gt;&lt;b&gt;Original Dataset&amp;nbsp;&lt;/b&gt;&lt;/font&gt;&lt;/p&gt;&lt;p&gt;&lt;font style=&quot;line-height: 100%;&quot;&gt;&lt;b&gt;(/kaggle/input/incineration-ds1/Incineration_DS)&lt;/b&gt;&lt;/font&gt;&lt;/p&gt;&lt;/div&gt;" style="rounded=0;whiteSpace=wrap;html=1;fontSize=13;fontFamily=Times New Roman;" vertex="1" parent="HTGeW_lwYZZ56LnzZt12-2">
          <mxGeometry x="23" y="48" width="381" height="67" as="geometry" />
        </mxCell>
        <mxCell id="HTGeW_lwYZZ56LnzZt12-5" value="" style="edgeStyle=none;curved=1;rounded=0;orthogonalLoop=1;jettySize=auto;html=1;fontSize=13;startSize=8;endSize=8;fontFamily=Times New Roman;" edge="1" parent="HTGeW_lwYZZ56LnzZt12-2" source="HTGeW_lwYZZ56LnzZt12-6" target="HTGeW_lwYZZ56LnzZt12-9">
          <mxGeometry relative="1" as="geometry" />
        </mxCell>
        <mxCell id="HTGeW_lwYZZ56LnzZt12-6" value="&lt;font&gt;&lt;b&gt;Copy to Writable Dir&amp;nbsp;&lt;/b&gt;&lt;/font&gt;&lt;div&gt;&lt;font&gt;&lt;b&gt;(/kaggle/working/cleaned_dataset)&lt;/b&gt;&lt;/font&gt;&lt;/div&gt;" style="whiteSpace=wrap;html=1;rounded=0;fontSize=13;fontFamily=Times New Roman;" vertex="1" parent="HTGeW_lwYZZ56LnzZt12-2">
          <mxGeometry x="23" y="156" width="379" height="55" as="geometry" />
        </mxCell>
        <mxCell id="HTGeW_lwYZZ56LnzZt12-7" value="&lt;b&gt;&lt;font&gt;shutil.copytree()&lt;/font&gt;&lt;/b&gt;" style="text;html=1;align=center;verticalAlign=middle;whiteSpace=wrap;rounded=0;fontSize=13;fontFamily=Times New Roman;" vertex="1" parent="HTGeW_lwYZZ56LnzZt12-2">
          <mxGeometry x="234" y="120" width="100" height="30" as="geometry" />
        </mxCell>
        <mxCell id="HTGeW_lwYZZ56LnzZt12-8" value="" style="edgeStyle=none;curved=1;rounded=0;orthogonalLoop=1;jettySize=auto;html=1;fontSize=13;startSize=8;endSize=8;fontFamily=Times New Roman;" edge="1" parent="HTGeW_lwYZZ56LnzZt12-2" source="HTGeW_lwYZZ56LnzZt12-9" target="HTGeW_lwYZZ56LnzZt12-11">
          <mxGeometry relative="1" as="geometry" />
        </mxCell>
        <mxCell id="HTGeW_lwYZZ56LnzZt12-9" value="&lt;font&gt;&lt;b&gt;Remove Corrupted Images&amp;nbsp;&lt;/b&gt;&lt;/font&gt;&lt;div&gt;&lt;font&gt;&lt;b&gt;(Pillow Image.verify)&lt;/b&gt;&lt;/font&gt;&lt;/div&gt;" style="rounded=0;whiteSpace=wrap;html=1;fontSize=13;fontFamily=Times New Roman;" vertex="1" parent="HTGeW_lwYZZ56LnzZt12-2">
          <mxGeometry x="102.75" y="246" width="219.5" height="52" as="geometry" />
        </mxCell>
        <mxCell id="HTGeW_lwYZZ56LnzZt12-10" value="&lt;font&gt;&lt;b&gt;os.walk() + Image.verify()&lt;/b&gt;&lt;/font&gt;" style="text;html=1;align=center;verticalAlign=middle;whiteSpace=wrap;rounded=0;fontSize=13;fontFamily=Times New Roman;" vertex="1" parent="HTGeW_lwYZZ56LnzZt12-2">
          <mxGeometry x="213.5" y="211" width="200" height="30" as="geometry" />
        </mxCell>
        <mxCell id="cFtt70LrrspZHdgDJP7t-3" style="edgeStyle=none;curved=1;rounded=0;orthogonalLoop=1;jettySize=auto;html=1;entryX=0.25;entryY=0;entryDx=0;entryDy=0;fontSize=13;startSize=8;endSize=8;fontFamily=Times New Roman;" edge="1" parent="HTGeW_lwYZZ56LnzZt12-2" source="HTGeW_lwYZZ56LnzZt12-11" target="cFtt70LrrspZHdgDJP7t-1">
          <mxGeometry relative="1" as="geometry" />
        </mxCell>
        <mxCell id="HTGeW_lwYZZ56LnzZt12-11" value="&lt;font&gt;&lt;b&gt;Cleaned Dataset (Ready for training)&lt;/b&gt;&lt;/font&gt;" style="rounded=0;whiteSpace=wrap;html=1;fontSize=13;fontFamily=Times New Roman;" vertex="1" parent="HTGeW_lwYZZ56LnzZt12-2">
          <mxGeometry x="127.38" y="328" width="170.25" height="48" as="geometry" />
        </mxCell>
        <mxCell id="HTGeW_lwYZZ56LnzZt12-12" value="&lt;font&gt;&lt;b&gt;&lt;font&gt;output&lt;/font&gt;&lt;br&gt;&lt;/b&gt;&lt;/font&gt;" style="text;html=1;align=center;verticalAlign=middle;whiteSpace=wrap;rounded=0;fontSize=13;fontFamily=Times New Roman;" vertex="1" parent="HTGeW_lwYZZ56LnzZt12-2">
          <mxGeometry x="221" y="298" width="60" height="30" as="geometry" />
        </mxCell>
        <mxCell id="cFtt70LrrspZHdgDJP7t-0" value="&lt;font&gt;&lt;b&gt;ImageDataGenerator&lt;/b&gt;&lt;/font&gt;&lt;div&gt;&lt;font&gt;&lt;b&gt;(train)&lt;/b&gt;&lt;/font&gt;&lt;/div&gt;" style="rounded=0;whiteSpace=wrap;html=1;fontSize=13;fontFamily=Times New Roman;" vertex="1" parent="HTGeW_lwYZZ56LnzZt12-2">
          <mxGeometry x="11.5" y="407" width="197" height="47.5" as="geometry" />
        </mxCell>
        <mxCell id="cFtt70LrrspZHdgDJP7t-1" value="&lt;font&gt;&lt;b&gt;ImageDataGenerator&lt;/b&gt;&lt;/font&gt;&lt;div&gt;&lt;font&gt;&lt;b&gt;(validation)&lt;/b&gt;&lt;/font&gt;&lt;/div&gt;" style="rounded=0;whiteSpace=wrap;html=1;fontSize=13;fontFamily=Times New Roman;" vertex="1" parent="HTGeW_lwYZZ56LnzZt12-2">
          <mxGeometry x="226.5" y="407.75" width="187" height="45.75" as="geometry" />
        </mxCell>
        <mxCell id="cFtt70LrrspZHdgDJP7t-2" style="edgeStyle=none;curved=1;rounded=0;orthogonalLoop=1;jettySize=auto;html=1;entryX=0.689;entryY=0.025;entryDx=0;entryDy=0;entryPerimeter=0;fontSize=13;startSize=8;endSize=8;fontFamily=Times New Roman;" edge="1" parent="HTGeW_lwYZZ56LnzZt12-2" source="HTGeW_lwYZZ56LnzZt12-11" target="cFtt70LrrspZHdgDJP7t-0">
          <mxGeometry relative="1" as="geometry" />
        </mxCell>
        <mxCell id="HTGeW_lwYZZ56LnzZt12-40" value="&lt;font style=&quot;color: rgb(0, 102, 0);&quot;&gt;Training&amp;nbsp;&lt;/font&gt;" style="swimlane;whiteSpace=wrap;html=1;fontSize=13;startSize=23;fontFamily=Times New Roman;" vertex="1" parent="HTGeW_lwYZZ56LnzZt12-1">
          <mxGeometry x="-21" y="529" width="418" height="403" as="geometry" />
        </mxCell>
        <mxCell id="HTGeW_lwYZZ56LnzZt12-41" value="" style="edgeStyle=none;curved=1;rounded=0;orthogonalLoop=1;jettySize=auto;html=1;fontSize=13;startSize=8;endSize=8;fontFamily=Times New Roman;" edge="1" parent="HTGeW_lwYZZ56LnzZt12-40" source="HTGeW_lwYZZ56LnzZt12-42" target="HTGeW_lwYZZ56LnzZt12-43">
          <mxGeometry relative="1" as="geometry" />
        </mxCell>
        <mxCell id="HTGeW_lwYZZ56LnzZt12-42" value="&lt;font&gt;&lt;b&gt;Compile Model&lt;/b&gt;&lt;/font&gt;&lt;div&gt;&lt;font&gt;&lt;b&gt;&amp;nbsp;Adam LR=1e-4&amp;nbsp;&lt;/b&gt;&lt;/font&gt;&lt;/div&gt;&lt;div&gt;&lt;font&gt;&lt;b&gt;Loss=Categorical Crossentropy&amp;nbsp;&lt;/b&gt;&lt;/font&gt;&lt;/div&gt;&lt;div&gt;&lt;font&gt;&lt;b&gt;Label Smoothing=0.1&lt;/b&gt;&lt;/font&gt;&lt;/div&gt;" style="rounded=0;whiteSpace=wrap;html=1;fontSize=13;fontFamily=Times New Roman;" vertex="1" parent="HTGeW_lwYZZ56LnzZt12-40">
          <mxGeometry x="61.769999999999996" y="47" width="319.75" height="84" as="geometry" />
        </mxCell>
        <mxCell id="cFtt70LrrspZHdgDJP7t-32" value="" style="edgeStyle=none;curved=1;rounded=0;orthogonalLoop=1;jettySize=auto;html=1;fontSize=13;startSize=8;endSize=8;fontFamily=Times New Roman;" edge="1" parent="HTGeW_lwYZZ56LnzZt12-40" source="HTGeW_lwYZZ56LnzZt12-43" target="cFtt70LrrspZHdgDJP7t-31">
          <mxGeometry relative="1" as="geometry" />
        </mxCell>
        <mxCell id="HTGeW_lwYZZ56LnzZt12-43" value="&lt;font&gt;&lt;b&gt;Callbacks&lt;/b&gt;&lt;/font&gt;&lt;div&gt;&lt;font&gt;&lt;b&gt;(ModelCheckpoint,&amp;nbsp;&lt;span style=&quot;background-color: transparent; color: light-dark(rgb(0, 0, 0), rgb(255, 255, 255));&quot;&gt;EarlyStopping,&lt;/span&gt;&lt;/b&gt;&lt;/font&gt;&lt;/div&gt;&lt;div&gt;&lt;span style=&quot;background-color: transparent; color: light-dark(rgb(0, 0, 0), rgb(255, 255, 255));&quot;&gt;&lt;font&gt;&lt;b&gt;ReduceLROnPlateau)&lt;/b&gt;&lt;/font&gt;&lt;/span&gt;&lt;/div&gt;" style="whiteSpace=wrap;html=1;rounded=0;fontSize=13;fontFamily=Times New Roman;" vertex="1" parent="HTGeW_lwYZZ56LnzZt12-40">
          <mxGeometry x="75.14" y="162" width="293" height="61" as="geometry" />
        </mxCell>
        <mxCell id="CDPosyiAP7AXzDqM-b-s-2" style="edgeStyle=orthogonalEdgeStyle;rounded=0;orthogonalLoop=1;jettySize=auto;html=1;exitX=0.5;exitY=1;exitDx=0;exitDy=0;entryX=0.511;entryY=0.062;entryDx=0;entryDy=0;entryPerimeter=0;fontFamily=Times New Roman;fontSize=13;" edge="1" parent="HTGeW_lwYZZ56LnzZt12-40" source="cFtt70LrrspZHdgDJP7t-31" target="cFtt70LrrspZHdgDJP7t-35">
          <mxGeometry relative="1" as="geometry">
            <Array as="points">
              <mxPoint x="225" y="263" />
              <mxPoint x="225" y="286" />
            </Array>
          </mxGeometry>
        </mxCell>
        <mxCell id="cFtt70LrrspZHdgDJP7t-31" value="&lt;font&gt;&lt;b&gt;Train ( Base)&lt;/b&gt;&lt;/font&gt;" style="rounded=1;whiteSpace=wrap;html=1;fontSize=13;fontFamily=Times New Roman;" vertex="1" parent="HTGeW_lwYZZ56LnzZt12-40">
          <mxGeometry x="124.39" y="254" width="194.5" height="45" as="geometry" />
        </mxCell>
        <mxCell id="cFtt70LrrspZHdgDJP7t-35" value="&lt;font&gt;&lt;b&gt;Fine-Tune (Unfreeze Base, LR=1e-5)&lt;/b&gt;&lt;/font&gt;" style="rounded=1;whiteSpace=wrap;html=1;fontSize=13;fontFamily=Times New Roman;" vertex="1" parent="HTGeW_lwYZZ56LnzZt12-40">
          <mxGeometry x="82.14" y="335" width="279" height="47" as="geometry" />
        </mxCell>
        <mxCell id="cFtt70LrrspZHdgDJP7t-37" value="&lt;font&gt;&lt;b&gt;&lt;font&gt;if Val_Acc &amp;lt; 95%&lt;/font&gt;&lt;br&gt;&lt;/b&gt;&lt;/font&gt;" style="text;html=1;align=center;verticalAlign=middle;whiteSpace=wrap;rounded=0;fontSize=13;fontFamily=Times New Roman;" vertex="1" parent="HTGeW_lwYZZ56LnzZt12-40">
          <mxGeometry x="91" y="301" width="131" height="31" as="geometry" />
        </mxCell>
        <mxCell id="HTGeW_lwYZZ56LnzZt12-44" value="&lt;font style=&quot;color: rgb(0, 102, 0);&quot;&gt;Evaluation&lt;/font&gt;" style="swimlane;whiteSpace=wrap;html=1;startSize=23;fontSize=13;fontFamily=Times New Roman;" vertex="1" parent="HTGeW_lwYZZ56LnzZt12-1">
          <mxGeometry x="486" y="602" width="323" height="230" as="geometry" />
        </mxCell>
        <mxCell id="cFtt70LrrspZHdgDJP7t-45" value="" style="edgeStyle=none;curved=1;rounded=0;orthogonalLoop=1;jettySize=auto;html=1;fontSize=13;startSize=8;endSize=8;fontFamily=Times New Roman;" edge="1" parent="HTGeW_lwYZZ56LnzZt12-44" source="HTGeW_lwYZZ56LnzZt12-46" target="HTGeW_lwYZZ56LnzZt12-53">
          <mxGeometry relative="1" as="geometry" />
        </mxCell>
        <mxCell id="HTGeW_lwYZZ56LnzZt12-46" value="&lt;div&gt;&lt;b style=&quot;background-color: transparent; color: light-dark(rgb(0, 0, 0), rgb(255, 255, 255));&quot;&gt;&lt;font&gt;Evaluate Validation Set&lt;/font&gt;&lt;/b&gt;&lt;/div&gt;" style="rounded=0;whiteSpace=wrap;html=1;fontSize=13;fontFamily=Times New Roman;" vertex="1" parent="HTGeW_lwYZZ56LnzZt12-44">
          <mxGeometry x="56" y="47" width="211.5" height="52" as="geometry" />
        </mxCell>
        <mxCell id="HTGeW_lwYZZ56LnzZt12-53" value="&lt;font&gt;&lt;b&gt;Plot&amp;nbsp;&lt;span style=&quot;background-color: transparent; color: light-dark(rgb(0, 0, 0), rgb(255, 255, 255));&quot;&gt;(accuracy &amp;amp; loss)&lt;/span&gt;&lt;/b&gt;&lt;/font&gt;" style="rounded=0;whiteSpace=wrap;html=1;fontSize=13;fontFamily=Times New Roman;" vertex="1" parent="HTGeW_lwYZZ56LnzZt12-44">
          <mxGeometry x="56" y="143" width="211" height="52" as="geometry" />
        </mxCell>
        <mxCell id="cFtt70LrrspZHdgDJP7t-4" value="" style="shape=line;html=1;strokeWidth=6;strokeColor=#000000;fontSize=13;fontFamily=Times New Roman;" vertex="1" parent="HTGeW_lwYZZ56LnzZt12-1">
          <mxGeometry x="149" y="342" width="39" height="320" as="geometry" />
        </mxCell>
        <mxCell id="cFtt70LrrspZHdgDJP7t-6" value="" style="edgeStyle=segmentEdgeStyle;endArrow=classic;html=1;curved=0;rounded=0;endSize=8;startSize=8;fontSize=13;exitX=0.5;exitY=1;exitDx=0;exitDy=0;entryX=0.75;entryY=0.5;entryDx=0;entryDy=0;entryPerimeter=0;fontFamily=Times New Roman;" edge="1" parent="HTGeW_lwYZZ56LnzZt12-1" source="cFtt70LrrspZHdgDJP7t-1" target="cFtt70LrrspZHdgDJP7t-4">
          <mxGeometry width="50" height="50" relative="1" as="geometry">
            <mxPoint x="381" y="265" as="sourcePoint" />
            <mxPoint x="431" y="215" as="targetPoint" />
            <Array as="points">
              <mxPoint x="282" y="461" />
              <mxPoint x="282" y="490" />
              <mxPoint x="178" y="490" />
            </Array>
          </mxGeometry>
        </mxCell>
        <mxCell id="cFtt70LrrspZHdgDJP7t-7" value="" style="edgeStyle=segmentEdgeStyle;endArrow=classic;html=1;curved=0;rounded=0;endSize=8;startSize=8;fontSize=13;exitX=0.5;exitY=1;exitDx=0;exitDy=0;entryX=0.25;entryY=0.5;entryDx=0;entryDy=0;entryPerimeter=0;fontFamily=Times New Roman;" edge="1" parent="HTGeW_lwYZZ56LnzZt12-1" source="cFtt70LrrspZHdgDJP7t-0" target="cFtt70LrrspZHdgDJP7t-4">
          <mxGeometry width="50" height="50" relative="1" as="geometry">
            <mxPoint x="381" y="285" as="sourcePoint" />
            <mxPoint x="431" y="235" as="targetPoint" />
            <Array as="points">
              <mxPoint x="82" y="493" />
              <mxPoint x="159" y="493" />
            </Array>
          </mxGeometry>
        </mxCell>
        <mxCell id="cFtt70LrrspZHdgDJP7t-8" value="&lt;font style=&quot;color: rgb(0, 102, 51);&quot;&gt;Model&lt;/font&gt;" style="swimlane;whiteSpace=wrap;html=1;fontSize=13;startSize=23;fontFamily=Times New Roman;" vertex="1" parent="HTGeW_lwYZZ56LnzZt12-1">
          <mxGeometry x="461" y="7" width="367" height="571" as="geometry" />
        </mxCell>
        <mxCell id="cFtt70LrrspZHdgDJP7t-9" value="&lt;font&gt;&lt;b&gt;DenseNet121 Base&lt;/b&gt;&lt;/font&gt;&lt;div&gt;&lt;font&gt;&lt;b&gt;&amp;nbsp;(pretrained weights, include_top=False)&lt;/b&gt;&lt;/font&gt;&lt;/div&gt;" style="rounded=1;whiteSpace=wrap;html=1;fontSize=13;fontFamily=Times New Roman;" vertex="1" parent="cFtt70LrrspZHdgDJP7t-8">
          <mxGeometry x="18.5" y="37" width="334.5" height="53" as="geometry" />
        </mxCell>
        <mxCell id="cFtt70LrrspZHdgDJP7t-21" value="" style="edgeStyle=none;curved=1;rounded=0;orthogonalLoop=1;jettySize=auto;html=1;fontSize=13;startSize=8;endSize=8;fontFamily=Times New Roman;" edge="1" parent="cFtt70LrrspZHdgDJP7t-8" source="cFtt70LrrspZHdgDJP7t-12" target="cFtt70LrrspZHdgDJP7t-17">
          <mxGeometry relative="1" as="geometry" />
        </mxCell>
        <mxCell id="cFtt70LrrspZHdgDJP7t-12" value="&lt;font&gt;&lt;b&gt;GlobalAveragePooling2D&lt;/b&gt;&lt;/font&gt;" style="rounded=1;whiteSpace=wrap;html=1;fontSize=13;fontFamily=Times New Roman;" vertex="1" parent="cFtt70LrrspZHdgDJP7t-8">
          <mxGeometry x="17" y="120" width="337.5" height="60" as="geometry" />
        </mxCell>
        <mxCell id="ZcI7miiTmDC1TDDcOhKQ-4" value="" style="edgeStyle=orthogonalEdgeStyle;rounded=0;orthogonalLoop=1;jettySize=auto;html=1;fontFamily=Times New Roman;fontSize=13;" edge="1" parent="cFtt70LrrspZHdgDJP7t-8" source="cFtt70LrrspZHdgDJP7t-19" target="cFtt70LrrspZHdgDJP7t-16">
          <mxGeometry relative="1" as="geometry" />
        </mxCell>
        <mxCell id="cFtt70LrrspZHdgDJP7t-19" value="&lt;font&gt;&lt;b&gt;Dense(256, ReLU) + Dropout(0.4)&lt;/b&gt;&lt;/font&gt;" style="rounded=1;whiteSpace=wrap;html=1;fontSize=13;fontFamily=Times New Roman;" vertex="1" parent="cFtt70LrrspZHdgDJP7t-8">
          <mxGeometry x="18.5" y="398" width="337.5" height="60" as="geometry" />
        </mxCell>
        <mxCell id="ZcI7miiTmDC1TDDcOhKQ-3" value="" style="edgeStyle=orthogonalEdgeStyle;rounded=0;orthogonalLoop=1;jettySize=auto;html=1;entryX=0.5;entryY=0;entryDx=0;entryDy=0;fontFamily=Times New Roman;fontSize=13;" edge="1" parent="cFtt70LrrspZHdgDJP7t-8" source="cFtt70LrrspZHdgDJP7t-18" target="cFtt70LrrspZHdgDJP7t-19">
          <mxGeometry relative="1" as="geometry">
            <Array as="points">
              <mxPoint x="187" y="397" />
              <mxPoint x="187" y="397" />
            </Array>
          </mxGeometry>
        </mxCell>
        <mxCell id="cFtt70LrrspZHdgDJP7t-18" value="&lt;font&gt;&lt;b&gt;Dense(512, ReLU) + Dropout(0.5)&lt;/b&gt;&lt;/font&gt;" style="rounded=1;whiteSpace=wrap;html=1;fontSize=13;fontFamily=Times New Roman;" vertex="1" parent="cFtt70LrrspZHdgDJP7t-8">
          <mxGeometry x="14.75" y="297.5" width="337.5" height="60" as="geometry" />
        </mxCell>
        <mxCell id="cFtt70LrrspZHdgDJP7t-20" value="" style="edgeStyle=none;curved=1;rounded=0;orthogonalLoop=1;jettySize=auto;html=1;fontSize=13;startSize=8;endSize=8;fontFamily=Times New Roman;" edge="1" parent="cFtt70LrrspZHdgDJP7t-8" source="cFtt70LrrspZHdgDJP7t-17" target="cFtt70LrrspZHdgDJP7t-18">
          <mxGeometry relative="1" as="geometry" />
        </mxCell>
        <mxCell id="cFtt70LrrspZHdgDJP7t-17" value="&lt;font&gt;&lt;b&gt;BatchNormalization&lt;/b&gt;&lt;/font&gt;" style="rounded=1;whiteSpace=wrap;html=1;fontSize=13;fontFamily=Times New Roman;" vertex="1" parent="cFtt70LrrspZHdgDJP7t-8">
          <mxGeometry x="15.5" y="208" width="337.5" height="60" as="geometry" />
        </mxCell>
        <mxCell id="cFtt70LrrspZHdgDJP7t-16" value="&lt;font&gt;&lt;b&gt;Dense(NUM_CLASSES, Softmax)&lt;/b&gt;&lt;/font&gt;" style="rounded=1;whiteSpace=wrap;html=1;fontSize=13;fontFamily=Times New Roman;" vertex="1" parent="cFtt70LrrspZHdgDJP7t-8">
          <mxGeometry x="18.5" y="492" width="337.5" height="60" as="geometry" />
        </mxCell>
        <mxCell id="cFtt70LrrspZHdgDJP7t-28" value="" style="edgeStyle=none;curved=1;rounded=0;orthogonalLoop=1;jettySize=auto;html=1;fontSize=13;startSize=8;endSize=8;exitX=0.5;exitY=1;exitDx=0;exitDy=0;entryX=0.5;entryY=0;entryDx=0;entryDy=0;fontFamily=Times New Roman;" edge="1" parent="cFtt70LrrspZHdgDJP7t-8" source="cFtt70LrrspZHdgDJP7t-9" target="cFtt70LrrspZHdgDJP7t-12">
          <mxGeometry relative="1" as="geometry">
            <mxPoint x="198" y="100" as="sourcePoint" />
            <mxPoint x="198" y="151" as="targetPoint" />
          </mxGeometry>
        </mxCell>
        <mxCell id="ZcI7miiTmDC1TDDcOhKQ-9" value="" style="endArrow=classic;html=1;rounded=0;entryX=0;entryY=0.5;entryDx=0;entryDy=0;exitX=1;exitY=0.5;exitDx=0;exitDy=0;exitPerimeter=0;fontFamily=Times New Roman;fontSize=13;" edge="1" parent="HTGeW_lwYZZ56LnzZt12-1" source="cFtt70LrrspZHdgDJP7t-4" target="cFtt70LrrspZHdgDJP7t-9">
          <mxGeometry width="50" height="50" relative="1" as="geometry">
            <mxPoint x="230" y="636" as="sourcePoint" />
            <mxPoint x="431" y="70" as="targetPoint" />
            <Array as="points">
              <mxPoint x="425" y="502" />
              <mxPoint x="428" y="71" />
            </Array>
          </mxGeometry>
        </mxCell>
        <mxCell id="JwPqqsAGPN4I3QkrXCDq-5" value="" style="edgeStyle=orthogonalEdgeStyle;rounded=0;orthogonalLoop=1;jettySize=auto;html=1;exitX=0.471;exitY=0.555;exitDx=0;exitDy=0;exitPerimeter=0;entryX=1;entryY=0.5;entryDx=0;entryDy=0;fontFamily=Times New Roman;fontSize=13;" edge="1" parent="HTGeW_lwYZZ56LnzZt12-1" source="JwPqqsAGPN4I3QkrXCDq-3" target="HTGeW_lwYZZ56LnzZt12-46">
          <mxGeometry relative="1" as="geometry">
            <Array as="points">
              <mxPoint x="526" y="923" />
              <mxPoint x="819" y="923" />
              <mxPoint x="819" y="675" />
            </Array>
          </mxGeometry>
        </mxCell>
        <mxCell id="JwPqqsAGPN4I3QkrXCDq-3" value="" style="shape=line;html=1;strokeWidth=6;strokeColor=#000000;fontSize=13;direction=south;fontFamily=Times New Roman;" vertex="1" parent="HTGeW_lwYZZ56LnzZt12-1">
          <mxGeometry x="503" y="911" width="51" height="39" as="geometry" />
        </mxCell>
        <mxCell id="JwPqqsAGPN4I3QkrXCDq-7" value="" style="edgeStyle=orthogonalEdgeStyle;rounded=0;orthogonalLoop=1;jettySize=auto;html=1;entryX=0.25;entryY=0.5;entryDx=0;entryDy=0;entryPerimeter=0;fontFamily=Times New Roman;fontSize=13;" edge="1" parent="HTGeW_lwYZZ56LnzZt12-1" source="cFtt70LrrspZHdgDJP7t-31" target="JwPqqsAGPN4I3QkrXCDq-3">
          <mxGeometry relative="1" as="geometry">
            <mxPoint x="474.3900000000003" y="890.5" as="targetPoint" />
            <Array as="points">
              <mxPoint x="434" y="806" />
              <mxPoint x="434" y="915" />
              <mxPoint x="528" y="915" />
            </Array>
          </mxGeometry>
        </mxCell>
        <mxCell id="JwPqqsAGPN4I3QkrXCDq-9" value="" style="edgeStyle=orthogonalEdgeStyle;rounded=0;orthogonalLoop=1;jettySize=auto;html=1;entryX=0.75;entryY=0.5;entryDx=0;entryDy=0;entryPerimeter=0;fontFamily=Times New Roman;fontSize=13;" edge="1" parent="HTGeW_lwYZZ56LnzZt12-1" source="cFtt70LrrspZHdgDJP7t-35" target="JwPqqsAGPN4I3QkrXCDq-3">
          <mxGeometry relative="1" as="geometry">
            <mxPoint x="432.1399999999999" y="972.5" as="targetPoint" />
            <Array as="points">
              <mxPoint x="201" y="973" />
              <mxPoint x="528" y="973" />
            </Array>
          </mxGeometry>
        </mxCell>
      </root>
    </mxGraphModel>
  </diagram>
  <diagram id="tNoKlo3c-OPh7kMAvRDA" name="Flowchart: Incineration Dataset -&gt; Custom CNN">
    <mxGraphModel grid="0" page="0" gridSize="10" guides="1" tooltips="1" connect="1" arrows="1" fold="1" pageScale="1" pageWidth="850" pageHeight="1100" math="0" shadow="0">
      <root>
        <mxCell id="0" />
        <mxCell id="1" parent="0" />
        <mxCell id="c-rWy9lwXo303U8hRDKu-27" value="&lt;font&gt;Preprocessing &amp;amp; Augmentation&lt;/font&gt;" style="swimlane;whiteSpace=wrap;html=1;startSize=23;fontSize=13;fontFamily=Times New Roman;" vertex="1" parent="1">
          <mxGeometry x="580" y="91" width="320" height="506" as="geometry" />
        </mxCell>
        <mxCell id="c-rWy9lwXo303U8hRDKu-31" value="" style="edgeStyle=none;curved=1;rounded=0;orthogonalLoop=1;jettySize=auto;html=1;fontSize=13;startSize=8;endSize=8;fontFamily=Times New Roman;" edge="1" parent="c-rWy9lwXo303U8hRDKu-27" source="c-rWy9lwXo303U8hRDKu-28" target="c-rWy9lwXo303U8hRDKu-29">
          <mxGeometry relative="1" as="geometry" />
        </mxCell>
        <mxCell id="c-rWy9lwXo303U8hRDKu-28" value="&lt;b&gt;&lt;font&gt;Set IMG_SIZE, BATCH, EPOCHS, NUM_CLASSES, PATH&lt;/font&gt;&lt;/b&gt;" style="rounded=1;whiteSpace=wrap;html=1;fontSize=13;fontFamily=Times New Roman;" vertex="1" parent="c-rWy9lwXo303U8hRDKu-27">
          <mxGeometry x="60" y="59" width="217" height="59" as="geometry" />
        </mxCell>
        <mxCell id="c-rWy9lwXo303U8hRDKu-33" value="" style="edgeStyle=none;curved=1;rounded=0;orthogonalLoop=1;jettySize=auto;html=1;fontSize=13;startSize=8;endSize=8;fontFamily=Times New Roman;" edge="1" parent="c-rWy9lwXo303U8hRDKu-27" source="c-rWy9lwXo303U8hRDKu-29" target="c-rWy9lwXo303U8hRDKu-32">
          <mxGeometry relative="1" as="geometry" />
        </mxCell>
        <mxCell id="c-rWy9lwXo303U8hRDKu-29" value="&lt;font&gt;&lt;b&gt;&lt;font&gt;Train datagenerator&lt;/font&gt;&lt;/b&gt;&lt;/font&gt;&lt;div&gt;&lt;font&gt;&lt;b&gt;&lt;font&gt;(resize, augment, split)&lt;/font&gt;&lt;/b&gt;&lt;/font&gt;&lt;/div&gt;" style="rounded=1;whiteSpace=wrap;html=1;fontSize=13;fontFamily=Times New Roman;" vertex="1" parent="c-rWy9lwXo303U8hRDKu-27">
          <mxGeometry x="54.5" y="152" width="228" height="56" as="geometry" />
        </mxCell>
        <mxCell id="c-rWy9lwXo303U8hRDKu-35" value="" style="edgeStyle=none;curved=1;rounded=0;orthogonalLoop=1;jettySize=auto;html=1;fontSize=13;startSize=8;endSize=8;fontFamily=Times New Roman;" edge="1" parent="c-rWy9lwXo303U8hRDKu-27" source="c-rWy9lwXo303U8hRDKu-32" target="c-rWy9lwXo303U8hRDKu-34">
          <mxGeometry relative="1" as="geometry" />
        </mxCell>
        <mxCell id="c-rWy9lwXo303U8hRDKu-32" value="&lt;b&gt;&lt;font&gt;Validation datagenerator&lt;/font&gt;&lt;/b&gt;&lt;div&gt;&lt;b&gt;&lt;font&gt;(resize, split)&lt;/font&gt;&lt;/b&gt;&lt;/div&gt;" style="rounded=1;whiteSpace=wrap;html=1;fontSize=13;fontFamily=Times New Roman;" vertex="1" parent="c-rWy9lwXo303U8hRDKu-27">
          <mxGeometry x="54.5" y="242" width="228" height="59" as="geometry" />
        </mxCell>
        <mxCell id="c-rWy9lwXo303U8hRDKu-37" value="" style="edgeStyle=none;curved=1;rounded=0;orthogonalLoop=1;jettySize=auto;html=1;fontSize=13;startSize=8;endSize=8;fontFamily=Times New Roman;" edge="1" parent="c-rWy9lwXo303U8hRDKu-27" source="c-rWy9lwXo303U8hRDKu-34" target="c-rWy9lwXo303U8hRDKu-36">
          <mxGeometry relative="1" as="geometry" />
        </mxCell>
        <mxCell id="c-rWy9lwXo303U8hRDKu-34" value="&lt;font&gt;&lt;b&gt;Train generator (from directory)&lt;/b&gt;&lt;/font&gt;" style="rounded=1;whiteSpace=wrap;html=1;fontSize=13;fontFamily=Times New Roman;" vertex="1" parent="c-rWy9lwXo303U8hRDKu-27">
          <mxGeometry x="57.5" y="330" width="223" height="53" as="geometry" />
        </mxCell>
        <mxCell id="c-rWy9lwXo303U8hRDKu-36" value="&lt;font&gt;&lt;b&gt;Val generator (from directory)&lt;/b&gt;&lt;/font&gt;" style="whiteSpace=wrap;html=1;rounded=1;fontSize=13;fontFamily=Times New Roman;" vertex="1" parent="c-rWy9lwXo303U8hRDKu-27">
          <mxGeometry x="64.5" y="413" width="216" height="55" as="geometry" />
        </mxCell>
        <mxCell id="c-rWy9lwXo303U8hRDKu-38" value="&lt;font&gt;Model Definition&lt;/font&gt;" style="swimlane;whiteSpace=wrap;html=1;fontSize=13;fontFamily=Times New Roman;" vertex="1" parent="1">
          <mxGeometry x="568" y="646" width="348.75" height="315" as="geometry" />
        </mxCell>
        <mxCell id="c-rWy9lwXo303U8hRDKu-43" value="" style="edgeStyle=none;curved=1;rounded=0;orthogonalLoop=1;jettySize=auto;html=1;fontSize=13;startSize=8;endSize=8;fontFamily=Times New Roman;" edge="1" parent="c-rWy9lwXo303U8hRDKu-38" source="c-rWy9lwXo303U8hRDKu-39" target="c-rWy9lwXo303U8hRDKu-42">
          <mxGeometry relative="1" as="geometry" />
        </mxCell>
        <mxCell id="c-rWy9lwXo303U8hRDKu-39" value="&lt;font&gt;&lt;b&gt;Build base CNN&amp;nbsp;&lt;/b&gt;&lt;/font&gt;" style="rounded=1;whiteSpace=wrap;html=1;fontSize=13;fontFamily=Times New Roman;" vertex="1" parent="c-rWy9lwXo303U8hRDKu-38">
          <mxGeometry x="46.5" y="41" width="232" height="60" as="geometry" />
        </mxCell>
        <mxCell id="c-rWy9lwXo303U8hRDKu-45" value="" style="edgeStyle=none;curved=1;rounded=0;orthogonalLoop=1;jettySize=auto;html=1;fontSize=13;startSize=8;endSize=8;fontFamily=Times New Roman;" edge="1" parent="c-rWy9lwXo303U8hRDKu-38" source="c-rWy9lwXo303U8hRDKu-42" target="c-rWy9lwXo303U8hRDKu-44">
          <mxGeometry relative="1" as="geometry" />
        </mxCell>
        <mxCell id="c-rWy9lwXo303U8hRDKu-42" value="&lt;font&gt;&lt;b&gt;Add head (GAP, Dense, Dropout, Dense softmax)&lt;/b&gt;&lt;/font&gt;" style="rounded=1;whiteSpace=wrap;html=1;fontSize=13;fontFamily=Times New Roman;" vertex="1" parent="c-rWy9lwXo303U8hRDKu-38">
          <mxGeometry x="46" y="139" width="230" height="58" as="geometry" />
        </mxCell>
        <mxCell id="c-rWy9lwXo303U8hRDKu-44" value="&lt;font&gt;&lt;b&gt;model = base + head&lt;/b&gt;&lt;/font&gt;" style="rounded=1;whiteSpace=wrap;html=1;fontSize=13;fontFamily=Times New Roman;" vertex="1" parent="c-rWy9lwXo303U8hRDKu-38">
          <mxGeometry x="48" y="229" width="227" height="60" as="geometry" />
        </mxCell>
        <mxCell id="c-rWy9lwXo303U8hRDKu-46" value="&lt;font&gt;Compile &amp;amp; Callbacks&lt;/font&gt;" style="swimlane;whiteSpace=wrap;html=1;fontSize=13;fontFamily=Times New Roman;" vertex="1" parent="1">
          <mxGeometry x="1001" y="8" width="316" height="247" as="geometry" />
        </mxCell>
        <mxCell id="c-rWy9lwXo303U8hRDKu-50" value="" style="edgeStyle=none;curved=1;rounded=0;orthogonalLoop=1;jettySize=auto;html=1;fontSize=13;startSize=8;endSize=8;fontFamily=Times New Roman;" edge="1" parent="c-rWy9lwXo303U8hRDKu-46" source="c-rWy9lwXo303U8hRDKu-47" target="c-rWy9lwXo303U8hRDKu-49">
          <mxGeometry relative="1" as="geometry" />
        </mxCell>
        <mxCell id="c-rWy9lwXo303U8hRDKu-47" value="&lt;font&gt;&lt;b&gt;Compile with Adam, loss, metrics&lt;/b&gt;&lt;/font&gt;" style="rounded=1;whiteSpace=wrap;html=1;fontSize=13;fontFamily=Times New Roman;" vertex="1" parent="c-rWy9lwXo303U8hRDKu-46">
          <mxGeometry x="38" y="57" width="246" height="60" as="geometry" />
        </mxCell>
        <mxCell id="c-rWy9lwXo303U8hRDKu-49" value="&lt;b&gt;&lt;font&gt;Callbacks&lt;/font&gt;&lt;/b&gt;&lt;div&gt;&lt;b&gt;&lt;font&gt;(ModelCheckpoint, EarlyStopping, ReduceLROnPlateau)&lt;/font&gt;&lt;/b&gt;&lt;/div&gt;" style="rounded=1;whiteSpace=wrap;html=1;fontSize=13;fontFamily=Times New Roman;" vertex="1" parent="c-rWy9lwXo303U8hRDKu-46">
          <mxGeometry x="5" y="160" width="308" height="59" as="geometry" />
        </mxCell>
        <mxCell id="c-rWy9lwXo303U8hRDKu-48" value="" style="edgeStyle=elbowEdgeStyle;elbow=horizontal;endArrow=classic;html=1;curved=0;rounded=0;endSize=8;startSize=8;fontSize=13;entryX=0;entryY=0.5;entryDx=0;entryDy=0;fontFamily=Times New Roman;" edge="1" parent="1" source="c-rWy9lwXo303U8hRDKu-44" target="c-rWy9lwXo303U8hRDKu-47">
          <mxGeometry width="50" height="50" relative="1" as="geometry">
            <mxPoint x="671" y="1169" as="sourcePoint" />
            <mxPoint x="1036" y="45" as="targetPoint" />
            <Array as="points">
              <mxPoint x="942" y="619" />
            </Array>
          </mxGeometry>
        </mxCell>
        <mxCell id="c-rWy9lwXo303U8hRDKu-51" value="" style="edgeStyle=elbowEdgeStyle;elbow=horizontal;endArrow=classic;html=1;curved=0;rounded=0;endSize=8;startSize=8;fontSize=13;exitX=0;exitY=0.476;exitDx=0;exitDy=0;exitPerimeter=0;entryX=0;entryY=0.5;entryDx=0;entryDy=0;fontFamily=Times New Roman;" edge="1" parent="1" source="c-rWy9lwXo303U8hRDKu-49" target="c-rWy9lwXo303U8hRDKu-53">
          <mxGeometry width="50" height="50" relative="1" as="geometry">
            <mxPoint x="1048" y="203" as="sourcePoint" />
            <mxPoint x="1044" y="409" as="targetPoint" />
            <Array as="points">
              <mxPoint x="983" y="303" />
            </Array>
          </mxGeometry>
        </mxCell>
        <mxCell id="c-rWy9lwXo303U8hRDKu-52" value="&lt;font&gt;Training (Phase 1)&lt;/font&gt;" style="swimlane;whiteSpace=wrap;html=1;fontSize=13;fontFamily=Times New Roman;" vertex="1" parent="1">
          <mxGeometry x="1003" y="270" width="312" height="249" as="geometry" />
        </mxCell>
        <mxCell id="c-rWy9lwXo303U8hRDKu-55" value="" style="edgeStyle=none;curved=1;rounded=0;orthogonalLoop=1;jettySize=auto;html=1;fontSize=13;startSize=8;endSize=8;fontFamily=Times New Roman;" edge="1" parent="c-rWy9lwXo303U8hRDKu-52" source="c-rWy9lwXo303U8hRDKu-53" target="c-rWy9lwXo303U8hRDKu-54">
          <mxGeometry relative="1" as="geometry" />
        </mxCell>
        <mxCell id="c-rWy9lwXo303U8hRDKu-53" value="&lt;b&gt;&lt;font&gt;Freeze base model&lt;/font&gt;&lt;/b&gt;" style="rounded=1;whiteSpace=wrap;html=1;fontSize=13;fontFamily=Times New Roman;" vertex="1" parent="c-rWy9lwXo303U8hRDKu-52">
          <mxGeometry x="41" y="36" width="223" height="45" as="geometry" />
        </mxCell>
        <mxCell id="c-rWy9lwXo303U8hRDKu-57" value="" style="edgeStyle=none;curved=1;rounded=0;orthogonalLoop=1;jettySize=auto;html=1;fontSize=13;startSize=8;endSize=8;fontFamily=Times New Roman;" edge="1" parent="c-rWy9lwXo303U8hRDKu-52" source="c-rWy9lwXo303U8hRDKu-54" target="c-rWy9lwXo303U8hRDKu-56">
          <mxGeometry relative="1" as="geometry" />
        </mxCell>
        <mxCell id="c-rWy9lwXo303U8hRDKu-54" value="&lt;b&gt;&lt;font&gt;Train with train &amp;amp; val generators&lt;/font&gt;&lt;/b&gt;" style="rounded=1;whiteSpace=wrap;html=1;fontSize=13;fontFamily=Times New Roman;" vertex="1" parent="c-rWy9lwXo303U8hRDKu-52">
          <mxGeometry x="44.5" y="116" width="216" height="44" as="geometry" />
        </mxCell>
        <mxCell id="c-rWy9lwXo303U8hRDKu-56" value="&lt;b&gt;&lt;font&gt;Evaluate val acc&lt;/font&gt;&lt;/b&gt;" style="whiteSpace=wrap;html=1;rounded=1;fontSize=13;fontFamily=Times New Roman;" vertex="1" parent="c-rWy9lwXo303U8hRDKu-52">
          <mxGeometry x="46" y="192" width="213" height="39" as="geometry" />
        </mxCell>
        <mxCell id="c-rWy9lwXo303U8hRDKu-58" value="&lt;font&gt;Decision: Fine-Tune?&lt;/font&gt;" style="swimlane;whiteSpace=wrap;html=1;fontSize=13;fontFamily=Times New Roman;" vertex="1" parent="1">
          <mxGeometry x="974" y="571" width="407" height="334" as="geometry" />
        </mxCell>
        <mxCell id="c-rWy9lwXo303U8hRDKu-69" value="" style="edgeStyle=none;curved=1;rounded=0;orthogonalLoop=1;jettySize=auto;html=1;fontSize=13;startSize=8;endSize=8;fontFamily=Times New Roman;" edge="1" parent="c-rWy9lwXo303U8hRDKu-58" source="c-rWy9lwXo303U8hRDKu-60">
          <mxGeometry relative="1" as="geometry">
            <mxPoint x="212" y="88" as="targetPoint" />
          </mxGeometry>
        </mxCell>
        <mxCell id="c-rWy9lwXo303U8hRDKu-60" value="&lt;font&gt;&lt;b&gt;val_acc &amp;lt; 0.95&lt;/b&gt;&lt;/font&gt;" style="rhombus;whiteSpace=wrap;html=1;fontSize=13;fontFamily=Times New Roman;" vertex="1" parent="c-rWy9lwXo303U8hRDKu-58">
          <mxGeometry x="40.5" y="48" width="101.5" height="80" as="geometry" />
        </mxCell>
        <mxCell id="RAl_fdkwheR7L4zk8PT4-3" style="edgeStyle=orthogonalEdgeStyle;rounded=0;orthogonalLoop=1;jettySize=auto;html=1;exitX=0;exitY=0.5;exitDx=0;exitDy=0;entryX=0;entryY=0.5;entryDx=0;entryDy=0;fontSize=13;fontFamily=Times New Roman;" edge="1" parent="c-rWy9lwXo303U8hRDKu-58" source="c-rWy9lwXo303U8hRDKu-65" target="c-rWy9lwXo303U8hRDKu-81">
          <mxGeometry relative="1" as="geometry" />
        </mxCell>
        <mxCell id="c-rWy9lwXo303U8hRDKu-65" value="&lt;b&gt;&lt;font&gt;Skip fine-tuning&lt;/font&gt;&lt;/b&gt;" style="whiteSpace=wrap;html=1;fontSize=13;fontFamily=Times New Roman;" vertex="1" parent="c-rWy9lwXo303U8hRDKu-58">
          <mxGeometry x="43.25" y="159" width="98.75" height="37" as="geometry" />
        </mxCell>
        <mxCell id="c-rWy9lwXo303U8hRDKu-66" value="" style="edgeStyle=none;curved=1;rounded=0;orthogonalLoop=1;jettySize=auto;html=1;fontSize=13;startSize=8;endSize=8;fontFamily=Times New Roman;" edge="1" parent="c-rWy9lwXo303U8hRDKu-58" source="c-rWy9lwXo303U8hRDKu-60" target="c-rWy9lwXo303U8hRDKu-65">
          <mxGeometry relative="1" as="geometry" />
        </mxCell>
        <mxCell id="c-rWy9lwXo303U8hRDKu-67" value="&lt;font&gt;&lt;b&gt;no&lt;/b&gt;&lt;/font&gt;" style="text;html=1;align=center;verticalAlign=middle;whiteSpace=wrap;rounded=0;fontSize=13;fontFamily=Times New Roman;" vertex="1" parent="c-rWy9lwXo303U8hRDKu-58">
          <mxGeometry x="41" y="122" width="60" height="30" as="geometry" />
        </mxCell>
        <mxCell id="c-rWy9lwXo303U8hRDKu-70" value="&lt;font&gt;Fine-Tuning (Phase 2)&lt;/font&gt;" style="swimlane;whiteSpace=wrap;html=1;fontSize=13;fontFamily=Times New Roman;" vertex="1" parent="c-rWy9lwXo303U8hRDKu-58">
          <mxGeometry x="180" y="37" width="200" height="276" as="geometry" />
        </mxCell>
        <mxCell id="c-rWy9lwXo303U8hRDKu-73" value="" style="edgeStyle=none;curved=1;rounded=0;orthogonalLoop=1;jettySize=auto;html=1;fontSize=13;startSize=8;endSize=8;fontFamily=Times New Roman;" edge="1" parent="c-rWy9lwXo303U8hRDKu-70" source="c-rWy9lwXo303U8hRDKu-71" target="c-rWy9lwXo303U8hRDKu-72">
          <mxGeometry relative="1" as="geometry" />
        </mxCell>
        <mxCell id="c-rWy9lwXo303U8hRDKu-71" value="&lt;font&gt;&lt;b&gt;Unfreeze layers&lt;/b&gt;&lt;/font&gt;" style="rounded=1;whiteSpace=wrap;html=1;fontSize=13;fontFamily=Times New Roman;" vertex="1" parent="c-rWy9lwXo303U8hRDKu-70">
          <mxGeometry x="33" y="28" width="160" height="48" as="geometry" />
        </mxCell>
        <mxCell id="c-rWy9lwXo303U8hRDKu-72" value="&lt;b&gt;&lt;font&gt;Re-compile Adam&lt;/font&gt;&lt;/b&gt;" style="rounded=1;whiteSpace=wrap;html=1;fontSize=13;fontFamily=Times New Roman;" vertex="1" parent="c-rWy9lwXo303U8hRDKu-70">
          <mxGeometry x="32" y="95" width="162" height="45" as="geometry" />
        </mxCell>
        <mxCell id="c-rWy9lwXo303U8hRDKu-74" value="&lt;font&gt;&lt;b&gt;Train again (Phase 2)&lt;/b&gt;&lt;/font&gt;" style="rounded=1;whiteSpace=wrap;html=1;fontSize=13;fontFamily=Times New Roman;" vertex="1" parent="c-rWy9lwXo303U8hRDKu-70">
          <mxGeometry x="29" y="161" width="165" height="40" as="geometry" />
        </mxCell>
        <mxCell id="c-rWy9lwXo303U8hRDKu-76" value="" style="endArrow=classic;html=1;rounded=0;fontSize=13;startSize=8;endSize=8;curved=1;exitX=0.5;exitY=1;exitDx=0;exitDy=0;fontFamily=Times New Roman;" edge="1" parent="c-rWy9lwXo303U8hRDKu-70" source="c-rWy9lwXo303U8hRDKu-72">
          <mxGeometry width="50" height="50" relative="1" as="geometry">
            <mxPoint x="23" y="49" as="sourcePoint" />
            <mxPoint x="113" y="161" as="targetPoint" />
          </mxGeometry>
        </mxCell>
        <mxCell id="c-rWy9lwXo303U8hRDKu-78" value="&lt;font&gt;&lt;b&gt;Evaluate val acc&lt;/b&gt;&lt;/font&gt;" style="rounded=1;whiteSpace=wrap;html=1;fontSize=13;fontFamily=Times New Roman;" vertex="1" parent="c-rWy9lwXo303U8hRDKu-70">
          <mxGeometry x="26" y="224" width="168" height="33" as="geometry" />
        </mxCell>
        <mxCell id="c-rWy9lwXo303U8hRDKu-81" value="" style="rhombus;whiteSpace=wrap;html=1;fontSize=13;fontFamily=Times New Roman;" vertex="1" parent="c-rWy9lwXo303U8hRDKu-58">
          <mxGeometry x="56" y="240" width="80" height="80" as="geometry" />
        </mxCell>
        <mxCell id="c-rWy9lwXo303U8hRDKu-84" value="" style="edgeStyle=none;curved=1;rounded=0;orthogonalLoop=1;jettySize=auto;html=1;fontSize=13;startSize=8;endSize=8;fontFamily=Times New Roman;" edge="1" parent="c-rWy9lwXo303U8hRDKu-58" source="c-rWy9lwXo303U8hRDKu-78" target="c-rWy9lwXo303U8hRDKu-81">
          <mxGeometry relative="1" as="geometry" />
        </mxCell>
        <mxCell id="c-rWy9lwXo303U8hRDKu-80" value="" style="endArrow=classic;html=1;rounded=0;fontSize=13;startSize=8;endSize=8;curved=1;exitX=0.5;exitY=1;exitDx=0;exitDy=0;fontFamily=Times New Roman;" edge="1" parent="1">
          <mxGeometry width="50" height="50" relative="1" as="geometry">
            <mxPoint x="1262" y="974" as="sourcePoint" />
            <mxPoint x="1262" y="974" as="targetPoint" />
          </mxGeometry>
        </mxCell>
        <mxCell id="RAl_fdkwheR7L4zk8PT4-7" style="edgeStyle=orthogonalEdgeStyle;rounded=0;orthogonalLoop=1;jettySize=auto;html=1;exitX=0.5;exitY=1;exitDx=0;exitDy=0;entryX=0.5;entryY=0;entryDx=0;entryDy=0;fontSize=13;fontFamily=Times New Roman;" edge="1" parent="1" source="c-rWy9lwXo303U8hRDKu-89" target="c-rWy9lwXo303U8hRDKu-100">
          <mxGeometry relative="1" as="geometry" />
        </mxCell>
        <mxCell id="c-rWy9lwXo303U8hRDKu-89" value="&lt;font&gt;Reporting&lt;/font&gt;" style="swimlane;whiteSpace=wrap;html=1;fontSize=13;fontFamily=Times New Roman;" vertex="1" parent="1">
          <mxGeometry x="947.5" y="933" width="245" height="160" as="geometry" />
        </mxCell>
        <mxCell id="c-rWy9lwXo303U8hRDKu-91" value="&lt;b&gt;&lt;font&gt;Print final val acc&lt;/font&gt;&lt;/b&gt;" style="rounded=1;whiteSpace=wrap;html=1;fontSize=13;fontFamily=Times New Roman;" vertex="1" parent="c-rWy9lwXo303U8hRDKu-89">
          <mxGeometry x="39.5" y="49" width="173" height="31" as="geometry" />
        </mxCell>
        <mxCell id="c-rWy9lwXo303U8hRDKu-94" value="&lt;b&gt;&lt;font&gt;Plot history&lt;/font&gt;&lt;/b&gt;&lt;div&gt;&lt;b&gt;&lt;font&gt;(single or both phases)&lt;/font&gt;&lt;/b&gt;&lt;/div&gt;" style="rounded=1;whiteSpace=wrap;html=1;fontSize=13;fontFamily=Times New Roman;" vertex="1" parent="c-rWy9lwXo303U8hRDKu-89">
          <mxGeometry x="35.5" y="99" width="189" height="42" as="geometry" />
        </mxCell>
        <mxCell id="c-rWy9lwXo303U8hRDKu-86" value="" style="endArrow=classic;html=1;rounded=0;fontSize=13;startSize=8;endSize=8;curved=1;exitX=0.5;exitY=1;exitDx=0;exitDy=0;fontFamily=Times New Roman;" edge="1" parent="c-rWy9lwXo303U8hRDKu-89">
          <mxGeometry width="50" height="50" relative="1" as="geometry">
            <mxPoint x="122.27999999999997" y="79" as="sourcePoint" />
            <mxPoint x="122.27999999999997" y="100" as="targetPoint" />
          </mxGeometry>
        </mxCell>
        <mxCell id="RAl_fdkwheR7L4zk8PT4-2" style="edgeStyle=orthogonalEdgeStyle;rounded=0;orthogonalLoop=1;jettySize=auto;html=1;entryX=0;entryY=0.5;entryDx=0;entryDy=0;fontSize=13;fontFamily=Times New Roman;" edge="1" parent="1" source="c-rWy9lwXo303U8hRDKu-36" target="c-rWy9lwXo303U8hRDKu-39">
          <mxGeometry relative="1" as="geometry">
            <Array as="points">
              <mxPoint x="537" y="531" />
              <mxPoint x="537" y="717" />
            </Array>
          </mxGeometry>
        </mxCell>
        <mxCell id="RAl_fdkwheR7L4zk8PT4-4" style="edgeStyle=orthogonalEdgeStyle;rounded=0;orthogonalLoop=1;jettySize=auto;html=1;exitX=0.5;exitY=1;exitDx=0;exitDy=0;entryX=0.5;entryY=0;entryDx=0;entryDy=0;fontSize=13;fontFamily=Times New Roman;" edge="1" parent="1" source="c-rWy9lwXo303U8hRDKu-56" target="c-rWy9lwXo303U8hRDKu-60">
          <mxGeometry relative="1" as="geometry">
            <Array as="points">
              <mxPoint x="1155" y="547" />
              <mxPoint x="1065" y="547" />
            </Array>
          </mxGeometry>
        </mxCell>
        <mxCell id="c-rWy9lwXo303U8hRDKu-100" value="" style="shape=ellipse;html=1;dashed=0;whiteSpace=wrap;aspect=fixed;strokeWidth=5;perimeter=ellipsePerimeter;fontSize=13;fontFamily=Times New Roman;" vertex="1" parent="1">
          <mxGeometry x="1054" y="1137" width="32" height="32" as="geometry" />
        </mxCell>
        <mxCell id="RAl_fdkwheR7L4zk8PT4-8" style="edgeStyle=orthogonalEdgeStyle;rounded=0;orthogonalLoop=1;jettySize=auto;html=1;exitX=0.5;exitY=1;exitDx=0;exitDy=0;entryX=0.5;entryY=0;entryDx=0;entryDy=0;fontSize=13;fontFamily=Times New Roman;" edge="1" parent="1" source="c-rWy9lwXo303U8hRDKu-81" target="c-rWy9lwXo303U8hRDKu-91">
          <mxGeometry relative="1" as="geometry" />
        </mxCell>
        <mxCell id="eAXEFXSTbYpyJ3p3e_jd-2" style="edgeStyle=orthogonalEdgeStyle;rounded=0;orthogonalLoop=1;jettySize=auto;html=1;exitX=0.5;exitY=1;exitDx=0;exitDy=0;entryX=0.5;entryY=0;entryDx=0;entryDy=0;fontSize=13;fontFamily=Times New Roman;" edge="1" parent="1" source="eAXEFXSTbYpyJ3p3e_jd-1" target="c-rWy9lwXo303U8hRDKu-27">
          <mxGeometry relative="1" as="geometry" />
        </mxCell>
        <mxCell id="eAXEFXSTbYpyJ3p3e_jd-1" value="&lt;b&gt;&lt;font&gt;Filesystem &amp;amp; Dataset Preparation&lt;/font&gt;&lt;/b&gt;" style="swimlane;whiteSpace=wrap;html=1;fontSize=13;fontFamily=Times New Roman;" vertex="1" parent="1">
          <mxGeometry x="584" y="14" width="312" height="25" as="geometry" />
        </mxCell>
      </root>
    </mxGraphModel>
  </diagram>
  <diagram name="Flowchart: Incineration Dataset -&gt; densenet" id="KNCIn9IP1B3fzmxEEqoV">
    <mxGraphModel grid="0" page="0" gridSize="10" guides="1" tooltips="1" connect="1" arrows="1" fold="1" pageScale="1" pageWidth="850" pageHeight="1100" math="0" shadow="0">
      <root>
        <mxCell id="VhYmj5SbwUfkiyhzha3f-0" />
        <mxCell id="VhYmj5SbwUfkiyhzha3f-1" parent="VhYmj5SbwUfkiyhzha3f-0" />
        <mxCell id="VhYmj5SbwUfkiyhzha3f-55" value="&lt;font style=&quot;color: rgb(0, 102, 0);&quot;&gt;Model Construction&lt;/font&gt;" style="swimlane;whiteSpace=wrap;html=1;fontSize=13;fontFamily=Times New Roman;" vertex="1" parent="VhYmj5SbwUfkiyhzha3f-1">
          <mxGeometry x="563.01" y="524" width="348.75" height="371" as="geometry" />
        </mxCell>
        <mxCell id="VhYmj5SbwUfkiyhzha3f-56" value="" style="edgeStyle=none;curved=1;rounded=0;orthogonalLoop=1;jettySize=auto;html=1;fontSize=13;startSize=8;endSize=8;fontFamily=Times New Roman;" edge="1" parent="VhYmj5SbwUfkiyhzha3f-55" source="VhYmj5SbwUfkiyhzha3f-57" target="VhYmj5SbwUfkiyhzha3f-59">
          <mxGeometry relative="1" as="geometry" />
        </mxCell>
        <mxCell id="VhYmj5SbwUfkiyhzha3f-57" value="&lt;font&gt;&lt;b&gt;Initialize DenseNet121&lt;/b&gt;&lt;/font&gt;&lt;div&gt;&lt;font&gt;&lt;b&gt;(no top, input shape, no weights)&lt;/b&gt;&lt;/font&gt;&lt;/div&gt;" style="rounded=1;whiteSpace=wrap;html=1;fontSize=13;fontFamily=Times New Roman;" vertex="1" parent="VhYmj5SbwUfkiyhzha3f-55">
          <mxGeometry x="46.5" y="41" width="232" height="60" as="geometry" />
        </mxCell>
        <mxCell id="E57RW3j11T8QF_cCGpjO-4" value="" style="edgeStyle=none;curved=1;rounded=0;orthogonalLoop=1;jettySize=auto;html=1;fontSize=13;startSize=8;endSize=8;entryX=0.5;entryY=0;entryDx=0;entryDy=0;fontFamily=Times New Roman;" edge="1" parent="VhYmj5SbwUfkiyhzha3f-55" source="VhYmj5SbwUfkiyhzha3f-59" target="E57RW3j11T8QF_cCGpjO-0">
          <mxGeometry relative="1" as="geometry" />
        </mxCell>
        <mxCell id="VhYmj5SbwUfkiyhzha3f-59" value="&lt;font&gt;&lt;b&gt;Load local weights&lt;/b&gt;&lt;/font&gt;" style="rounded=1;whiteSpace=wrap;html=1;fontSize=13;fontFamily=Times New Roman;" vertex="1" parent="VhYmj5SbwUfkiyhzha3f-55">
          <mxGeometry x="75" y="119" width="179" height="49" as="geometry" />
        </mxCell>
        <mxCell id="VhYmj5SbwUfkiyhzha3f-60" value="&lt;font&gt;&lt;b&gt;Assemble model&lt;/b&gt;&lt;/font&gt;&lt;div&gt;&lt;font&gt;&lt;b&gt;(inputs → base → head)&lt;/b&gt;&lt;/font&gt;&lt;/div&gt;" style="rounded=1;whiteSpace=wrap;html=1;fontSize=13;fontFamily=Times New Roman;" vertex="1" parent="VhYmj5SbwUfkiyhzha3f-55">
          <mxGeometry x="52.5" y="330" width="227" height="34" as="geometry" />
        </mxCell>
        <mxCell id="q8PgkN7288I6eQo9ATKC-11" style="edgeStyle=orthogonalEdgeStyle;rounded=0;orthogonalLoop=1;jettySize=auto;html=1;exitX=0.5;exitY=1;exitDx=0;exitDy=0;entryX=0.5;entryY=0;entryDx=0;entryDy=0;fontSize=13;fontFamily=Times New Roman;" edge="1" parent="VhYmj5SbwUfkiyhzha3f-55" source="E57RW3j11T8QF_cCGpjO-0" target="E57RW3j11T8QF_cCGpjO-3">
          <mxGeometry relative="1" as="geometry" />
        </mxCell>
        <mxCell id="E57RW3j11T8QF_cCGpjO-0" value="&lt;font&gt;&lt;b&gt;Freeze base model&lt;/b&gt;&lt;/font&gt;" style="rounded=1;whiteSpace=wrap;html=1;fontSize=13;fontFamily=Times New Roman;" vertex="1" parent="VhYmj5SbwUfkiyhzha3f-55">
          <mxGeometry x="75.62" y="195" width="175.5" height="26" as="geometry" />
        </mxCell>
        <mxCell id="q8PgkN7288I6eQo9ATKC-12" style="edgeStyle=orthogonalEdgeStyle;rounded=0;orthogonalLoop=1;jettySize=auto;html=1;exitX=0.5;exitY=1;exitDx=0;exitDy=0;entryX=0.5;entryY=0;entryDx=0;entryDy=0;fontSize=13;fontFamily=Times New Roman;" edge="1" parent="VhYmj5SbwUfkiyhzha3f-55" source="E57RW3j11T8QF_cCGpjO-3" target="VhYmj5SbwUfkiyhzha3f-60">
          <mxGeometry relative="1" as="geometry" />
        </mxCell>
        <mxCell id="E57RW3j11T8QF_cCGpjO-3" value="&lt;font&gt;&lt;b&gt;Build head:&amp;nbsp;&lt;/b&gt;&lt;/font&gt;&lt;div&gt;&lt;font&gt;&lt;b&gt;GAP-&amp;gt;BN-&amp;gt;Dense(512,ReLU) -&amp;gt; Dropout(0.5) -&amp;gt; Dense(256,ReLU) -&amp;gt; Dropout(0.4) -&amp;gt; Dense(12,Softmax)&lt;/b&gt;&lt;/font&gt;&lt;/div&gt;" style="rounded=1;whiteSpace=wrap;html=1;fontSize=13;fontFamily=Times New Roman;" vertex="1" parent="VhYmj5SbwUfkiyhzha3f-55">
          <mxGeometry x="54" y="248" width="223" height="65" as="geometry" />
        </mxCell>
        <mxCell id="VhYmj5SbwUfkiyhzha3f-63" value="&lt;font style=&quot;color: rgb(0, 102, 0);&quot;&gt;Compile &amp;amp; Callbacks&lt;/font&gt;" style="swimlane;whiteSpace=wrap;html=1;labelBorderColor=none;fontSize=13;fontFamily=Times New Roman;" vertex="1" parent="VhYmj5SbwUfkiyhzha3f-1">
          <mxGeometry x="998" y="-50" width="316" height="313" as="geometry" />
        </mxCell>
        <mxCell id="VhYmj5SbwUfkiyhzha3f-65" value="&lt;font&gt;&lt;b&gt;Loss: CategoricalCrossentropy&lt;/b&gt;&lt;/font&gt;&lt;div&gt;&lt;font&gt;&lt;b&gt;(label smoothing)&lt;/b&gt;&lt;/font&gt;&lt;/div&gt;" style="rounded=1;whiteSpace=wrap;html=1;fontSize=13;fontFamily=Times New Roman;" vertex="1" parent="VhYmj5SbwUfkiyhzha3f-63">
          <mxGeometry x="38" y="36" width="246" height="34" as="geometry" />
        </mxCell>
        <mxCell id="VhYmj5SbwUfkiyhzha3f-66" value="&lt;font&gt;&lt;b&gt;Callbacks&lt;/b&gt;&lt;/font&gt;&lt;div&gt;&lt;font&gt;&lt;b&gt;(ModelCheckpoint, EarlyStopping, ReduceLROnPlateau)&lt;/b&gt;&lt;/font&gt;&lt;/div&gt;" style="rounded=1;whiteSpace=wrap;html=1;fontSize=13;fontFamily=Times New Roman;" vertex="1" parent="VhYmj5SbwUfkiyhzha3f-63">
          <mxGeometry x="30" y="230" width="270" height="57" as="geometry" />
        </mxCell>
        <mxCell id="E57RW3j11T8QF_cCGpjO-7" value="&lt;font&gt;&lt;b&gt;optimizer = Adam(lr=1e-4)&lt;/b&gt;&lt;/font&gt;" style="rounded=1;whiteSpace=wrap;html=1;fontSize=13;fontFamily=Times New Roman;" vertex="1" parent="VhYmj5SbwUfkiyhzha3f-63">
          <mxGeometry x="40" y="88" width="243" height="26" as="geometry" />
        </mxCell>
        <mxCell id="E57RW3j11T8QF_cCGpjO-15" value="&lt;font&gt;&lt;b&gt;metrics = [&#39;accuracy&#39;]&lt;/b&gt;&lt;/font&gt;" style="rounded=1;whiteSpace=wrap;html=1;fontSize=13;fontFamily=Times New Roman;" vertex="1" parent="VhYmj5SbwUfkiyhzha3f-63">
          <mxGeometry x="78.25" y="131" width="177.5" height="28" as="geometry" />
        </mxCell>
        <mxCell id="E57RW3j11T8QF_cCGpjO-16" value="&lt;font&gt;&lt;b&gt;Compile(model, loss, optimizer, metrics)&lt;/b&gt;&lt;/font&gt;" style="rounded=1;whiteSpace=wrap;html=1;fontSize=13;fontFamily=Times New Roman;" vertex="1" parent="VhYmj5SbwUfkiyhzha3f-63">
          <mxGeometry x="40" y="178" width="254" height="34" as="geometry" />
        </mxCell>
        <mxCell id="VhYmj5SbwUfkiyhzha3f-67" value="" style="edgeStyle=elbowEdgeStyle;elbow=horizontal;endArrow=classic;html=1;curved=0;rounded=0;endSize=8;startSize=8;fontSize=13;entryX=0;entryY=0.5;entryDx=0;entryDy=0;fontFamily=Times New Roman;" edge="1" parent="VhYmj5SbwUfkiyhzha3f-1" source="VhYmj5SbwUfkiyhzha3f-60" target="VhYmj5SbwUfkiyhzha3f-65">
          <mxGeometry width="50" height="50" relative="1" as="geometry">
            <mxPoint x="671" y="1169" as="sourcePoint" />
            <mxPoint x="1036" y="45" as="targetPoint" />
            <Array as="points">
              <mxPoint x="942" y="619" />
            </Array>
          </mxGeometry>
        </mxCell>
        <mxCell id="VhYmj5SbwUfkiyhzha3f-68" value="" style="edgeStyle=elbowEdgeStyle;elbow=horizontal;endArrow=classic;html=1;curved=0;rounded=0;endSize=8;startSize=8;fontSize=13;exitX=0;exitY=0.476;exitDx=0;exitDy=0;exitPerimeter=0;entryX=0;entryY=0.5;entryDx=0;entryDy=0;fontFamily=Times New Roman;" edge="1" parent="VhYmj5SbwUfkiyhzha3f-1" source="VhYmj5SbwUfkiyhzha3f-66" target="VhYmj5SbwUfkiyhzha3f-71">
          <mxGeometry width="50" height="50" relative="1" as="geometry">
            <mxPoint x="1048" y="203" as="sourcePoint" />
            <mxPoint x="1044" y="409" as="targetPoint" />
            <Array as="points">
              <mxPoint x="983" y="303" />
            </Array>
          </mxGeometry>
        </mxCell>
        <mxCell id="VhYmj5SbwUfkiyhzha3f-69" value="&lt;font style=&quot;color: rgb(0, 102, 0);&quot;&gt;Training (Phase 1)&lt;/font&gt;" style="swimlane;whiteSpace=wrap;html=1;fontSize=13;fontFamily=Times New Roman;" vertex="1" parent="VhYmj5SbwUfkiyhzha3f-1">
          <mxGeometry x="1001" y="293" width="312" height="156" as="geometry" />
        </mxCell>
        <mxCell id="q8PgkN7288I6eQo9ATKC-13" style="edgeStyle=orthogonalEdgeStyle;rounded=0;orthogonalLoop=1;jettySize=auto;html=1;exitX=0.5;exitY=1;exitDx=0;exitDy=0;entryX=0.5;entryY=0;entryDx=0;entryDy=0;fontSize=13;fontFamily=Times New Roman;" edge="1" parent="VhYmj5SbwUfkiyhzha3f-69" source="VhYmj5SbwUfkiyhzha3f-71" target="VhYmj5SbwUfkiyhzha3f-74">
          <mxGeometry relative="1" as="geometry" />
        </mxCell>
        <mxCell id="VhYmj5SbwUfkiyhzha3f-71" value="&lt;font&gt;&lt;b&gt;Fit model (train + val generators)&lt;/b&gt;&lt;/font&gt;" style="rounded=1;whiteSpace=wrap;html=1;fontSize=13;fontFamily=Times New Roman;" vertex="1" parent="VhYmj5SbwUfkiyhzha3f-69">
          <mxGeometry x="41" y="36" width="223" height="53" as="geometry" />
        </mxCell>
        <mxCell id="VhYmj5SbwUfkiyhzha3f-72" value="" style="edgeStyle=none;curved=1;rounded=0;orthogonalLoop=1;jettySize=auto;html=1;fontSize=13;startSize=8;endSize=8;fontFamily=Times New Roman;" edge="1" parent="VhYmj5SbwUfkiyhzha3f-69" target="VhYmj5SbwUfkiyhzha3f-74">
          <mxGeometry relative="1" as="geometry">
            <mxPoint x="152.5" y="131" as="sourcePoint" />
          </mxGeometry>
        </mxCell>
        <mxCell id="VhYmj5SbwUfkiyhzha3f-74" value="&lt;font&gt;&lt;b&gt;Evaluate val_acc&lt;/b&gt;&lt;/font&gt;" style="whiteSpace=wrap;html=1;rounded=1;fontSize=13;fontFamily=Times New Roman;" vertex="1" parent="VhYmj5SbwUfkiyhzha3f-69">
          <mxGeometry x="46" y="109" width="213" height="32" as="geometry" />
        </mxCell>
        <mxCell id="VhYmj5SbwUfkiyhzha3f-75" value="&lt;font style=&quot;color: rgb(0, 102, 0);&quot;&gt;Decision: Fine-Tune?&lt;/font&gt;" style="swimlane;whiteSpace=wrap;html=1;fontSize=13;startSize=23;fontFamily=Times New Roman;" vertex="1" parent="VhYmj5SbwUfkiyhzha3f-1">
          <mxGeometry x="971" y="487" width="425" height="313" as="geometry" />
        </mxCell>
        <mxCell id="VhYmj5SbwUfkiyhzha3f-76" value="" style="edgeStyle=none;curved=1;rounded=0;orthogonalLoop=1;jettySize=auto;html=1;fontSize=13;startSize=8;endSize=8;fontFamily=Times New Roman;" edge="1" parent="VhYmj5SbwUfkiyhzha3f-75" source="VhYmj5SbwUfkiyhzha3f-77">
          <mxGeometry relative="1" as="geometry">
            <mxPoint x="212" y="88" as="targetPoint" />
          </mxGeometry>
        </mxCell>
        <mxCell id="VhYmj5SbwUfkiyhzha3f-77" value="val_acc &amp;lt; 0.95" style="rhombus;whiteSpace=wrap;html=1;fontSize=13;fontFamily=Times New Roman;" vertex="1" parent="VhYmj5SbwUfkiyhzha3f-75">
          <mxGeometry x="40.5" y="48" width="101.5" height="80" as="geometry" />
        </mxCell>
        <mxCell id="q8PgkN7288I6eQo9ATKC-21" style="edgeStyle=orthogonalEdgeStyle;rounded=0;orthogonalLoop=1;jettySize=auto;html=1;exitX=0;exitY=0.5;exitDx=0;exitDy=0;entryX=0;entryY=0.5;entryDx=0;entryDy=0;fontSize=13;fontFamily=Times New Roman;" edge="1" parent="VhYmj5SbwUfkiyhzha3f-75" source="VhYmj5SbwUfkiyhzha3f-78" target="VhYmj5SbwUfkiyhzha3f-88">
          <mxGeometry relative="1" as="geometry" />
        </mxCell>
        <mxCell id="VhYmj5SbwUfkiyhzha3f-78" value="Skip fine-tuning" style="whiteSpace=wrap;html=1;fontSize=13;fontFamily=Times New Roman;" vertex="1" parent="VhYmj5SbwUfkiyhzha3f-75">
          <mxGeometry x="43.25" y="159" width="98.75" height="37" as="geometry" />
        </mxCell>
        <mxCell id="VhYmj5SbwUfkiyhzha3f-79" value="" style="edgeStyle=none;curved=1;rounded=0;orthogonalLoop=1;jettySize=auto;html=1;fontSize=13;startSize=8;endSize=8;fontFamily=Times New Roman;" edge="1" parent="VhYmj5SbwUfkiyhzha3f-75" source="VhYmj5SbwUfkiyhzha3f-77" target="VhYmj5SbwUfkiyhzha3f-78">
          <mxGeometry relative="1" as="geometry" />
        </mxCell>
        <mxCell id="VhYmj5SbwUfkiyhzha3f-80" value="no" style="text;html=1;align=center;verticalAlign=middle;whiteSpace=wrap;rounded=0;fontSize=13;fontFamily=Times New Roman;" vertex="1" parent="VhYmj5SbwUfkiyhzha3f-75">
          <mxGeometry x="41" y="122" width="60" height="30" as="geometry" />
        </mxCell>
        <mxCell id="VhYmj5SbwUfkiyhzha3f-81" value="&lt;font style=&quot;color: rgb(0, 102, 0);&quot;&gt;Fine-Tuning (Phase 2)&lt;/font&gt;" style="swimlane;whiteSpace=wrap;html=1;fontSize=13;startSize=23;fontFamily=Times New Roman;" vertex="1" parent="VhYmj5SbwUfkiyhzha3f-75">
          <mxGeometry x="180" y="37" width="223" height="257" as="geometry" />
        </mxCell>
        <mxCell id="VhYmj5SbwUfkiyhzha3f-82" value="" style="edgeStyle=none;curved=1;rounded=0;orthogonalLoop=1;jettySize=auto;html=1;fontSize=13;startSize=8;endSize=8;fontFamily=Times New Roman;" edge="1" parent="VhYmj5SbwUfkiyhzha3f-81" source="VhYmj5SbwUfkiyhzha3f-83" target="VhYmj5SbwUfkiyhzha3f-84">
          <mxGeometry relative="1" as="geometry" />
        </mxCell>
        <mxCell id="VhYmj5SbwUfkiyhzha3f-83" value="&lt;font&gt;&lt;b&gt;Set base_model.trainable = True&lt;/b&gt;&lt;/font&gt;" style="rounded=1;whiteSpace=wrap;html=1;fontSize=13;fontFamily=Times New Roman;" vertex="1" parent="VhYmj5SbwUfkiyhzha3f-81">
          <mxGeometry x="7" y="38" width="203" height="26" as="geometry" />
        </mxCell>
        <mxCell id="VhYmj5SbwUfkiyhzha3f-84" value="&lt;font&gt;&lt;b&gt;Re-compile Adam(lr=1e-5),&amp;nbsp;&lt;/b&gt;&lt;/font&gt;&lt;div&gt;&lt;font&gt;&lt;b&gt;same loss/metrics&lt;/b&gt;&lt;/font&gt;&lt;/div&gt;" style="rounded=1;whiteSpace=wrap;html=1;fontSize=13;fontFamily=Times New Roman;" vertex="1" parent="VhYmj5SbwUfkiyhzha3f-81">
          <mxGeometry x="6" y="81" width="212" height="31" as="geometry" />
        </mxCell>
        <mxCell id="q8PgkN7288I6eQo9ATKC-20" style="edgeStyle=orthogonalEdgeStyle;rounded=0;orthogonalLoop=1;jettySize=auto;html=1;exitX=0.5;exitY=1;exitDx=0;exitDy=0;entryX=0.5;entryY=0;entryDx=0;entryDy=0;fontSize=13;fontFamily=Times New Roman;" edge="1" parent="VhYmj5SbwUfkiyhzha3f-81" source="VhYmj5SbwUfkiyhzha3f-85" target="VhYmj5SbwUfkiyhzha3f-87">
          <mxGeometry relative="1" as="geometry" />
        </mxCell>
        <mxCell id="VhYmj5SbwUfkiyhzha3f-85" value="&lt;font&gt;&lt;b&gt;Fit model (Phase 2)&lt;/b&gt;&lt;/font&gt;" style="rounded=1;whiteSpace=wrap;html=1;fontSize=13;fontFamily=Times New Roman;" vertex="1" parent="VhYmj5SbwUfkiyhzha3f-81">
          <mxGeometry x="27" y="136" width="175" height="33" as="geometry" />
        </mxCell>
        <mxCell id="VhYmj5SbwUfkiyhzha3f-86" value="" style="endArrow=classic;html=1;rounded=0;fontSize=13;startSize=8;endSize=8;curved=1;exitX=0.5;exitY=1;exitDx=0;exitDy=0;entryX=0.5;entryY=0;entryDx=0;entryDy=0;fontFamily=Times New Roman;" edge="1" parent="VhYmj5SbwUfkiyhzha3f-81" source="VhYmj5SbwUfkiyhzha3f-84" target="VhYmj5SbwUfkiyhzha3f-85">
          <mxGeometry width="50" height="50" relative="1" as="geometry">
            <mxPoint x="23" y="49" as="sourcePoint" />
            <mxPoint x="107" y="146" as="targetPoint" />
          </mxGeometry>
        </mxCell>
        <mxCell id="VhYmj5SbwUfkiyhzha3f-87" value="&lt;font&gt;&lt;b&gt;[val_loss, val_acc] = model.evaluate( val_generator, verbose=2)&lt;/b&gt;&lt;/font&gt;" style="rounded=1;whiteSpace=wrap;html=1;fontSize=13;fontFamily=Times New Roman;" vertex="1" parent="VhYmj5SbwUfkiyhzha3f-81">
          <mxGeometry x="11.5" y="196" width="206" height="47" as="geometry" />
        </mxCell>
        <mxCell id="VhYmj5SbwUfkiyhzha3f-88" value="" style="rhombus;whiteSpace=wrap;html=1;fontSize=13;fontFamily=Times New Roman;" vertex="1" parent="VhYmj5SbwUfkiyhzha3f-75">
          <mxGeometry x="52.629999999999995" y="219" width="80" height="80" as="geometry" />
        </mxCell>
        <mxCell id="VhYmj5SbwUfkiyhzha3f-89" value="" style="edgeStyle=none;curved=1;rounded=0;orthogonalLoop=1;jettySize=auto;html=1;fontSize=13;startSize=8;endSize=8;fontFamily=Times New Roman;" edge="1" parent="VhYmj5SbwUfkiyhzha3f-75" source="VhYmj5SbwUfkiyhzha3f-87" target="VhYmj5SbwUfkiyhzha3f-88">
          <mxGeometry relative="1" as="geometry" />
        </mxCell>
        <mxCell id="VhYmj5SbwUfkiyhzha3f-91" value="" style="endArrow=classic;html=1;rounded=0;fontSize=13;startSize=8;endSize=8;curved=1;exitX=0.5;exitY=1;exitDx=0;exitDy=0;fontFamily=Times New Roman;" edge="1" parent="VhYmj5SbwUfkiyhzha3f-1">
          <mxGeometry width="50" height="50" relative="1" as="geometry">
            <mxPoint x="1262" y="974" as="sourcePoint" />
            <mxPoint x="1262" y="974" as="targetPoint" />
          </mxGeometry>
        </mxCell>
        <mxCell id="VhYmj5SbwUfkiyhzha3f-92" value="" style="endArrow=classic;html=1;rounded=0;fontSize=13;startSize=8;endSize=8;curved=1;exitX=0.5;exitY=1;exitDx=0;exitDy=0;fontFamily=Times New Roman;" edge="1" parent="VhYmj5SbwUfkiyhzha3f-1">
          <mxGeometry width="50" height="50" relative="1" as="geometry">
            <mxPoint x="1271" y="912" as="sourcePoint" />
            <mxPoint x="1271" y="933" as="targetPoint" />
          </mxGeometry>
        </mxCell>
        <mxCell id="q8PgkN7288I6eQo9ATKC-17" style="edgeStyle=orthogonalEdgeStyle;rounded=0;orthogonalLoop=1;jettySize=auto;html=1;exitX=0.5;exitY=1;exitDx=0;exitDy=0;entryX=0.5;entryY=0;entryDx=0;entryDy=0;fontSize=13;fontFamily=Times New Roman;" edge="1" parent="VhYmj5SbwUfkiyhzha3f-1" source="VhYmj5SbwUfkiyhzha3f-93" target="VhYmj5SbwUfkiyhzha3f-99">
          <mxGeometry relative="1" as="geometry" />
        </mxCell>
        <mxCell id="VhYmj5SbwUfkiyhzha3f-93" value="&lt;font style=&quot;color: rgb(0, 102, 0);&quot;&gt;Reporting &amp;amp; Artifacts&lt;/font&gt;" style="swimlane;whiteSpace=wrap;html=1;startSize=22;fontSize=13;fontFamily=Times New Roman;" vertex="1" parent="VhYmj5SbwUfkiyhzha3f-1">
          <mxGeometry x="1009" y="816" width="387" height="183" as="geometry" />
        </mxCell>
        <mxCell id="q8PgkN7288I6eQo9ATKC-18" style="edgeStyle=orthogonalEdgeStyle;rounded=0;orthogonalLoop=1;jettySize=auto;html=1;exitX=0.5;exitY=1;exitDx=0;exitDy=0;entryX=0.5;entryY=0;entryDx=0;entryDy=0;fontSize=13;fontFamily=Times New Roman;" edge="1" parent="VhYmj5SbwUfkiyhzha3f-93" source="VhYmj5SbwUfkiyhzha3f-94" target="E57RW3j11T8QF_cCGpjO-24">
          <mxGeometry relative="1" as="geometry" />
        </mxCell>
        <mxCell id="VhYmj5SbwUfkiyhzha3f-94" value="&lt;font&gt;Print final validation accuracy&lt;/font&gt;" style="rounded=1;whiteSpace=wrap;html=1;fontSize=13;fontFamily=Times New Roman;" vertex="1" parent="VhYmj5SbwUfkiyhzha3f-93">
          <mxGeometry x="82" y="42" width="207" height="27" as="geometry" />
        </mxCell>
        <mxCell id="VhYmj5SbwUfkiyhzha3f-95" value="&lt;p&gt;&lt;font&gt;Best model saved to best_waste_model.h5&lt;/font&gt;&lt;/p&gt;" style="rounded=1;whiteSpace=wrap;html=1;fontSize=13;fontFamily=Times New Roman;" vertex="1" parent="VhYmj5SbwUfkiyhzha3f-93">
          <mxGeometry x="41" y="141" width="289" height="31" as="geometry" />
        </mxCell>
        <mxCell id="q8PgkN7288I6eQo9ATKC-19" style="edgeStyle=orthogonalEdgeStyle;rounded=0;orthogonalLoop=1;jettySize=auto;html=1;exitX=0.5;exitY=1;exitDx=0;exitDy=0;entryX=0.5;entryY=0;entryDx=0;entryDy=0;fontSize=13;fontFamily=Times New Roman;" edge="1" parent="VhYmj5SbwUfkiyhzha3f-93" source="E57RW3j11T8QF_cCGpjO-24" target="VhYmj5SbwUfkiyhzha3f-95">
          <mxGeometry relative="1" as="geometry" />
        </mxCell>
        <mxCell id="E57RW3j11T8QF_cCGpjO-24" value="&lt;font&gt;plot_history(history);&amp;nbsp;&lt;/font&gt;&lt;div&gt;&lt;font&gt;(if fine-tuned, plot most recent)&lt;/font&gt;&lt;/div&gt;" style="rounded=1;whiteSpace=wrap;html=1;fontSize=13;fontFamily=Times New Roman;" vertex="1" parent="VhYmj5SbwUfkiyhzha3f-93">
          <mxGeometry x="48" y="89" width="275" height="33" as="geometry" />
        </mxCell>
        <mxCell id="VhYmj5SbwUfkiyhzha3f-99" value="" style="shape=ellipse;html=1;dashed=0;whiteSpace=wrap;aspect=fixed;strokeWidth=5;perimeter=ellipsePerimeter;fontSize=13;fontFamily=Times New Roman;" vertex="1" parent="VhYmj5SbwUfkiyhzha3f-1">
          <mxGeometry x="1178" y="1029" width="32" height="32" as="geometry" />
        </mxCell>
        <mxCell id="E57RW3j11T8QF_cCGpjO-17" value="" style="edgeStyle=none;curved=1;rounded=0;orthogonalLoop=1;jettySize=auto;html=1;fontSize=13;startSize=8;endSize=8;fontFamily=Times New Roman;" edge="1" parent="VhYmj5SbwUfkiyhzha3f-1">
          <mxGeometry relative="1" as="geometry">
            <mxPoint x="1154" y="21" as="sourcePoint" />
            <mxPoint x="1155" y="39" as="targetPoint" />
          </mxGeometry>
        </mxCell>
        <mxCell id="E57RW3j11T8QF_cCGpjO-18" value="" style="edgeStyle=none;curved=1;rounded=0;orthogonalLoop=1;jettySize=auto;html=1;fontSize=13;startSize=8;endSize=8;fontFamily=Times New Roman;" edge="1" parent="VhYmj5SbwUfkiyhzha3f-1">
          <mxGeometry relative="1" as="geometry">
            <mxPoint x="1157" y="64" as="sourcePoint" />
            <mxPoint x="1158" y="82" as="targetPoint" />
          </mxGeometry>
        </mxCell>
        <mxCell id="E57RW3j11T8QF_cCGpjO-20" value="" style="edgeStyle=none;curved=1;rounded=0;orthogonalLoop=1;jettySize=auto;html=1;fontSize=13;startSize=8;endSize=8;fontFamily=Times New Roman;" edge="1" parent="VhYmj5SbwUfkiyhzha3f-1">
          <mxGeometry relative="1" as="geometry">
            <mxPoint x="1159" y="109" as="sourcePoint" />
            <mxPoint x="1160" y="126" as="targetPoint" />
          </mxGeometry>
        </mxCell>
        <mxCell id="E57RW3j11T8QF_cCGpjO-21" value="" style="edgeStyle=none;curved=1;rounded=0;orthogonalLoop=1;jettySize=auto;html=1;fontSize=13;startSize=8;endSize=8;fontFamily=Times New Roman;" edge="1" parent="VhYmj5SbwUfkiyhzha3f-1">
          <mxGeometry relative="1" as="geometry">
            <mxPoint x="1160" y="161" as="sourcePoint" />
            <mxPoint x="1161" y="181" as="targetPoint" />
          </mxGeometry>
        </mxCell>
        <mxCell id="q8PgkN7288I6eQo9ATKC-0" value="&lt;font style=&quot;color: rgb(0, 102, 0);&quot;&gt;Preprocessing &amp;amp; Augmentation&lt;/font&gt;" style="swimlane;whiteSpace=wrap;html=1;startSize=23;fontSize=13;fontFamily=Times New Roman;" vertex="1" parent="VhYmj5SbwUfkiyhzha3f-1">
          <mxGeometry x="577.38" y="35" width="320" height="458" as="geometry" />
        </mxCell>
        <mxCell id="q8PgkN7288I6eQo9ATKC-1" value="" style="edgeStyle=none;curved=1;rounded=0;orthogonalLoop=1;jettySize=auto;html=1;fontSize=13;startSize=8;endSize=8;fontFamily=Times New Roman;" edge="1" parent="q8PgkN7288I6eQo9ATKC-0" source="q8PgkN7288I6eQo9ATKC-2" target="q8PgkN7288I6eQo9ATKC-4">
          <mxGeometry relative="1" as="geometry" />
        </mxCell>
        <mxCell id="q8PgkN7288I6eQo9ATKC-2" value="&lt;font&gt;&lt;b&gt;Set IMG_SIZE, BATCH, EPOCHS, NUM_CLASSES, PATH&lt;/b&gt;&lt;/font&gt;" style="rounded=1;whiteSpace=wrap;html=1;fontSize=13;fontFamily=Times New Roman;" vertex="1" parent="q8PgkN7288I6eQo9ATKC-0">
          <mxGeometry x="55" y="37" width="217" height="59" as="geometry" />
        </mxCell>
        <mxCell id="q8PgkN7288I6eQo9ATKC-3" value="" style="edgeStyle=none;curved=1;rounded=0;orthogonalLoop=1;jettySize=auto;html=1;fontSize=13;startSize=8;endSize=8;fontFamily=Times New Roman;" edge="1" parent="q8PgkN7288I6eQo9ATKC-0" source="q8PgkN7288I6eQo9ATKC-4" target="q8PgkN7288I6eQo9ATKC-6">
          <mxGeometry relative="1" as="geometry" />
        </mxCell>
        <mxCell id="q8PgkN7288I6eQo9ATKC-4" value="&lt;font&gt;&lt;b&gt;Train datagenerator&lt;/b&gt;&lt;/font&gt;&lt;div&gt;&lt;font&gt;&lt;b&gt;(resize, augment, split)&lt;/b&gt;&lt;/font&gt;&lt;/div&gt;" style="rounded=1;whiteSpace=wrap;html=1;fontSize=13;fontFamily=Times New Roman;" vertex="1" parent="q8PgkN7288I6eQo9ATKC-0">
          <mxGeometry x="49.5" y="125" width="228" height="56" as="geometry" />
        </mxCell>
        <mxCell id="q8PgkN7288I6eQo9ATKC-5" value="" style="edgeStyle=none;curved=1;rounded=0;orthogonalLoop=1;jettySize=auto;html=1;fontSize=13;startSize=8;endSize=8;fontFamily=Times New Roman;" edge="1" parent="q8PgkN7288I6eQo9ATKC-0" source="q8PgkN7288I6eQo9ATKC-6" target="q8PgkN7288I6eQo9ATKC-8">
          <mxGeometry relative="1" as="geometry" />
        </mxCell>
        <mxCell id="q8PgkN7288I6eQo9ATKC-6" value="&lt;font&gt;&lt;b&gt;Validation datagenerator&lt;/b&gt;&lt;/font&gt;&lt;div&gt;&lt;font&gt;&lt;b&gt;(resize, split)&lt;/b&gt;&lt;/font&gt;&lt;/div&gt;" style="rounded=1;whiteSpace=wrap;html=1;fontSize=13;fontFamily=Times New Roman;" vertex="1" parent="q8PgkN7288I6eQo9ATKC-0">
          <mxGeometry x="49.5" y="213" width="228" height="59" as="geometry" />
        </mxCell>
        <mxCell id="q8PgkN7288I6eQo9ATKC-7" value="" style="edgeStyle=none;curved=1;rounded=0;orthogonalLoop=1;jettySize=auto;html=1;fontSize=13;startSize=8;endSize=8;fontFamily=Times New Roman;" edge="1" parent="q8PgkN7288I6eQo9ATKC-0" source="q8PgkN7288I6eQo9ATKC-8" target="q8PgkN7288I6eQo9ATKC-9">
          <mxGeometry relative="1" as="geometry" />
        </mxCell>
        <mxCell id="q8PgkN7288I6eQo9ATKC-8" value="&lt;font&gt;&lt;b&gt;Train generator (from directory)&lt;/b&gt;&lt;/font&gt;" style="rounded=1;whiteSpace=wrap;html=1;fontSize=13;fontFamily=Times New Roman;" vertex="1" parent="q8PgkN7288I6eQo9ATKC-0">
          <mxGeometry x="52.5" y="300" width="223" height="53" as="geometry" />
        </mxCell>
        <mxCell id="q8PgkN7288I6eQo9ATKC-9" value="&lt;font&gt;&lt;b&gt;Val generator (from directory)&lt;/b&gt;&lt;/font&gt;" style="whiteSpace=wrap;html=1;rounded=1;fontSize=13;fontFamily=Times New Roman;" vertex="1" parent="q8PgkN7288I6eQo9ATKC-0">
          <mxGeometry x="56.5" y="380" width="216" height="55" as="geometry" />
        </mxCell>
        <mxCell id="q8PgkN7288I6eQo9ATKC-10" style="edgeStyle=orthogonalEdgeStyle;rounded=0;orthogonalLoop=1;jettySize=auto;html=1;exitX=0;exitY=0.5;exitDx=0;exitDy=0;entryX=0;entryY=0.5;entryDx=0;entryDy=0;fontSize=13;fontFamily=Times New Roman;" edge="1" parent="VhYmj5SbwUfkiyhzha3f-1" source="q8PgkN7288I6eQo9ATKC-9" target="VhYmj5SbwUfkiyhzha3f-57">
          <mxGeometry relative="1" as="geometry">
            <Array as="points">
              <mxPoint x="540" y="448" />
              <mxPoint x="540" y="595" />
            </Array>
          </mxGeometry>
        </mxCell>
        <mxCell id="q8PgkN7288I6eQo9ATKC-14" style="edgeStyle=orthogonalEdgeStyle;rounded=0;orthogonalLoop=1;jettySize=auto;html=1;exitX=0.5;exitY=1;exitDx=0;exitDy=0;entryX=0.5;entryY=0;entryDx=0;entryDy=0;fontSize=13;fontFamily=Times New Roman;" edge="1" parent="VhYmj5SbwUfkiyhzha3f-1" source="VhYmj5SbwUfkiyhzha3f-74" target="VhYmj5SbwUfkiyhzha3f-77">
          <mxGeometry relative="1" as="geometry">
            <Array as="points">
              <mxPoint x="1153" y="470" />
              <mxPoint x="1063" y="470" />
            </Array>
          </mxGeometry>
        </mxCell>
        <mxCell id="q8PgkN7288I6eQo9ATKC-16" style="edgeStyle=orthogonalEdgeStyle;rounded=0;orthogonalLoop=1;jettySize=auto;html=1;exitX=0.5;exitY=1;exitDx=0;exitDy=0;entryX=0;entryY=0.5;entryDx=0;entryDy=0;fontSize=13;fontFamily=Times New Roman;" edge="1" parent="VhYmj5SbwUfkiyhzha3f-1" source="VhYmj5SbwUfkiyhzha3f-88" target="VhYmj5SbwUfkiyhzha3f-94">
          <mxGeometry relative="1" as="geometry" />
        </mxCell>
        <mxCell id="m_aojjhjXqZ4AvZe1bNe-0" style="edgeStyle=orthogonalEdgeStyle;rounded=0;orthogonalLoop=1;jettySize=auto;html=1;exitX=0.5;exitY=1;exitDx=0;exitDy=0;entryX=0.5;entryY=0;entryDx=0;entryDy=0;fontSize=13;fontFamily=Times New Roman;" edge="1" parent="VhYmj5SbwUfkiyhzha3f-1" source="B7fvU5aiy1ezmYZJ-0We-0" target="q8PgkN7288I6eQo9ATKC-0">
          <mxGeometry relative="1" as="geometry" />
        </mxCell>
        <mxCell id="B7fvU5aiy1ezmYZJ-0We-0" value="&lt;b&gt;&lt;font style=&quot;color: rgb(0, 102, 0);&quot;&gt;Filesystem &amp;amp; Dataset Prep&lt;/font&gt;&lt;/b&gt;" style="swimlane;whiteSpace=wrap;html=1;fontSize=13;fontFamily=Times New Roman;" vertex="1" parent="VhYmj5SbwUfkiyhzha3f-1">
          <mxGeometry x="581.38" y="-50" width="312" height="25" as="geometry">
            <mxRectangle x="581.38" y="-50" width="236" height="31" as="alternateBounds" />
          </mxGeometry>
        </mxCell>
      </root>
    </mxGraphModel>
  </diagram>
  <diagram id="QbRtapXC2Vyzsi431B1t" name="Arc_Whole process">
    <mxGraphModel grid="1" page="1" gridSize="10" guides="1" tooltips="1" connect="1" arrows="1" fold="1" pageScale="1" pageWidth="850" pageHeight="1100" math="0" shadow="0">
      <root>
        <mxCell id="0" />
        <mxCell id="1" parent="0" />
        <mxCell id="5U8rOkalKp0oIuFyRgnU-1" value="" style="endArrow=none;html=1;rounded=0;fontFamily=Times New Roman;" edge="1" parent="1">
          <mxGeometry width="50" height="50" relative="1" as="geometry">
            <mxPoint x="50" y="780" as="sourcePoint" />
            <mxPoint x="50" y="80" as="targetPoint" />
          </mxGeometry>
        </mxCell>
        <mxCell id="5U8rOkalKp0oIuFyRgnU-2" value="" style="endArrow=none;html=1;rounded=0;fontFamily=Times New Roman;" edge="1" parent="1">
          <mxGeometry width="50" height="50" relative="1" as="geometry">
            <mxPoint x="240" y="780" as="sourcePoint" />
            <mxPoint x="240" y="80" as="targetPoint" />
          </mxGeometry>
        </mxCell>
        <mxCell id="5U8rOkalKp0oIuFyRgnU-3" value="" style="endArrow=none;html=1;rounded=0;fontFamily=Times New Roman;" edge="1" parent="1">
          <mxGeometry width="50" height="50" relative="1" as="geometry">
            <mxPoint x="424" y="780" as="sourcePoint" />
            <mxPoint x="424" y="80" as="targetPoint" />
          </mxGeometry>
        </mxCell>
        <mxCell id="5U8rOkalKp0oIuFyRgnU-4" value="" style="endArrow=none;html=1;rounded=0;fontFamily=Times New Roman;" edge="1" parent="1">
          <mxGeometry width="50" height="50" relative="1" as="geometry">
            <mxPoint x="628" y="780" as="sourcePoint" />
            <mxPoint x="628" y="80" as="targetPoint" />
          </mxGeometry>
        </mxCell>
        <mxCell id="5U8rOkalKp0oIuFyRgnU-5" value="" style="endArrow=none;html=1;rounded=0;fontFamily=Times New Roman;" edge="1" parent="1">
          <mxGeometry width="50" height="50" relative="1" as="geometry">
            <mxPoint x="750" y="780" as="sourcePoint" />
            <mxPoint x="750" y="80" as="targetPoint" />
          </mxGeometry>
        </mxCell>
        <mxCell id="5U8rOkalKp0oIuFyRgnU-6" value="&lt;font style=&quot;font-size: 12px;&quot;&gt;&lt;b style=&quot;&quot;&gt;Home Page&lt;/b&gt;&lt;/font&gt;" style="text;html=1;align=center;verticalAlign=middle;whiteSpace=wrap;rounded=0;fontFamily=Times New Roman;" vertex="1" parent="1">
          <mxGeometry x="105.5" y="80" width="100" height="30" as="geometry" />
        </mxCell>
        <mxCell id="5U8rOkalKp0oIuFyRgnU-7" value="&lt;font style=&quot;font-size: 12px;&quot;&gt;&lt;b style=&quot;&quot;&gt;Backend&lt;/b&gt;&lt;/font&gt;" style="text;html=1;align=center;verticalAlign=middle;resizable=0;points=[];autosize=1;strokeColor=none;fillColor=none;fontFamily=Times New Roman;" vertex="1" parent="1">
          <mxGeometry x="275" y="78" width="70" height="30" as="geometry" />
        </mxCell>
        <mxCell id="5U8rOkalKp0oIuFyRgnU-8" value="&lt;font style=&quot;font-size: 12px;&quot;&gt;&lt;b style=&quot;&quot;&gt;Comparison page&lt;/b&gt;&lt;/font&gt;" style="text;html=1;align=center;verticalAlign=middle;resizable=0;points=[];autosize=1;strokeColor=none;fillColor=none;fontFamily=Times New Roman;" vertex="1" parent="1">
          <mxGeometry x="465" y="78" width="110" height="30" as="geometry" />
        </mxCell>
        <mxCell id="5U8rOkalKp0oIuFyRgnU-9" value="&lt;font style=&quot;font-size: 12px;&quot;&gt;&lt;b style=&quot;&quot;&gt;Static page&lt;/b&gt;&lt;/font&gt;" style="text;html=1;align=center;verticalAlign=middle;resizable=0;points=[];autosize=1;strokeColor=none;fillColor=none;fontFamily=Times New Roman;" vertex="1" parent="1">
          <mxGeometry x="650" y="78" width="80" height="30" as="geometry" />
        </mxCell>
        <mxCell id="5U8rOkalKp0oIuFyRgnU-17" value="" style="edgeStyle=orthogonalEdgeStyle;rounded=0;orthogonalLoop=1;jettySize=auto;html=1;fontFamily=Times New Roman;" edge="1" parent="1" source="5U8rOkalKp0oIuFyRgnU-12" target="5U8rOkalKp0oIuFyRgnU-15">
          <mxGeometry relative="1" as="geometry" />
        </mxCell>
        <mxCell id="5U8rOkalKp0oIuFyRgnU-12" value="&lt;font style=&quot;font-size: 12px;&quot;&gt;&lt;b style=&quot;&quot;&gt;Upload Image&lt;/b&gt;&lt;/font&gt;" style="rounded=1;whiteSpace=wrap;html=1;fontFamily=Times New Roman;" vertex="1" parent="1">
          <mxGeometry x="95.5" y="160" width="120" height="18" as="geometry" />
        </mxCell>
        <mxCell id="Bb0ofuPosODx0pcwRz-u-5" value="" style="edgeStyle=orthogonalEdgeStyle;rounded=0;orthogonalLoop=1;jettySize=auto;html=1;entryX=-0.005;entryY=0.59;entryDx=0;entryDy=0;entryPerimeter=0;fontFamily=Times New Roman;" edge="1" parent="1" source="5U8rOkalKp0oIuFyRgnU-15" target="5U8rOkalKp0oIuFyRgnU-18">
          <mxGeometry relative="1" as="geometry" />
        </mxCell>
        <mxCell id="5U8rOkalKp0oIuFyRgnU-15" value="&lt;font style=&quot;font-size: 12px;&quot;&gt;&lt;b style=&quot;&quot;&gt;Send to Predict API&lt;/b&gt;&lt;/font&gt;" style="rounded=1;whiteSpace=wrap;html=1;fontFamily=Times New Roman;" vertex="1" parent="1">
          <mxGeometry x="93" y="200" width="125" height="40" as="geometry" />
        </mxCell>
        <mxCell id="5U8rOkalKp0oIuFyRgnU-21" value="" style="edgeStyle=orthogonalEdgeStyle;rounded=0;orthogonalLoop=1;jettySize=auto;html=1;fontFamily=Times New Roman;" edge="1" parent="1" source="5U8rOkalKp0oIuFyRgnU-18" target="5U8rOkalKp0oIuFyRgnU-20">
          <mxGeometry relative="1" as="geometry" />
        </mxCell>
        <mxCell id="5U8rOkalKp0oIuFyRgnU-18" value="&lt;font style=&quot;font-size: 12px;&quot;&gt;&lt;b style=&quot;&quot;&gt;Process Image&lt;/b&gt;&lt;/font&gt;" style="rounded=1;whiteSpace=wrap;html=1;fontFamily=Times New Roman;" vertex="1" parent="1">
          <mxGeometry x="270" y="190" width="140" height="27" as="geometry" />
        </mxCell>
        <mxCell id="5U8rOkalKp0oIuFyRgnU-23" value="" style="edgeStyle=orthogonalEdgeStyle;rounded=0;orthogonalLoop=1;jettySize=auto;html=1;fontFamily=Times New Roman;" edge="1" parent="1" source="5U8rOkalKp0oIuFyRgnU-20" target="5U8rOkalKp0oIuFyRgnU-22">
          <mxGeometry relative="1" as="geometry" />
        </mxCell>
        <mxCell id="5U8rOkalKp0oIuFyRgnU-20" value="&lt;font style=&quot;font-size: 12px;&quot;&gt;&lt;b style=&quot;&quot;&gt;Run Primary Classifier&lt;/b&gt;&lt;/font&gt;" style="whiteSpace=wrap;html=1;rounded=1;fontFamily=Times New Roman;" vertex="1" parent="1">
          <mxGeometry x="250" y="240" width="180" height="21" as="geometry" />
        </mxCell>
        <mxCell id="5U8rOkalKp0oIuFyRgnU-26" style="edgeStyle=orthogonalEdgeStyle;rounded=0;orthogonalLoop=1;jettySize=auto;html=1;entryX=1;entryY=0.5;entryDx=0;entryDy=0;fontFamily=Times New Roman;" edge="1" parent="1" source="5U8rOkalKp0oIuFyRgnU-22" target="5U8rOkalKp0oIuFyRgnU-24">
          <mxGeometry relative="1" as="geometry" />
        </mxCell>
        <mxCell id="5U8rOkalKp0oIuFyRgnU-22" value="&lt;font style=&quot;font-size: 12px;&quot;&gt;&lt;b style=&quot;&quot;&gt;Return Prediction&lt;/b&gt;&lt;/font&gt;" style="rounded=1;whiteSpace=wrap;html=1;fontFamily=Times New Roman;" vertex="1" parent="1">
          <mxGeometry x="280" y="280" width="120" height="40" as="geometry" />
        </mxCell>
        <mxCell id="5U8rOkalKp0oIuFyRgnU-28" value="" style="edgeStyle=orthogonalEdgeStyle;rounded=0;orthogonalLoop=1;jettySize=auto;html=1;fontFamily=Times New Roman;" edge="1" parent="1" source="5U8rOkalKp0oIuFyRgnU-24" target="5U8rOkalKp0oIuFyRgnU-27">
          <mxGeometry relative="1" as="geometry" />
        </mxCell>
        <mxCell id="5U8rOkalKp0oIuFyRgnU-24" value="&lt;div&gt;&lt;font style=&quot;font-size: 12px;&quot;&gt;&lt;b style=&quot;&quot;&gt;Show prediction&amp;nbsp;&lt;/b&gt;&lt;/font&gt;&lt;/div&gt;&lt;div&gt;&lt;font style=&quot;font-size: 12px;&quot;&gt;&lt;b style=&quot;&quot;&gt;(label + confidence)&lt;/b&gt;&lt;/font&gt;&lt;/div&gt;" style="rounded=1;whiteSpace=wrap;html=1;fontFamily=Times New Roman;" vertex="1" parent="1">
          <mxGeometry x="60" y="260" width="165.5" height="35" as="geometry" />
        </mxCell>
        <mxCell id="5U8rOkalKp0oIuFyRgnU-29" style="edgeStyle=orthogonalEdgeStyle;rounded=0;orthogonalLoop=1;jettySize=auto;html=1;entryX=0;entryY=0.5;entryDx=0;entryDy=0;fontFamily=Times New Roman;" edge="1" parent="1" source="5U8rOkalKp0oIuFyRgnU-27" target="5U8rOkalKp0oIuFyRgnU-31">
          <mxGeometry relative="1" as="geometry">
            <mxPoint x="400" y="360" as="targetPoint" />
            <Array as="points" />
          </mxGeometry>
        </mxCell>
        <mxCell id="5U8rOkalKp0oIuFyRgnU-33" style="edgeStyle=orthogonalEdgeStyle;rounded=0;orthogonalLoop=1;jettySize=auto;html=1;entryX=0;entryY=0.333;entryDx=0;entryDy=0;entryPerimeter=0;exitX=0.5;exitY=1;exitDx=0;exitDy=0;fontFamily=Times New Roman;" edge="1" parent="1" source="5U8rOkalKp0oIuFyRgnU-27" target="5U8rOkalKp0oIuFyRgnU-34">
          <mxGeometry relative="1" as="geometry">
            <mxPoint x="390" y="420" as="targetPoint" />
            <mxPoint x="155" y="390" as="sourcePoint" />
            <Array as="points">
              <mxPoint x="146" y="400" />
            </Array>
          </mxGeometry>
        </mxCell>
        <mxCell id="5U8rOkalKp0oIuFyRgnU-27" value="&lt;div&gt;&lt;font style=&quot;font-size: 12px;&quot;&gt;&lt;b style=&quot;&quot;&gt;Go to&amp;nbsp;&lt;/b&gt;&lt;/font&gt;&lt;/div&gt;&lt;div&gt;&lt;font style=&quot;font-size: 12px;&quot;&gt;&lt;b style=&quot;&quot;&gt;Comparison?&lt;/b&gt;&lt;/font&gt;&lt;/div&gt;" style="rhombus;whiteSpace=wrap;html=1;fontFamily=Times New Roman;" vertex="1" parent="1">
          <mxGeometry x="56.37" y="320" width="172.75" height="80" as="geometry" />
        </mxCell>
        <mxCell id="5U8rOkalKp0oIuFyRgnU-51" style="edgeStyle=orthogonalEdgeStyle;rounded=0;orthogonalLoop=1;jettySize=auto;html=1;entryX=1;entryY=0.5;entryDx=0;entryDy=0;fontFamily=Times New Roman;" edge="1" parent="1" source="5U8rOkalKp0oIuFyRgnU-31" target="5U8rOkalKp0oIuFyRgnU-50">
          <mxGeometry relative="1" as="geometry">
            <mxPoint x="575" y="990" as="targetPoint" />
            <Array as="points">
              <mxPoint x="590" y="656" />
              <mxPoint x="215" y="656" />
            </Array>
          </mxGeometry>
        </mxCell>
        <mxCell id="5U8rOkalKp0oIuFyRgnU-31" value="&lt;font style=&quot;font-size: 12px;&quot;&gt;&lt;b style=&quot;&quot;&gt;Stay on home&lt;/b&gt;&lt;/font&gt;" style="rounded=1;whiteSpace=wrap;html=1;fontFamily=Times New Roman;" vertex="1" parent="1">
          <mxGeometry x="480" y="350" width="120" height="20" as="geometry" />
        </mxCell>
        <mxCell id="5U8rOkalKp0oIuFyRgnU-32" value="&lt;font style=&quot;font-size: 12px;&quot;&gt;&lt;b style=&quot;&quot;&gt;No&lt;/b&gt;&lt;/font&gt;" style="text;html=1;align=center;verticalAlign=middle;resizable=0;points=[];autosize=1;strokeColor=none;fillColor=none;fontFamily=Times New Roman;" vertex="1" parent="1">
          <mxGeometry x="200" y="330" width="40" height="30" as="geometry" />
        </mxCell>
        <mxCell id="5U8rOkalKp0oIuFyRgnU-38" value="" style="edgeStyle=orthogonalEdgeStyle;rounded=0;orthogonalLoop=1;jettySize=auto;html=1;entryX=0.462;entryY=0.006;entryDx=0;entryDy=0;entryPerimeter=0;fontFamily=Times New Roman;" edge="1" parent="1" source="5U8rOkalKp0oIuFyRgnU-34" target="5U8rOkalKp0oIuFyRgnU-37">
          <mxGeometry relative="1" as="geometry" />
        </mxCell>
        <mxCell id="5U8rOkalKp0oIuFyRgnU-34" value="&lt;font style=&quot;font-size: 12px;&quot;&gt;&lt;b style=&quot;&quot;&gt;Upload Image&lt;/b&gt;&lt;/font&gt;" style="rounded=1;whiteSpace=wrap;html=1;fontFamily=Times New Roman;" vertex="1" parent="1">
          <mxGeometry x="430" y="390" width="120" height="30" as="geometry" />
        </mxCell>
        <mxCell id="5U8rOkalKp0oIuFyRgnU-35" value="&lt;font style=&quot;font-size: 12px;&quot;&gt;&lt;b style=&quot;&quot;&gt;Yes&lt;/b&gt;&lt;/font&gt;" style="text;html=1;align=center;verticalAlign=middle;resizable=0;points=[];autosize=1;strokeColor=none;fillColor=none;fontFamily=Times New Roman;" vertex="1" parent="1">
          <mxGeometry x="166.75" y="400" width="40" height="30" as="geometry" />
        </mxCell>
        <mxCell id="5U8rOkalKp0oIuFyRgnU-39" style="edgeStyle=orthogonalEdgeStyle;rounded=0;orthogonalLoop=1;jettySize=auto;html=1;fontFamily=Times New Roman;" edge="1" parent="1" source="5U8rOkalKp0oIuFyRgnU-37" target="5U8rOkalKp0oIuFyRgnU-40">
          <mxGeometry relative="1" as="geometry">
            <mxPoint x="280" y="620" as="targetPoint" />
          </mxGeometry>
        </mxCell>
        <mxCell id="5U8rOkalKp0oIuFyRgnU-37" value="&lt;font style=&quot;font-size: 12px;&quot;&gt;&lt;b style=&quot;&quot;&gt;Send to compare API&lt;/b&gt;&lt;/font&gt;" style="rounded=1;whiteSpace=wrap;html=1;fontFamily=Times New Roman;" vertex="1" parent="1">
          <mxGeometry x="430" y="440" width="130" height="50" as="geometry" />
        </mxCell>
        <mxCell id="5U8rOkalKp0oIuFyRgnU-42" value="" style="edgeStyle=orthogonalEdgeStyle;rounded=0;orthogonalLoop=1;jettySize=auto;html=1;fontFamily=Times New Roman;" edge="1" parent="1" source="5U8rOkalKp0oIuFyRgnU-40" target="5U8rOkalKp0oIuFyRgnU-41">
          <mxGeometry relative="1" as="geometry" />
        </mxCell>
        <mxCell id="5U8rOkalKp0oIuFyRgnU-40" value="&lt;font style=&quot;font-size: 12px;&quot;&gt;&lt;b style=&quot;&quot;&gt;Preprocess once&lt;/b&gt;&lt;/font&gt;" style="rounded=1;whiteSpace=wrap;html=1;fontFamily=Times New Roman;" vertex="1" parent="1">
          <mxGeometry x="250" y="440" width="140" height="30" as="geometry" />
        </mxCell>
        <mxCell id="5U8rOkalKp0oIuFyRgnU-44" value="" style="edgeStyle=orthogonalEdgeStyle;rounded=0;orthogonalLoop=1;jettySize=auto;html=1;fontFamily=Times New Roman;" edge="1" parent="1" source="5U8rOkalKp0oIuFyRgnU-41" target="5U8rOkalKp0oIuFyRgnU-43">
          <mxGeometry relative="1" as="geometry">
            <Array as="points">
              <mxPoint x="340" y="530" />
              <mxPoint x="340" y="530" />
            </Array>
          </mxGeometry>
        </mxCell>
        <mxCell id="5U8rOkalKp0oIuFyRgnU-41" value="&lt;font style=&quot;font-size: 12px;&quot;&gt;&lt;b style=&quot;&quot;&gt;Run Custom CNN&lt;/b&gt;&lt;/font&gt;" style="rounded=1;whiteSpace=wrap;html=1;fontFamily=Times New Roman;" vertex="1" parent="1">
          <mxGeometry x="245" y="490" width="150" height="30" as="geometry" />
        </mxCell>
        <mxCell id="5U8rOkalKp0oIuFyRgnU-46" value="" style="edgeStyle=orthogonalEdgeStyle;rounded=0;orthogonalLoop=1;jettySize=auto;html=1;fontFamily=Times New Roman;" edge="1" parent="1" source="5U8rOkalKp0oIuFyRgnU-43" target="5U8rOkalKp0oIuFyRgnU-45">
          <mxGeometry relative="1" as="geometry" />
        </mxCell>
        <mxCell id="5U8rOkalKp0oIuFyRgnU-43" value="&lt;font style=&quot;font-size: 12px;&quot;&gt;&lt;b style=&quot;&quot;&gt;Run Transfer learning&lt;/b&gt;&lt;/font&gt;" style="rounded=1;whiteSpace=wrap;html=1;fontFamily=Times New Roman;" vertex="1" parent="1">
          <mxGeometry x="242" y="539" width="180" height="30" as="geometry" />
        </mxCell>
        <mxCell id="5U8rOkalKp0oIuFyRgnU-48" value="" style="edgeStyle=orthogonalEdgeStyle;rounded=0;orthogonalLoop=1;jettySize=auto;html=1;fontFamily=Times New Roman;" edge="1" parent="1" source="5U8rOkalKp0oIuFyRgnU-45" target="5U8rOkalKp0oIuFyRgnU-47">
          <mxGeometry relative="1" as="geometry" />
        </mxCell>
        <mxCell id="5U8rOkalKp0oIuFyRgnU-45" value="&lt;font style=&quot;font-size: 12px;&quot;&gt;&lt;b style=&quot;&quot;&gt;return both result&lt;/b&gt;&lt;/font&gt;" style="rounded=1;whiteSpace=wrap;html=1;fontFamily=Times New Roman;" vertex="1" parent="1">
          <mxGeometry x="257" y="590" width="150" height="30" as="geometry" />
        </mxCell>
        <mxCell id="Bb0ofuPosODx0pcwRz-u-8" value="" style="edgeStyle=orthogonalEdgeStyle;rounded=0;orthogonalLoop=1;jettySize=auto;html=1;entryX=0.5;entryY=0;entryDx=0;entryDy=0;fontFamily=Times New Roman;" edge="1" parent="1" source="5U8rOkalKp0oIuFyRgnU-47" target="5U8rOkalKp0oIuFyRgnU-50">
          <mxGeometry relative="1" as="geometry">
            <mxPoint x="510" y="700" as="targetPoint" />
            <Array as="points">
              <mxPoint x="510" y="630" />
              <mxPoint x="195" y="630" />
            </Array>
          </mxGeometry>
        </mxCell>
        <mxCell id="5U8rOkalKp0oIuFyRgnU-47" value="&lt;font style=&quot;font-size: 12px;&quot;&gt;&lt;b style=&quot;&quot;&gt;Show side by side result&lt;/b&gt;&lt;/font&gt;" style="whiteSpace=wrap;html=1;rounded=1;fontFamily=Times New Roman;" vertex="1" parent="1">
          <mxGeometry x="460" y="580" width="90" height="40" as="geometry" />
        </mxCell>
        <mxCell id="5U8rOkalKp0oIuFyRgnU-54" style="edgeStyle=orthogonalEdgeStyle;rounded=0;orthogonalLoop=1;jettySize=auto;html=1;entryX=0;entryY=0.75;entryDx=0;entryDy=0;fontFamily=Times New Roman;" edge="1" parent="1" source="5U8rOkalKp0oIuFyRgnU-50" target="5U8rOkalKp0oIuFyRgnU-53">
          <mxGeometry relative="1" as="geometry">
            <Array as="points">
              <mxPoint x="195" y="680" />
              <mxPoint x="590" y="680" />
              <mxPoint x="590" y="670" />
            </Array>
            <mxPoint x="610" y="660" as="targetPoint" />
          </mxGeometry>
        </mxCell>
        <mxCell id="5U8rOkalKp0oIuFyRgnU-50" value="" style="rhombus;whiteSpace=wrap;html=1;fontFamily=Times New Roman;" vertex="1" parent="1">
          <mxGeometry x="175" y="640" width="40" height="31" as="geometry" />
        </mxCell>
        <mxCell id="5U8rOkalKp0oIuFyRgnU-56" value="" style="edgeStyle=orthogonalEdgeStyle;rounded=0;orthogonalLoop=1;jettySize=auto;html=1;fontFamily=Times New Roman;" edge="1" parent="1" source="5U8rOkalKp0oIuFyRgnU-53" target="5U8rOkalKp0oIuFyRgnU-55">
          <mxGeometry relative="1" as="geometry" />
        </mxCell>
        <mxCell id="5U8rOkalKp0oIuFyRgnU-53" value="&lt;font style=&quot;font-size: 12px;&quot;&gt;&lt;b style=&quot;&quot;&gt;Contact Us Page&lt;/b&gt;&lt;/font&gt;" style="rounded=1;whiteSpace=wrap;html=1;fontFamily=Times New Roman;" vertex="1" parent="1">
          <mxGeometry x="642" y="640" width="100" height="40" as="geometry" />
        </mxCell>
        <mxCell id="5U8rOkalKp0oIuFyRgnU-58" value="" style="edgeStyle=orthogonalEdgeStyle;rounded=0;orthogonalLoop=1;jettySize=auto;html=1;fontFamily=Times New Roman;" edge="1" parent="1" source="5U8rOkalKp0oIuFyRgnU-55" target="5U8rOkalKp0oIuFyRgnU-57">
          <mxGeometry relative="1" as="geometry" />
        </mxCell>
        <mxCell id="5U8rOkalKp0oIuFyRgnU-55" value="&lt;b style=&quot;&quot;&gt;&lt;font style=&quot;font-size: 12px;&quot;&gt;FAQ&lt;/font&gt;&lt;font&gt; Page&lt;/font&gt;&lt;/b&gt;" style="rounded=1;whiteSpace=wrap;html=1;fontFamily=Times New Roman;" vertex="1" parent="1">
          <mxGeometry x="642" y="700" width="100" height="20" as="geometry" />
        </mxCell>
        <mxCell id="5U8rOkalKp0oIuFyRgnU-57" value="" style="ellipse;html=1;shape=endState;fillColor=#000000;strokeColor=#ff0000;fontFamily=Times New Roman;" vertex="1" parent="1">
          <mxGeometry x="677" y="740" width="30" height="30" as="geometry" />
        </mxCell>
        <mxCell id="Bb0ofuPosODx0pcwRz-u-2" value="" style="edgeStyle=orthogonalEdgeStyle;rounded=0;orthogonalLoop=1;jettySize=auto;html=1;entryX=0.5;entryY=0;entryDx=0;entryDy=0;fontFamily=Times New Roman;" edge="1" parent="1" source="LJFHfKKzgiI6dZsoVkI3-1" target="5U8rOkalKp0oIuFyRgnU-12">
          <mxGeometry relative="1" as="geometry" />
        </mxCell>
        <mxCell id="LJFHfKKzgiI6dZsoVkI3-1" value="" style="strokeWidth=2;html=1;shape=mxgraph.flowchart.start_2;whiteSpace=wrap;fontFamily=Times New Roman;" vertex="1" parent="1">
          <mxGeometry x="144.25" y="110" width="22.5" height="22" as="geometry" />
        </mxCell>
      </root>
    </mxGraphModel>
  </diagram>
  <diagram id="G8VxxCXLDMHb4XDjpjDA" name="Deep learning Based waste management">
    <mxGraphModel grid="1" page="1" gridSize="10" guides="1" tooltips="1" connect="1" arrows="1" fold="1" pageScale="1" pageWidth="850" pageHeight="1100" math="0" shadow="0">
      <root>
        <mxCell id="0" />
        <mxCell id="1" parent="0" />
        <mxCell id="i9okOGwGgpGgI1GSXh-u-3" value="" style="edgeStyle=orthogonalEdgeStyle;rounded=0;orthogonalLoop=1;jettySize=auto;html=1;fontFamily=Times New Roman;fontSize=12;" edge="1" parent="1" source="i9okOGwGgpGgI1GSXh-u-1" target="i9okOGwGgpGgI1GSXh-u-2">
          <mxGeometry relative="1" as="geometry">
            <Array as="points">
              <mxPoint x="425" y="120" />
              <mxPoint x="425" y="120" />
            </Array>
          </mxGeometry>
        </mxCell>
        <mxCell id="i9okOGwGgpGgI1GSXh-u-1" value="" style="strokeWidth=2;html=1;shape=mxgraph.flowchart.start_2;whiteSpace=wrap;fontFamily=Times New Roman;fontSize=12;" vertex="1" parent="1">
          <mxGeometry x="410" y="60" width="30" height="30" as="geometry" />
        </mxCell>
        <mxCell id="i9okOGwGgpGgI1GSXh-u-5" value="" style="edgeStyle=orthogonalEdgeStyle;rounded=0;orthogonalLoop=1;jettySize=auto;html=1;fontFamily=Times New Roman;fontSize=12;" edge="1" parent="1" source="i9okOGwGgpGgI1GSXh-u-2" target="i9okOGwGgpGgI1GSXh-u-4">
          <mxGeometry relative="1" as="geometry">
            <Array as="points">
              <mxPoint x="425" y="160" />
              <mxPoint x="425" y="160" />
            </Array>
          </mxGeometry>
        </mxCell>
        <mxCell id="i9okOGwGgpGgI1GSXh-u-2" value="&lt;font&gt;&lt;b&gt;Waste Image Acquisition&lt;/b&gt;&lt;/font&gt;" style="rounded=1;whiteSpace=wrap;html=1;fontFamily=Times New Roman;fontSize=12;" vertex="1" parent="1">
          <mxGeometry x="330" y="110" width="180" height="40" as="geometry" />
        </mxCell>
        <mxCell id="i9okOGwGgpGgI1GSXh-u-9" value="" style="edgeStyle=orthogonalEdgeStyle;rounded=0;orthogonalLoop=1;jettySize=auto;html=1;fontFamily=Times New Roman;fontSize=12;" edge="1" parent="1" source="i9okOGwGgpGgI1GSXh-u-4" target="i9okOGwGgpGgI1GSXh-u-8">
          <mxGeometry relative="1" as="geometry">
            <Array as="points">
              <mxPoint x="424" y="220" />
              <mxPoint x="424" y="220" />
            </Array>
          </mxGeometry>
        </mxCell>
        <mxCell id="i9okOGwGgpGgI1GSXh-u-4" value="&lt;font&gt;&lt;b&gt;Data Preprocessing&lt;/b&gt;&lt;/font&gt;" style="rounded=1;whiteSpace=wrap;html=1;fontFamily=Times New Roman;fontSize=12;" vertex="1" parent="1">
          <mxGeometry x="330" y="170" width="180" height="40" as="geometry" />
        </mxCell>
        <mxCell id="i9okOGwGgpGgI1GSXh-u-6" value="&lt;div style=&quot;line-height: 70%;&quot;&gt;&lt;div style=&quot;line-height: 140%;&quot;&gt;&lt;font&gt;&lt;font style=&quot;line-height: 140%;&quot;&gt;&lt;b&gt;Capture images from datasets (&lt;/b&gt;&lt;/font&gt;&lt;b style=&quot;background-color: transparent; color: light-dark(rgb(0, 0, 0), rgb(255, 255, 255)); line-height: 140%;&quot;&gt;Incinerable, Recyclable, Hazardous)&lt;/b&gt;&lt;/font&gt;&lt;/div&gt;&lt;/div&gt;" style="shape=note;whiteSpace=wrap;html=1;backgroundOutline=1;darkOpacity=0.05;rotation=0;fillColor=#FFF2CC;size=0;fontFamily=Times New Roman;fontSize=12;" vertex="1" parent="1">
          <mxGeometry x="513.75" y="105" width="290" height="50" as="geometry" />
        </mxCell>
        <mxCell id="i9okOGwGgpGgI1GSXh-u-7" value="&lt;div&gt;&lt;font&gt;&lt;font&gt;&lt;b&gt;Resize,&amp;nbsp;&lt;/b&gt;&lt;/font&gt;&lt;font style=&quot;background-color: transparent; color: light-dark(rgb(0, 0, 0), rgb(255, 255, 255));&quot;&gt;&lt;b&gt;Normalize,&amp;nbsp;&lt;/b&gt;&lt;/font&gt;&lt;b style=&quot;background-color: transparent; color: light-dark(rgb(0, 0, 0), rgb(255, 255, 255));&quot;&gt;Data augmentation&amp;nbsp;&lt;/b&gt;&lt;/font&gt;&lt;/div&gt;" style="shape=note;whiteSpace=wrap;html=1;backgroundOutline=1;darkOpacity=0.05;rotation=0;fillColor=#FFF2CC;size=0;fontFamily=Times New Roman;fontSize=12;" vertex="1" parent="1">
          <mxGeometry x="513.75" y="170" width="190" height="40" as="geometry" />
        </mxCell>
        <mxCell id="i9okOGwGgpGgI1GSXh-u-12" value="" style="edgeStyle=orthogonalEdgeStyle;rounded=0;orthogonalLoop=1;jettySize=auto;html=1;fontFamily=Times New Roman;fontSize=12;" edge="1" parent="1" source="i9okOGwGgpGgI1GSXh-u-8" target="i9okOGwGgpGgI1GSXh-u-11">
          <mxGeometry relative="1" as="geometry" />
        </mxCell>
        <mxCell id="i9okOGwGgpGgI1GSXh-u-8" value="&lt;font&gt;&lt;b&gt;Train Multiple&amp;nbsp;deep learning models&lt;/b&gt;&lt;/font&gt;" style="whiteSpace=wrap;html=1;rounded=1;fontFamily=Times New Roman;fontSize=12;" vertex="1" parent="1">
          <mxGeometry x="329.25" y="232" width="190" height="50" as="geometry" />
        </mxCell>
        <mxCell id="i9okOGwGgpGgI1GSXh-u-10" value="&lt;font&gt;&lt;b&gt;Any Pretrained model&lt;/b&gt;&lt;/font&gt;" style="shape=note;whiteSpace=wrap;html=1;backgroundOutline=1;darkOpacity=0.05;rotation=0;fillColor=#FFF2CC;size=0;fontFamily=Times New Roman;fontSize=12;" vertex="1" parent="1">
          <mxGeometry x="523.75" y="241" width="170" height="32" as="geometry" />
        </mxCell>
        <mxCell id="i9okOGwGgpGgI1GSXh-u-14" value="" style="edgeStyle=orthogonalEdgeStyle;rounded=0;orthogonalLoop=1;jettySize=auto;html=1;fontFamily=Times New Roman;fontSize=12;" edge="1" parent="1" source="i9okOGwGgpGgI1GSXh-u-11" target="i9okOGwGgpGgI1GSXh-u-13">
          <mxGeometry relative="1" as="geometry" />
        </mxCell>
        <mxCell id="i9okOGwGgpGgI1GSXh-u-11" value="&lt;font&gt;&lt;b&gt;Select Best-Performing Model&lt;/b&gt;&lt;/font&gt;" style="whiteSpace=wrap;html=1;rounded=1;fontFamily=Times New Roman;fontSize=12;" vertex="1" parent="1">
          <mxGeometry x="329" y="310" width="190" height="50" as="geometry" />
        </mxCell>
        <mxCell id="i9okOGwGgpGgI1GSXh-u-16" value="" style="edgeStyle=orthogonalEdgeStyle;rounded=0;orthogonalLoop=1;jettySize=auto;html=1;exitX=0.5;exitY=1;exitDx=0;exitDy=0;entryX=0.5;entryY=0;entryDx=0;entryDy=0;fontFamily=Times New Roman;fontSize=12;" edge="1" parent="1" source="i9okOGwGgpGgI1GSXh-u-13" target="i9okOGwGgpGgI1GSXh-u-15">
          <mxGeometry relative="1" as="geometry">
            <Array as="points">
              <mxPoint x="424" y="430" />
              <mxPoint x="424" y="430" />
            </Array>
          </mxGeometry>
        </mxCell>
        <mxCell id="i9okOGwGgpGgI1GSXh-u-13" value="&lt;font&gt;&lt;b&gt;Input Waste Image to Model&lt;/b&gt;&lt;/font&gt;" style="whiteSpace=wrap;html=1;rounded=1;fontFamily=Times New Roman;fontSize=12;" vertex="1" parent="1">
          <mxGeometry x="329" y="390" width="190" height="40" as="geometry" />
        </mxCell>
        <mxCell id="i9okOGwGgpGgI1GSXh-u-24" value="" style="edgeStyle=orthogonalEdgeStyle;rounded=0;orthogonalLoop=1;jettySize=auto;html=1;fontFamily=Times New Roman;fontSize=12;" edge="1" parent="1" source="i9okOGwGgpGgI1GSXh-u-15" target="i9okOGwGgpGgI1GSXh-u-17">
          <mxGeometry relative="1" as="geometry" />
        </mxCell>
        <mxCell id="i9okOGwGgpGgI1GSXh-u-26" value="" style="edgeStyle=orthogonalEdgeStyle;rounded=0;orthogonalLoop=1;jettySize=auto;html=1;fontFamily=Times New Roman;fontSize=12;" edge="1" parent="1" source="i9okOGwGgpGgI1GSXh-u-15" target="i9okOGwGgpGgI1GSXh-u-25">
          <mxGeometry relative="1" as="geometry" />
        </mxCell>
        <mxCell id="i9okOGwGgpGgI1GSXh-u-15" value="&lt;font&gt;&lt;b&gt;Predicted Category Incinerable?&lt;/b&gt;&lt;/font&gt;" style="rhombus;whiteSpace=wrap;html=1;fontFamily=Times New Roman;fontSize=12;" vertex="1" parent="1">
          <mxGeometry x="355" y="460" width="137.5" height="140" as="geometry" />
        </mxCell>
        <mxCell id="i9okOGwGgpGgI1GSXh-u-38" value="" style="edgeStyle=orthogonalEdgeStyle;rounded=0;orthogonalLoop=1;jettySize=auto;html=1;fontFamily=Times New Roman;fontSize=12;" edge="1" parent="1" source="i9okOGwGgpGgI1GSXh-u-17" target="i9okOGwGgpGgI1GSXh-u-37">
          <mxGeometry relative="1" as="geometry" />
        </mxCell>
        <mxCell id="i9okOGwGgpGgI1GSXh-u-17" value="&lt;font&gt;&lt;b&gt;Send to Incineration Feedstock Unit&lt;/b&gt;&lt;/font&gt;" style="rounded=1;whiteSpace=wrap;html=1;fontFamily=Times New Roman;fontSize=12;" vertex="1" parent="1">
          <mxGeometry x="110" y="506" width="210" height="48" as="geometry" />
        </mxCell>
        <mxCell id="i9okOGwGgpGgI1GSXh-u-19" value="&lt;b&gt;&lt;font&gt;Yes&lt;/font&gt;&lt;/b&gt;" style="text;html=1;align=center;verticalAlign=middle;resizable=0;points=[];autosize=1;strokeColor=none;fillColor=none;fontFamily=Times New Roman;fontSize=12;" vertex="1" parent="1">
          <mxGeometry x="320" y="500" width="40" height="30" as="geometry" />
        </mxCell>
        <mxCell id="i9okOGwGgpGgI1GSXh-u-31" value="" style="edgeStyle=orthogonalEdgeStyle;rounded=0;orthogonalLoop=1;jettySize=auto;html=1;fontFamily=Times New Roman;fontSize=12;" edge="1" parent="1" source="i9okOGwGgpGgI1GSXh-u-25" target="i9okOGwGgpGgI1GSXh-u-30">
          <mxGeometry relative="1" as="geometry" />
        </mxCell>
        <mxCell id="i9okOGwGgpGgI1GSXh-u-35" value="" style="edgeStyle=orthogonalEdgeStyle;rounded=0;orthogonalLoop=1;jettySize=auto;html=1;fontFamily=Times New Roman;fontSize=12;" edge="1" parent="1" source="i9okOGwGgpGgI1GSXh-u-25" target="i9okOGwGgpGgI1GSXh-u-34">
          <mxGeometry relative="1" as="geometry" />
        </mxCell>
        <mxCell id="i9okOGwGgpGgI1GSXh-u-25" value="&lt;div&gt;&lt;font&gt;&lt;b&gt;Predicted Category&amp;nbsp;&lt;/b&gt;&lt;/font&gt;&lt;/div&gt;&lt;div&gt;&lt;b style=&quot;background-color: transparent; color: light-dark(rgb(0, 0, 0), rgb(255, 255, 255));&quot;&gt;&lt;font&gt;Recyclable?&lt;/font&gt;&lt;/b&gt;&lt;/div&gt;" style="rhombus;whiteSpace=wrap;html=1;fontFamily=Times New Roman;fontSize=12;" vertex="1" parent="1">
          <mxGeometry x="511.25" y="466" width="180" height="128" as="geometry" />
        </mxCell>
        <mxCell id="i9okOGwGgpGgI1GSXh-u-27" value="&lt;b&gt;&lt;font&gt;No&lt;/font&gt;&lt;/b&gt;" style="text;html=1;align=center;verticalAlign=middle;resizable=0;points=[];autosize=1;strokeColor=none;fillColor=none;fontFamily=Times New Roman;fontSize=12;" vertex="1" parent="1">
          <mxGeometry x="480" y="500" width="40" height="30" as="geometry" />
        </mxCell>
        <mxCell id="iZ8bgysTYThu2WmmpD8d-8" value="" style="edgeStyle=orthogonalEdgeStyle;rounded=0;orthogonalLoop=1;jettySize=auto;html=1;entryX=0.5;entryY=0;entryDx=0;entryDy=0;fontFamily=Times New Roman;fontSize=12;" edge="1" parent="1" source="i9okOGwGgpGgI1GSXh-u-30" target="i9okOGwGgpGgI1GSXh-u-47">
          <mxGeometry relative="1" as="geometry">
            <mxPoint x="601.25" y="740" as="targetPoint" />
          </mxGeometry>
        </mxCell>
        <mxCell id="i9okOGwGgpGgI1GSXh-u-30" value="&lt;font&gt;&lt;b&gt;Send to Material Recovery Facility&lt;/b&gt;&lt;/font&gt;" style="rounded=1;whiteSpace=wrap;html=1;fontFamily=Times New Roman;fontSize=12;" vertex="1" parent="1">
          <mxGeometry x="528.75" y="620" width="145" height="40" as="geometry" />
        </mxCell>
        <mxCell id="i9okOGwGgpGgI1GSXh-u-32" value="&lt;b&gt;&lt;font&gt;Yes&lt;/font&gt;&lt;/b&gt;" style="text;html=1;align=center;verticalAlign=middle;resizable=0;points=[];autosize=1;strokeColor=none;fillColor=none;fontFamily=Times New Roman;fontSize=12;" vertex="1" parent="1">
          <mxGeometry x="540" y="590" width="40" height="30" as="geometry" />
        </mxCell>
        <mxCell id="iZ8bgysTYThu2WmmpD8d-14" value="" style="edgeStyle=orthogonalEdgeStyle;rounded=0;orthogonalLoop=1;jettySize=auto;html=1;entryX=1;entryY=0.5;entryDx=0;entryDy=0;fontFamily=Times New Roman;fontSize=12;" edge="1" parent="1" source="i9okOGwGgpGgI1GSXh-u-34" target="i9okOGwGgpGgI1GSXh-u-47">
          <mxGeometry relative="1" as="geometry">
            <mxPoint x="820" y="617" as="targetPoint" />
            <Array as="points">
              <mxPoint x="820" y="710" />
            </Array>
          </mxGeometry>
        </mxCell>
        <mxCell id="i9okOGwGgpGgI1GSXh-u-34" value="&lt;font&gt;&lt;b&gt;Send to Special Treatment/Disposal&lt;/b&gt;&lt;/font&gt;" style="rounded=1;whiteSpace=wrap;html=1;fontFamily=Times New Roman;fontSize=12;" vertex="1" parent="1">
          <mxGeometry x="730" y="505.5" width="160" height="49" as="geometry" />
        </mxCell>
        <mxCell id="i9okOGwGgpGgI1GSXh-u-36" value="&lt;b&gt;&lt;font&gt;No&lt;/font&gt;&lt;/b&gt;" style="text;html=1;align=center;verticalAlign=middle;resizable=0;points=[];autosize=1;strokeColor=none;fillColor=none;fontFamily=Times New Roman;fontSize=12;" vertex="1" parent="1">
          <mxGeometry x="690" y="500" width="40" height="30" as="geometry" />
        </mxCell>
        <mxCell id="i9okOGwGgpGgI1GSXh-u-40" value="" style="edgeStyle=orthogonalEdgeStyle;rounded=0;orthogonalLoop=1;jettySize=auto;html=1;fontFamily=Times New Roman;fontSize=12;" edge="1" parent="1" source="i9okOGwGgpGgI1GSXh-u-37" target="i9okOGwGgpGgI1GSXh-u-39">
          <mxGeometry relative="1" as="geometry" />
        </mxCell>
        <mxCell id="i9okOGwGgpGgI1GSXh-u-37" value="&lt;font&gt;&lt;b&gt;Combustion in Incinerator&lt;/b&gt;&lt;/font&gt;" style="rounded=1;whiteSpace=wrap;html=1;fontFamily=Times New Roman;fontSize=12;" vertex="1" parent="1">
          <mxGeometry x="140.5" y="578" width="149" height="42" as="geometry" />
        </mxCell>
        <mxCell id="iZ8bgysTYThu2WmmpD8d-12" value="" style="edgeStyle=orthogonalEdgeStyle;rounded=0;orthogonalLoop=1;jettySize=auto;html=1;entryX=0;entryY=0.5;entryDx=0;entryDy=0;fontFamily=Times New Roman;fontSize=12;" edge="1" parent="1" source="i9okOGwGgpGgI1GSXh-u-39" target="i9okOGwGgpGgI1GSXh-u-47">
          <mxGeometry relative="1" as="geometry">
            <mxPoint x="215" y="757" as="targetPoint" />
            <Array as="points">
              <mxPoint x="215" y="710" />
            </Array>
          </mxGeometry>
        </mxCell>
        <mxCell id="i9okOGwGgpGgI1GSXh-u-39" value="&lt;font&gt;&lt;b&gt;Energy Recovery (Electricity/Heat)&lt;/b&gt;&lt;/font&gt;" style="rounded=1;whiteSpace=wrap;html=1;fontFamily=Times New Roman;fontSize=12;" vertex="1" parent="1">
          <mxGeometry x="115" y="650" width="200" height="38" as="geometry" />
        </mxCell>
        <mxCell id="i9okOGwGgpGgI1GSXh-u-51" value="" style="edgeStyle=orthogonalEdgeStyle;rounded=0;orthogonalLoop=1;jettySize=auto;html=1;fontFamily=Times New Roman;fontSize=12;" edge="1" parent="1" source="i9okOGwGgpGgI1GSXh-u-47" target="i9okOGwGgpGgI1GSXh-u-49">
          <mxGeometry relative="1" as="geometry" />
        </mxCell>
        <mxCell id="i9okOGwGgpGgI1GSXh-u-47" value="&lt;font&gt;&lt;b&gt;Record Data for Future Model Improvement&lt;/b&gt;&lt;/font&gt;" style="rounded=1;whiteSpace=wrap;html=1;fontFamily=Times New Roman;fontSize=12;" vertex="1" parent="1">
          <mxGeometry x="462.75" y="685" width="277" height="50" as="geometry" />
        </mxCell>
        <mxCell id="i9okOGwGgpGgI1GSXh-u-49" value="" style="shape=image;html=1;verticalAlign=top;verticalLabelPosition=bottom;labelBackgroundColor=#ffffff;imageAspect=0;aspect=fixed;image=https://icons.diagrams.net/icon-cache1/CSS_Vol_2-2665/play-stop-o-565.svg;fontFamily=Times New Roman;fontSize=12;" vertex="1" parent="1">
          <mxGeometry x="587.1300000000001" y="760" width="28.25" height="28.25" as="geometry" />
        </mxCell>
      </root>
    </mxGraphModel>
  </diagram>
  <diagram id="0PJlzci0GN_MwQ-bSeKt" name="file ">
    <mxGraphModel grid="1" page="1" gridSize="10" guides="1" tooltips="1" connect="1" arrows="1" fold="1" pageScale="1" pageWidth="850" pageHeight="1100" math="0" shadow="0">
      <root>
        <mxCell id="0" />
        <mxCell id="1" parent="0" />
        <mxCell id="Np66jQosyBjR5a3h17A0-1" value="&lt;b&gt;&lt;font face=&quot;Times New Roman&quot; style=&quot;color: rgb(0, 102, 0); font-size: 12px;&quot;&gt;Filesystem &amp;amp; Dataset Prep&lt;/font&gt;&lt;/b&gt;" style="swimlane;whiteSpace=wrap;html=1;fontSize=13;" vertex="1" parent="1">
          <mxGeometry x="110" y="260" width="840" height="570" as="geometry" />
        </mxCell>
        <mxCell id="Np66jQosyBjR5a3h17A0-2" value="" style="edgeStyle=none;curved=1;rounded=0;orthogonalLoop=1;jettySize=auto;html=1;fontSize=13;startSize=8;endSize=8;" edge="1" parent="Np66jQosyBjR5a3h17A0-1" source="Np66jQosyBjR5a3h17A0-3" target="Np66jQosyBjR5a3h17A0-5">
          <mxGeometry relative="1" as="geometry" />
        </mxCell>
        <mxCell id="Np66jQosyBjR5a3h17A0-3" value="&lt;font face=&quot;Times New Roman&quot; style=&quot;font-size: 12px;&quot;&gt;&lt;b style=&quot;&quot;&gt;Set dataset dir&lt;/b&gt;&lt;/font&gt;" style="rounded=1;whiteSpace=wrap;html=1;fontSize=13;" vertex="1" parent="Np66jQosyBjR5a3h17A0-1">
          <mxGeometry x="188.75" y="51" width="118.5" height="22" as="geometry" />
        </mxCell>
        <mxCell id="Np66jQosyBjR5a3h17A0-4" style="edgeStyle=none;curved=1;rounded=0;orthogonalLoop=1;jettySize=auto;html=1;fontSize=13;startSize=8;endSize=8;" edge="1" parent="Np66jQosyBjR5a3h17A0-1" source="Np66jQosyBjR5a3h17A0-5">
          <mxGeometry relative="1" as="geometry">
            <mxPoint x="246.5" y="133.80001831054688" as="targetPoint" />
          </mxGeometry>
        </mxCell>
        <mxCell id="Np66jQosyBjR5a3h17A0-5" value="&lt;font face=&quot;Times New Roman&quot; style=&quot;font-size: 12px;&quot;&gt;&lt;b style=&quot;&quot;&gt;Set writable dir&lt;/b&gt;&lt;/font&gt;" style="rounded=1;whiteSpace=wrap;html=1;fontSize=13;" vertex="1" parent="Np66jQosyBjR5a3h17A0-1">
          <mxGeometry x="186.75" y="90" width="121.25" height="25" as="geometry" />
        </mxCell>
        <mxCell id="Np66jQosyBjR5a3h17A0-6" value="" style="edgeStyle=none;curved=1;rounded=0;orthogonalLoop=1;jettySize=auto;html=1;fontSize=13;startSize=8;endSize=8;" edge="1" parent="Np66jQosyBjR5a3h17A0-1" source="Np66jQosyBjR5a3h17A0-7" target="Np66jQosyBjR5a3h17A0-9">
          <mxGeometry relative="1" as="geometry" />
        </mxCell>
        <mxCell id="Np66jQosyBjR5a3h17A0-7" value="&lt;font face=&quot;Times New Roman&quot; style=&quot;font-size: 12px;&quot;&gt;&lt;b style=&quot;&quot;&gt;Copy dataset to writable dir&lt;/b&gt;&lt;/font&gt;" style="rounded=1;whiteSpace=wrap;html=1;fontSize=13;" vertex="1" parent="Np66jQosyBjR5a3h17A0-1">
          <mxGeometry x="135" y="136" width="220" height="27" as="geometry" />
        </mxCell>
        <mxCell id="Np66jQosyBjR5a3h17A0-8" value="" style="edgeStyle=none;curved=1;rounded=0;orthogonalLoop=1;jettySize=auto;html=1;fontSize=13;startSize=8;endSize=8;" edge="1" parent="Np66jQosyBjR5a3h17A0-1" source="Np66jQosyBjR5a3h17A0-9" target="Np66jQosyBjR5a3h17A0-11">
          <mxGeometry relative="1" as="geometry" />
        </mxCell>
        <mxCell id="Np66jQosyBjR5a3h17A0-9" value="&lt;font face=&quot;Times New Roman&quot; style=&quot;font-size: 12px;&quot;&gt;&lt;b style=&quot;&quot;&gt;dir exists?&lt;/b&gt;&lt;/font&gt;" style="rhombus;whiteSpace=wrap;html=1;fontSize=13;" vertex="1" parent="Np66jQosyBjR5a3h17A0-1">
          <mxGeometry x="209.5" y="188" width="74" height="54" as="geometry" />
        </mxCell>
        <mxCell id="Np66jQosyBjR5a3h17A0-10" value="" style="edgeStyle=none;curved=1;rounded=0;orthogonalLoop=1;jettySize=auto;html=1;fontSize=13;startSize=8;endSize=8;" edge="1" parent="Np66jQosyBjR5a3h17A0-1" source="Np66jQosyBjR5a3h17A0-11" target="Np66jQosyBjR5a3h17A0-13">
          <mxGeometry relative="1" as="geometry" />
        </mxCell>
        <mxCell id="Np66jQosyBjR5a3h17A0-11" value="&lt;font face=&quot;Times New Roman&quot; style=&quot;font-size: 12px;&quot;&gt;If not exists → make dir&lt;/font&gt;" style="rounded=1;whiteSpace=wrap;html=1;fontSize=13;" vertex="1" parent="Np66jQosyBjR5a3h17A0-1">
          <mxGeometry x="187.38" y="272" width="120" height="42" as="geometry" />
        </mxCell>
        <mxCell id="JbFC16i8YJRmVC-fFJsM-14" value="" style="edgeStyle=orthogonalEdgeStyle;rounded=0;orthogonalLoop=1;jettySize=auto;html=1;" edge="1" parent="Np66jQosyBjR5a3h17A0-1" source="Np66jQosyBjR5a3h17A0-13" target="Np66jQosyBjR5a3h17A0-17">
          <mxGeometry relative="1" as="geometry" />
        </mxCell>
        <mxCell id="Np66jQosyBjR5a3h17A0-13" value="" style="rhombus;whiteSpace=wrap;html=1;fontSize=13;" vertex="1" parent="Np66jQosyBjR5a3h17A0-1">
          <mxGeometry x="232.5" y="335.5" width="29.75" height="30" as="geometry" />
        </mxCell>
        <mxCell id="Np66jQosyBjR5a3h17A0-14" value="&lt;b&gt;&lt;font face=&quot;Times New Roman&quot; style=&quot;font-size: 12px;&quot;&gt;no&lt;/font&gt;&lt;/b&gt;" style="text;html=1;align=center;verticalAlign=middle;whiteSpace=wrap;rounded=0;fontSize=13;" vertex="1" parent="Np66jQosyBjR5a3h17A0-1">
          <mxGeometry x="247.25" y="242" width="60" height="30" as="geometry" />
        </mxCell>
        <mxCell id="Np66jQosyBjR5a3h17A0-15" value="&lt;b&gt;&lt;font face=&quot;Times New Roman&quot; style=&quot;font-size: 12px;&quot;&gt;yes&lt;/font&gt;&lt;/b&gt;" style="text;html=1;align=center;verticalAlign=middle;whiteSpace=wrap;rounded=0;fontSize=13;" vertex="1" parent="Np66jQosyBjR5a3h17A0-1">
          <mxGeometry x="146" y="188" width="60" height="30" as="geometry" />
        </mxCell>
        <mxCell id="Np66jQosyBjR5a3h17A0-16" style="edgeStyle=orthogonalEdgeStyle;rounded=0;orthogonalLoop=1;jettySize=auto;html=1;exitX=0.5;exitY=1;exitDx=0;exitDy=0;entryX=0.5;entryY=0;entryDx=0;entryDy=0;fontSize=13;" edge="1" parent="Np66jQosyBjR5a3h17A0-1" source="Np66jQosyBjR5a3h17A0-17" target="Np66jQosyBjR5a3h17A0-19">
          <mxGeometry relative="1" as="geometry" />
        </mxCell>
        <mxCell id="Np66jQosyBjR5a3h17A0-17" value="&lt;font style=&quot;&quot;&gt;&lt;font face=&quot;Times New Roman&quot; style=&quot;font-size: 12px;&quot;&gt;shutil.copytree(src, dst)&lt;/font&gt;&lt;br&gt;&lt;/font&gt;" style="rounded=1;whiteSpace=wrap;html=1;fontSize=13;" vertex="1" parent="Np66jQosyBjR5a3h17A0-1">
          <mxGeometry x="160" y="390" width="176" height="29" as="geometry" />
        </mxCell>
        <mxCell id="Np66jQosyBjR5a3h17A0-18" value="" style="edgeStyle=none;curved=1;rounded=0;orthogonalLoop=1;jettySize=auto;html=1;fontSize=13;startSize=8;endSize=8;" edge="1" parent="Np66jQosyBjR5a3h17A0-1" source="Np66jQosyBjR5a3h17A0-19" target="Np66jQosyBjR5a3h17A0-21">
          <mxGeometry relative="1" as="geometry" />
        </mxCell>
        <mxCell id="Np66jQosyBjR5a3h17A0-19" value="&lt;font face=&quot;Times New Roman&quot; style=&quot;font-size: 12px;&quot;&gt;&lt;b style=&quot;&quot;&gt;remove_corrupted_images(dir=writable_dir)&lt;/b&gt;&lt;/font&gt;" style="rounded=1;whiteSpace=wrap;html=1;fontSize=13;" vertex="1" parent="Np66jQosyBjR5a3h17A0-1">
          <mxGeometry x="107.94" y="447.5" width="280.13" height="39" as="geometry" />
        </mxCell>
        <mxCell id="ekFi7HthWojdB4T_lYdu-3" value="" style="edgeStyle=orthogonalEdgeStyle;rounded=0;orthogonalLoop=1;jettySize=auto;html=1;entryX=0.002;entryY=0.644;entryDx=0;entryDy=0;entryPerimeter=0;" edge="1" parent="Np66jQosyBjR5a3h17A0-1" source="Np66jQosyBjR5a3h17A0-21" target="Np66jQosyBjR5a3h17A0-23">
          <mxGeometry relative="1" as="geometry">
            <mxPoint x="350.25" y="584.5" as="targetPoint" />
            <Array as="points">
              <mxPoint x="440" y="530" />
              <mxPoint x="440" y="104" />
            </Array>
          </mxGeometry>
        </mxCell>
        <mxCell id="Np66jQosyBjR5a3h17A0-21" value="" style="rhombus;whiteSpace=wrap;html=1;fontSize=13;" vertex="1" parent="Np66jQosyBjR5a3h17A0-1">
          <mxGeometry x="228.75" y="510" width="38.5" height="35" as="geometry" />
        </mxCell>
        <mxCell id="Np66jQosyBjR5a3h17A0-22" value="" style="edgeStyle=none;curved=1;rounded=0;orthogonalLoop=1;jettySize=auto;html=1;fontSize=13;startSize=8;endSize=8;" edge="1" parent="Np66jQosyBjR5a3h17A0-1" source="Np66jQosyBjR5a3h17A0-23" target="Np66jQosyBjR5a3h17A0-25">
          <mxGeometry relative="1" as="geometry" />
        </mxCell>
        <mxCell id="Np66jQosyBjR5a3h17A0-23" value="&lt;font face=&quot;Times New Roman&quot; style=&quot;font-size: 12px;&quot;&gt;&lt;b style=&quot;&quot;&gt;for file in dir:&lt;/b&gt;&lt;/font&gt;&lt;div&gt;&lt;font face=&quot;Times New Roman&quot; style=&quot;font-size: 12px;&quot;&gt;&lt;b style=&quot;&quot;&gt;PIL.Image.open()&lt;/b&gt;&lt;/font&gt;&lt;/div&gt;" style="rounded=1;whiteSpace=wrap;html=1;fontSize=13;" vertex="1" parent="Np66jQosyBjR5a3h17A0-1">
          <mxGeometry x="516.75" y="70" width="259" height="52.5" as="geometry" />
        </mxCell>
        <mxCell id="Np66jQosyBjR5a3h17A0-24" value="" style="edgeStyle=elbowEdgeStyle;elbow=horizontal;endArrow=classic;html=1;curved=0;rounded=0;endSize=8;startSize=8;fontSize=13;entryX=0;entryY=0.5;entryDx=0;entryDy=0;exitX=0;exitY=0.5;exitDx=0;exitDy=0;" edge="1" parent="Np66jQosyBjR5a3h17A0-1" source="Np66jQosyBjR5a3h17A0-9" target="Np66jQosyBjR5a3h17A0-13">
          <mxGeometry width="50" height="50" relative="1" as="geometry">
            <mxPoint x="214" y="228" as="sourcePoint" />
            <mxPoint x="208" y="436" as="targetPoint" />
            <Array as="points">
              <mxPoint x="148" y="330" />
            </Array>
          </mxGeometry>
        </mxCell>
        <mxCell id="Np66jQosyBjR5a3h17A0-25" value="&lt;font face=&quot;Times New Roman&quot; style=&quot;font-size: 12px;&quot;&gt;&lt;b style=&quot;&quot;&gt;Image.verify() raises IOError/SyntaxError?&lt;/b&gt;&lt;/font&gt;" style="rhombus;whiteSpace=wrap;html=1;fontSize=13;" vertex="1" parent="Np66jQosyBjR5a3h17A0-1">
          <mxGeometry x="536.68" y="150.25" width="219.13" height="129.5" as="geometry" />
        </mxCell>
        <mxCell id="Np66jQosyBjR5a3h17A0-26" style="edgeStyle=orthogonalEdgeStyle;rounded=0;orthogonalLoop=1;jettySize=auto;html=1;entryX=0;entryY=0.5;entryDx=0;entryDy=0;fontSize=13;" edge="1" parent="Np66jQosyBjR5a3h17A0-1" target="Np66jQosyBjR5a3h17A0-34">
          <mxGeometry relative="1" as="geometry">
            <mxPoint x="522.25" y="294.5" as="sourcePoint" />
            <mxPoint x="610.1199999999999" y="344.5" as="targetPoint" />
            <Array as="points">
              <mxPoint x="522.25" y="344.5" />
            </Array>
          </mxGeometry>
        </mxCell>
        <mxCell id="Np66jQosyBjR5a3h17A0-27" value="&lt;font face=&quot;Times New Roman&quot; style=&quot;font-size: 12px;&quot;&gt;&lt;b style=&quot;&quot;&gt;&amp;nbsp;&lt;span style=&quot;background-color: transparent; color: light-dark(rgb(0, 0, 0), rgb(255, 255, 255));&quot;&gt;os.remove(file)&lt;/span&gt;&lt;/b&gt;&lt;/font&gt;" style="rounded=1;whiteSpace=wrap;html=1;fontSize=13;" vertex="1" parent="Np66jQosyBjR5a3h17A0-1">
          <mxGeometry x="460" y="256.5" width="142" height="38" as="geometry" />
        </mxCell>
        <mxCell id="Np66jQosyBjR5a3h17A0-28" style="edgeStyle=orthogonalEdgeStyle;rounded=0;orthogonalLoop=1;jettySize=auto;html=1;entryX=1;entryY=0.5;entryDx=0;entryDy=0;fontSize=13;" edge="1" parent="Np66jQosyBjR5a3h17A0-1" source="Np66jQosyBjR5a3h17A0-29" target="Np66jQosyBjR5a3h17A0-34">
          <mxGeometry relative="1" as="geometry">
            <mxPoint x="685.25" y="374.5" as="targetPoint" />
            <Array as="points">
              <mxPoint x="772" y="345" />
              <mxPoint x="685" y="345" />
            </Array>
          </mxGeometry>
        </mxCell>
        <mxCell id="Np66jQosyBjR5a3h17A0-29" value="&lt;font face=&quot;Times New Roman&quot; style=&quot;font-size: 12px;&quot;&gt;&lt;b style=&quot;&quot;&gt;file OK&lt;/b&gt;&lt;/font&gt;" style="rounded=1;whiteSpace=wrap;html=1;fontSize=13;" vertex="1" parent="Np66jQosyBjR5a3h17A0-1">
          <mxGeometry x="709.75" y="256.5" width="120" height="38" as="geometry" />
        </mxCell>
        <mxCell id="Np66jQosyBjR5a3h17A0-30" value="" style="edgeStyle=segmentEdgeStyle;endArrow=classic;html=1;curved=0;rounded=0;endSize=8;startSize=8;fontSize=13;exitX=0;exitY=0.5;exitDx=0;exitDy=0;entryX=0.423;entryY=0;entryDx=0;entryDy=0;entryPerimeter=0;" edge="1" parent="Np66jQosyBjR5a3h17A0-1" source="Np66jQosyBjR5a3h17A0-25" target="Np66jQosyBjR5a3h17A0-27">
          <mxGeometry width="50" height="50" relative="1" as="geometry">
            <mxPoint x="635.25" y="376.5" as="sourcePoint" />
            <mxPoint x="685.25" y="326.5" as="targetPoint" />
          </mxGeometry>
        </mxCell>
        <mxCell id="Np66jQosyBjR5a3h17A0-31" value="&lt;font face=&quot;Times New Roman&quot; style=&quot;font-size: 12px;&quot;&gt;&lt;b style=&quot;&quot;&gt;yes&lt;/b&gt;&lt;/font&gt;" style="text;html=1;align=center;verticalAlign=middle;whiteSpace=wrap;rounded=0;fontSize=13;" vertex="1" parent="Np66jQosyBjR5a3h17A0-1">
          <mxGeometry x="498" y="180" width="60" height="30" as="geometry" />
        </mxCell>
        <mxCell id="Np66jQosyBjR5a3h17A0-32" value="&lt;font style=&quot;font-size: 12px;&quot;&gt;&lt;b style=&quot;&quot;&gt;no&lt;/b&gt;&lt;/font&gt;" style="text;html=1;align=center;verticalAlign=middle;whiteSpace=wrap;rounded=0;fontSize=13;" vertex="1" parent="Np66jQosyBjR5a3h17A0-1">
          <mxGeometry x="756.25" y="188.5" width="60" height="30" as="geometry" />
        </mxCell>
        <mxCell id="Np66jQosyBjR5a3h17A0-33" value="" style="edgeStyle=none;curved=1;rounded=0;orthogonalLoop=1;jettySize=auto;html=1;fontSize=13;startSize=8;endSize=8;" edge="1" parent="Np66jQosyBjR5a3h17A0-1" source="Np66jQosyBjR5a3h17A0-34" target="Np66jQosyBjR5a3h17A0-36">
          <mxGeometry relative="1" as="geometry" />
        </mxCell>
        <mxCell id="Np66jQosyBjR5a3h17A0-34" value="" style="rhombus;whiteSpace=wrap;html=1;fontSize=13;" vertex="1" parent="Np66jQosyBjR5a3h17A0-1">
          <mxGeometry x="624.12" y="323.5" width="42.25" height="42" as="geometry" />
        </mxCell>
        <mxCell id="Np66jQosyBjR5a3h17A0-35" value="" style="edgeStyle=none;curved=1;rounded=0;orthogonalLoop=1;jettySize=auto;html=1;fontSize=13;startSize=8;endSize=8;" edge="1" parent="Np66jQosyBjR5a3h17A0-1" source="Np66jQosyBjR5a3h17A0-36" target="Np66jQosyBjR5a3h17A0-39">
          <mxGeometry relative="1" as="geometry" />
        </mxCell>
        <mxCell id="ekFi7HthWojdB4T_lYdu-5" value="" style="edgeStyle=orthogonalEdgeStyle;rounded=0;orthogonalLoop=1;jettySize=auto;html=1;entryX=0.5;entryY=1;entryDx=0;entryDy=0;" edge="1" parent="Np66jQosyBjR5a3h17A0-1" source="Np66jQosyBjR5a3h17A0-36" target="Np66jQosyBjR5a3h17A0-21">
          <mxGeometry relative="1" as="geometry">
            <Array as="points">
              <mxPoint x="750" y="428" />
              <mxPoint x="750" y="560" />
              <mxPoint x="248" y="560" />
            </Array>
          </mxGeometry>
        </mxCell>
        <mxCell id="Np66jQosyBjR5a3h17A0-36" value="&lt;font face=&quot;Times New Roman&quot; style=&quot;font-size: 12px;&quot;&gt;&lt;b style=&quot;&quot;&gt;more files?&lt;/b&gt;&lt;/font&gt;" style="rhombus;whiteSpace=wrap;html=1;fontSize=13;" vertex="1" parent="Np66jQosyBjR5a3h17A0-1">
          <mxGeometry x="592.75" y="397.5" width="110" height="61" as="geometry" />
        </mxCell>
        <mxCell id="Np66jQosyBjR5a3h17A0-38" value="&lt;font style=&quot;font-size: 16px;&quot;&gt;&lt;b&gt;yes&lt;/b&gt;&lt;/font&gt;" style="text;html=1;align=center;verticalAlign=middle;whiteSpace=wrap;rounded=0;fontSize=13;" vertex="1" parent="Np66jQosyBjR5a3h17A0-1">
          <mxGeometry x="752.25" y="436.5" width="60" height="30" as="geometry" />
        </mxCell>
        <mxCell id="Np66jQosyBjR5a3h17A0-39" value="&lt;font face=&quot;Times New Roman&quot; style=&quot;font-size: 12px;&quot;&gt;&lt;b style=&quot;&quot;&gt;Cleaned dataset ready&lt;/b&gt;&lt;/font&gt;" style="rounded=1;whiteSpace=wrap;html=1;fontSize=13;" vertex="1" parent="Np66jQosyBjR5a3h17A0-1">
          <mxGeometry x="558" y="486.5" width="179.5" height="38" as="geometry" />
        </mxCell>
        <mxCell id="Np66jQosyBjR5a3h17A0-40" style="edgeStyle=orthogonalEdgeStyle;rounded=0;orthogonalLoop=1;jettySize=auto;html=1;exitX=1;exitY=0.5;exitDx=0;exitDy=0;fontSize=13;entryX=0.602;entryY=-0.017;entryDx=0;entryDy=0;entryPerimeter=0;" edge="1" parent="Np66jQosyBjR5a3h17A0-1" source="Np66jQosyBjR5a3h17A0-25" target="Np66jQosyBjR5a3h17A0-29">
          <mxGeometry relative="1" as="geometry">
            <mxPoint x="870" y="250" as="targetPoint" />
          </mxGeometry>
        </mxCell>
        <mxCell id="JbFC16i8YJRmVC-fFJsM-11" style="edgeStyle=orthogonalEdgeStyle;rounded=0;orthogonalLoop=1;jettySize=auto;html=1;exitX=0.5;exitY=1;exitDx=0;exitDy=0;" edge="1" parent="Np66jQosyBjR5a3h17A0-1" source="Np66jQosyBjR5a3h17A0-3" target="Np66jQosyBjR5a3h17A0-3">
          <mxGeometry relative="1" as="geometry" />
        </mxCell>
        <mxCell id="JbFC16i8YJRmVC-fFJsM-12" style="edgeStyle=orthogonalEdgeStyle;rounded=0;orthogonalLoop=1;jettySize=auto;html=1;exitX=0.5;exitY=1;exitDx=0;exitDy=0;" edge="1" parent="Np66jQosyBjR5a3h17A0-1" source="Np66jQosyBjR5a3h17A0-14" target="Np66jQosyBjR5a3h17A0-14">
          <mxGeometry relative="1" as="geometry" />
        </mxCell>
        <mxCell id="Np66jQosyBjR5a3h17A0-41" value="" style="edgeStyle=none;curved=1;rounded=0;orthogonalLoop=1;jettySize=auto;html=1;fontSize=13;startSize=8;endSize=8;entryX=0.5;entryY=0;entryDx=0;entryDy=0;" edge="1" parent="1" source="Np66jQosyBjR5a3h17A0-42" target="Np66jQosyBjR5a3h17A0-3">
          <mxGeometry relative="1" as="geometry" />
        </mxCell>
        <mxCell id="Np66jQosyBjR5a3h17A0-42" value="" style="strokeWidth=2;html=1;shape=mxgraph.flowchart.start_2;whiteSpace=wrap;fontSize=13;" vertex="1" parent="1">
          <mxGeometry x="347" y="230" width="22" height="20" as="geometry" />
        </mxCell>
        <mxCell id="JbFC16i8YJRmVC-fFJsM-17" value="" style="edgeStyle=orthogonalEdgeStyle;rounded=0;orthogonalLoop=1;jettySize=auto;html=1;entryX=0;entryY=0.5;entryDx=0;entryDy=0;" edge="1" parent="1" source="Np66jQosyBjR5a3h17A0-39" target="zgBiQ2AFunNyaSzqTm-e-3">
          <mxGeometry relative="1" as="geometry">
            <mxPoint x="1045" y="382.5" as="targetPoint" />
            <Array as="points">
              <mxPoint x="970" y="766" />
              <mxPoint x="970" y="413" />
              <mxPoint x="1060" y="413" />
            </Array>
          </mxGeometry>
        </mxCell>
        <mxCell id="zgBiQ2AFunNyaSzqTm-e-1" value="&lt;font face=&quot;Times New Roman&quot; style=&quot;color: rgb(0, 102, 0); font-size: 12px;&quot;&gt;Preprocessing &amp;amp; Augmentation&lt;/font&gt;" style="swimlane;whiteSpace=wrap;html=1;startSize=23;fontSize=14;" vertex="1" parent="1">
          <mxGeometry x="1000" y="324" width="320" height="506" as="geometry" />
        </mxCell>
        <mxCell id="zgBiQ2AFunNyaSzqTm-e-2" value="" style="edgeStyle=none;curved=1;rounded=0;orthogonalLoop=1;jettySize=auto;html=1;fontSize=14;startSize=8;endSize=8;" edge="1" parent="zgBiQ2AFunNyaSzqTm-e-1" source="zgBiQ2AFunNyaSzqTm-e-3" target="zgBiQ2AFunNyaSzqTm-e-5">
          <mxGeometry relative="1" as="geometry" />
        </mxCell>
        <mxCell id="zgBiQ2AFunNyaSzqTm-e-3" value="&lt;b&gt;&lt;font face=&quot;Times New Roman&quot; style=&quot;font-size: 12px;&quot;&gt;Set IMG_SIZE, BATCH, EPOCHS, NUM_CLASSES, PATH&lt;/font&gt;&lt;/b&gt;" style="rounded=1;whiteSpace=wrap;html=1;fontSize=14;" vertex="1" parent="zgBiQ2AFunNyaSzqTm-e-1">
          <mxGeometry x="60" y="59" width="217" height="59" as="geometry" />
        </mxCell>
        <mxCell id="zgBiQ2AFunNyaSzqTm-e-4" value="" style="edgeStyle=none;curved=1;rounded=0;orthogonalLoop=1;jettySize=auto;html=1;fontSize=14;startSize=8;endSize=8;" edge="1" parent="zgBiQ2AFunNyaSzqTm-e-1" source="zgBiQ2AFunNyaSzqTm-e-5" target="zgBiQ2AFunNyaSzqTm-e-7">
          <mxGeometry relative="1" as="geometry" />
        </mxCell>
        <mxCell id="zgBiQ2AFunNyaSzqTm-e-5" value="&lt;font style=&quot;&quot;&gt;&lt;b style=&quot;&quot;&gt;&lt;font face=&quot;Times New Roman&quot; style=&quot;font-size: 12px;&quot;&gt;Train datagenerator&lt;/font&gt;&lt;/b&gt;&lt;/font&gt;&lt;div&gt;&lt;font face=&quot;Times New Roman&quot; size=&quot;3&quot;&gt;&lt;b style=&quot;&quot;&gt;(resize, augment, split)&lt;/b&gt;&lt;/font&gt;&lt;/div&gt;" style="rounded=1;whiteSpace=wrap;html=1;fontSize=14;" vertex="1" parent="zgBiQ2AFunNyaSzqTm-e-1">
          <mxGeometry x="54.5" y="152" width="228" height="56" as="geometry" />
        </mxCell>
        <mxCell id="zgBiQ2AFunNyaSzqTm-e-6" value="" style="edgeStyle=none;curved=1;rounded=0;orthogonalLoop=1;jettySize=auto;html=1;fontSize=14;startSize=8;endSize=8;" edge="1" parent="zgBiQ2AFunNyaSzqTm-e-1" source="zgBiQ2AFunNyaSzqTm-e-7" target="zgBiQ2AFunNyaSzqTm-e-9">
          <mxGeometry relative="1" as="geometry" />
        </mxCell>
        <mxCell id="zgBiQ2AFunNyaSzqTm-e-7" value="&lt;b&gt;&lt;font face=&quot;Times New Roman&quot; style=&quot;font-size: 12px;&quot;&gt;Validation datagenerator&lt;/font&gt;&lt;/b&gt;&lt;div&gt;&lt;b&gt;&lt;font face=&quot;Times New Roman&quot; size=&quot;3&quot;&gt;(resize, split)&lt;/font&gt;&lt;/b&gt;&lt;/div&gt;" style="rounded=1;whiteSpace=wrap;html=1;fontSize=14;" vertex="1" parent="zgBiQ2AFunNyaSzqTm-e-1">
          <mxGeometry x="54.5" y="242" width="228" height="59" as="geometry" />
        </mxCell>
        <mxCell id="zgBiQ2AFunNyaSzqTm-e-8" value="" style="edgeStyle=none;curved=1;rounded=0;orthogonalLoop=1;jettySize=auto;html=1;fontSize=14;startSize=8;endSize=8;" edge="1" parent="zgBiQ2AFunNyaSzqTm-e-1" source="zgBiQ2AFunNyaSzqTm-e-9" target="zgBiQ2AFunNyaSzqTm-e-10">
          <mxGeometry relative="1" as="geometry" />
        </mxCell>
        <mxCell id="zgBiQ2AFunNyaSzqTm-e-9" value="&lt;font face=&quot;Times New Roman&quot; style=&quot;font-size: 12px;&quot;&gt;&lt;b style=&quot;&quot;&gt;Train generator (from directory)&lt;/b&gt;&lt;/font&gt;" style="rounded=1;whiteSpace=wrap;html=1;fontSize=14;" vertex="1" parent="zgBiQ2AFunNyaSzqTm-e-1">
          <mxGeometry x="54.5" y="340" width="223" height="43" as="geometry" />
        </mxCell>
        <mxCell id="zgBiQ2AFunNyaSzqTm-e-10" value="&lt;font face=&quot;Times New Roman&quot; style=&quot;font-size: 12px;&quot;&gt;&lt;b style=&quot;&quot;&gt;Val generator (from directory)&lt;/b&gt;&lt;/font&gt;" style="whiteSpace=wrap;html=1;rounded=1;fontSize=14;" vertex="1" parent="zgBiQ2AFunNyaSzqTm-e-1">
          <mxGeometry x="58.5" y="413" width="216" height="37" as="geometry" />
        </mxCell>
      </root>
    </mxGraphModel>
  </diagram>
</mxfile>
